<svg width="174" height="173" viewBox="0 0 174 173" fill="none" xmlns="http://www.w3.org/2000/svg">
<path d="M92.0304 0.000278013C89.3166 -0.00558124 88.2922 0.0797142 87.2491 0.395193C84.2506 1.30226 82.4201 2.69 80.7866 5.29469C80.2127 6.20989 79.6903 6.9587 79.6259 6.9587C79.5615 6.9587 79.0425 6.54943 78.4722 6.04953C76.6665 4.46672 74.5026 3.60834 71.3072 3.20634C66.4711 2.59794 60.2526 4.93373 55.7335 9.05614C53.7319 10.8821 51.2762 14.7436 51.2578 16.0942C51.251 16.5652 51.2204 16.5666 50.2089 16.1465C48.8589 15.5859 45.9246 14.9236 43.3834 14.6057C39.7504 14.1513 37.6756 14.5445 34.1451 16.3567C31.7402 17.5912 29.9529 19.0661 28.1474 21.3047C26.3424 23.5427 25.2018 25.4567 24.22 27.8954C22.9918 30.9466 22.455 33.5 22.558 35.8046L22.6446 37.7425H20.2652C18.3123 37.7425 17.4908 37.8554 15.6842 38.3736C8.68031 40.3822 5.05742 44.397 2.86361 52.5806C2.1543 55.2266 2.14053 59.3556 2.83402 61.4739C3.4263 63.2831 4.46075 65.3201 5.22378 66.1796C5.53796 66.5335 5.79522 66.8703 5.79522 66.9279C5.79522 66.9855 5.15664 67.7055 4.37599 68.528C2.88679 70.0969 1.66514 72.1356 0.866414 74.3846C0.19181 76.2842 0.0471474 79.5487 0.544789 81.6489C1.27757 84.7414 2.05832 87.0379 3.14215 89.2899C4.25572 91.6037 4.38713 92.0016 4.03869 92.0016C3.76405 92.0016 2.14621 94.5181 1.45787 96.0161C1.1429 96.7015 0.674107 98.0925 0.415966 99.1071C-0.529419 102.823 0.180406 108.47 2.10111 112.515C3.74971 115.987 6.81668 119.798 10.0107 122.342L11.8865 123.835L11.9339 127.795C11.9767 131.363 12.0403 131.95 12.5763 133.734C13.5398 136.941 14.9679 139.436 16.9646 141.402C19.0554 143.461 20.5672 144.479 22.6245 145.213C25.9577 146.403 29.5109 146.456 32.0892 145.354C33.1592 144.896 33.6486 144.924 33.649 145.443C33.6493 145.943 34.994 148.53 36.2433 150.435C37.7198 152.686 41.3904 156.411 43.3808 157.677C44.1374 158.158 44.9102 158.652 45.0982 158.773C45.4026 158.971 45.3901 159.208 44.9815 160.945C44.6818 162.219 44.5754 163.179 44.6747 163.713C44.8974 164.913 46.7122 166.57 49.039 167.699C52.2879 169.275 53.8875 169.413 55.2913 168.239C56.1291 167.538 58.0551 164.991 58.931 163.424C60.1064 161.322 59.962 161.375 61.3016 162.557C63.5174 164.513 66.3939 166.155 70.2044 167.638C73.1556 168.787 73.9949 169.018 76.6473 169.412C79.5102 169.837 81.4885 169.707 85.5179 168.831C89.1474 168.041 90.2113 167.601 93.2025 165.653C93.7544 165.294 93.767 165.301 94.5599 166.398C98.6897 172.111 109.899 174.108 117.164 170.424L118.112 169.943L118.831 170.479C119.64 171.081 121.138 171.86 122.323 172.294C123.407 172.69 125.019 172.682 126.613 172.271C128.5 171.785 131.458 170.363 132.277 169.547C132.728 169.098 133.105 168.38 133.354 167.497C133.708 166.245 133.818 165.244 133.993 161.675L134.056 160.37L136.162 159.864C144.474 157.869 150.861 153.333 153.965 147.22C155.006 145.167 155.32 143.963 155.508 141.278L155.648 139.284L156.842 139.14C160.266 138.724 164.165 135.163 166.352 130.453C168.989 124.773 168.57 117.384 165.412 113.911C164.971 113.426 164.65 112.997 164.697 112.957C164.745 112.918 165.43 112.548 166.219 112.135C168.854 110.757 171.867 107.106 172.948 103.983C173.738 101.702 173.409 98.1286 172.161 95.4343C171.478 93.9592 169.984 92.1224 168.783 91.2809L167.807 90.5975L169.097 89.6645C171.588 87.8634 172.883 85.5558 173.639 81.5714C174.056 79.3742 174.083 78.8507 173.866 77.1387C173.574 74.8395 173.107 73.7105 171.402 71.1837C169.3 68.0672 167.808 66.7337 164.942 65.4075L162.483 64.2699L163.765 63.0206C166.512 60.3431 167.466 56.6275 166.549 52.1836C166.003 49.5414 165.088 47.8462 163.235 46.0474C160.857 43.7391 157.924 42.4402 154.62 42.2336L152.702 42.1138L153.021 41.0908C153.411 39.8411 153.299 36.9438 152.808 35.5801C151.909 33.0861 149.451 30.5723 146.361 28.9863C141.969 26.7315 138.023 26.1682 134.177 27.2466C133.52 27.4307 132.96 27.5503 132.932 27.5126C132.904 27.475 132.701 26.647 132.479 25.6726C132.257 24.6981 131.877 23.5021 131.635 23.0149C130.966 21.6714 128.956 19.2921 127.753 18.42C125.411 16.723 121.778 15.3441 118.623 14.9548C115.988 14.6297 112.246 15.1781 111.075 16.0609C110.927 16.1728 110.585 15.1592 110.112 13.2025C109.254 9.65601 108.537 8.18959 106.677 6.17143C104.356 3.65453 101.732 2.06504 97.7126 0.741216C95.581 0.0392361 95.3344 0.00693245 92.0304 0.000278013ZM91.8076 2.86681C94.3165 2.87183 94.8081 2.94137 96.7586 3.56969C100.698 4.83863 103.643 6.83245 105.365 9.3944C106.379 10.9038 106.745 11.9451 107.426 15.258C107.676 16.4732 107.967 17.5709 108.072 17.6972C108.177 17.8235 108.296 18.3139 108.336 18.7872C108.44 20.0235 108.951 20.2623 109.863 19.5001C113.019 16.8606 118.442 16.7104 123.523 19.1216C126.176 20.3809 127.902 21.9125 129.015 23.9964C129.496 24.898 129.895 26.9188 129.904 28.4963C129.91 29.689 130.002 30.0807 130.357 30.4341C130.949 31.022 131.597 30.9933 132.243 30.3511C133.064 29.5358 134.037 29.2903 136.931 29.1689C140.123 29.035 141.466 29.3173 144.583 30.7784C146.276 31.5716 146.967 32.0558 148.272 33.3642C149.156 34.2496 150.067 35.3728 150.298 35.86C151.198 37.7603 150.936 40.1726 149.561 42.645C149.004 43.6478 149 43.6858 149.387 44.2727C149.731 44.7946 149.876 44.8522 150.488 44.7087C152.589 44.2159 155.942 44.7589 158.427 45.9947C161.998 47.7701 164.003 51.0983 163.997 55.2383C163.992 58.0879 162.986 59.9748 160.364 62.0501C158.299 63.6845 157.765 64.2683 157.765 64.8915C157.765 65.5242 158.544 66.0901 159.414 66.0901C159.777 66.0901 161.233 66.6632 162.651 67.3635C164.642 68.3464 165.536 68.9401 166.571 69.9657C168.153 71.5333 169.877 74.0173 170.481 75.598C171.301 77.7424 170.871 82.1861 169.608 84.6197C169.366 85.0863 168.742 85.8915 168.223 86.4092C167.288 87.3397 164.939 88.6796 164.241 88.6796C162.989 88.6796 162.372 90.5082 163.386 91.214C163.658 91.4036 164.089 91.5586 164.344 91.5586C165.091 91.5586 167.894 94.0887 168.898 95.6688C170 97.4016 170.554 99.525 170.405 101.439C170.218 103.845 167.937 107.355 165.462 109.048C164.953 109.396 163.617 110 162.493 110.39C161.37 110.78 160.335 111.237 160.194 111.406C159.539 112.191 160.225 113.705 161.236 113.705C161.9 113.705 163.173 115.189 164.021 116.952C166.439 121.982 164.368 130.45 159.761 134.369C158.211 135.688 157.138 136.073 155.017 136.073C153.496 136.073 153.087 136.147 152.786 136.478C152.245 137.073 152.329 137.999 152.984 138.65L153.551 139.213L153.206 141.045C152.759 143.414 152.209 144.979 151.294 146.486C148.461 151.153 143.988 154.373 137.46 156.446C133.407 157.734 129.848 158.139 126.688 157.672C123.611 157.218 122.785 157.553 122.779 159.257C122.775 160.501 120.691 164.049 119.071 165.572C117.697 166.863 114.811 168.358 112.774 168.833C110.717 169.313 107.304 169.422 105.495 169.066C102.664 168.507 99.7407 167.221 98.3006 165.9C98.0111 165.635 97.3773 164.839 96.8918 164.132C95.836 162.595 95.1776 162.266 94.1782 162.777C93.3366 163.207 90.3232 164.526 88.8547 165.107C87.3693 165.696 83.1406 166.566 80.8889 166.748C79.5404 166.856 78.3852 166.796 76.878 166.541C74.2934 166.103 73.2609 165.777 69.9703 164.361C67.0955 163.124 65.0717 161.898 62.9481 160.108C61.3028 158.721 60.6745 158.491 59.6613 158.908C58.5497 159.366 54.4074 159.289 52.2553 158.77C50.3695 158.316 46.5864 156.518 44.679 155.169C40.9802 152.554 37.4389 147.791 36.2259 143.8C35.5818 141.681 35.1198 141.097 34.1699 141.205C33.6983 141.259 33.4373 141.482 33.1428 142.081C32.7977 142.782 32.5728 142.933 31.3602 143.275C29.5042 143.8 26.5648 143.8 24.9586 143.277C22.6567 142.526 21.2287 141.651 19.4414 139.896C15.8163 136.335 14.4342 131.821 15.0161 125.441C15.2419 122.966 15.1872 122.816 13.8062 122.116C12.1324 121.267 7.63524 116.549 5.94407 113.868C3.94411 110.698 2.811 107.339 2.54765 103.799C2.38595 101.626 2.91795 98.7947 3.81804 97.0386C4.31291 96.0731 5.86688 93.6769 6.67653 92.6309C7.36447 91.7421 7.25396 90.6827 6.26917 88.7302C5.18098 86.5727 4.35998 84.3097 3.6396 81.4819C3.17716 79.6666 3.10289 78.9905 3.22745 77.7313C3.39083 76.0795 4.09537 73.9788 4.99573 72.4602C5.90622 70.9245 7.89645 68.5697 8.88568 67.8575C9.39202 67.4929 9.80616 67.0447 9.80616 66.8613C9.80616 66.6779 9.19028 65.9097 8.43741 65.1544C5.47109 62.1787 4.51069 58.0381 5.70295 53.3657C7.45441 46.5019 10.46 43.0515 16.3318 41.1648C18.2686 40.5425 19.1337 40.3839 20.7884 40.3477C21.9177 40.323 23.2063 40.3855 23.6521 40.487C24.3306 40.6414 24.5393 40.5953 24.9334 40.2037C25.3601 39.7795 25.4043 39.4876 25.4043 37.0806C25.4043 35.0637 25.5176 34.0124 25.8765 32.7067C26.8958 28.9974 28.2194 26.3653 30.4963 23.5176C32.2541 21.319 33.6675 20.2011 36.2489 18.968L38.4398 17.9212L41.3366 17.9254C43.7893 17.9296 44.5649 18.0216 46.3955 18.5266C47.5847 18.8547 49.2617 19.4754 50.1223 19.9061C51.7005 20.696 52.7253 20.8697 53.47 20.4736C54.0814 20.1484 54.2177 19.239 53.7898 18.3428C53.4732 17.6797 53.4585 17.4249 53.6893 16.6347C54.754 12.9897 60.5416 8.02448 65.3204 6.65621C67.8438 5.9337 69.8507 5.78706 71.8103 6.18169C74.2726 6.67756 75.8096 7.51822 77.6518 9.37693C78.8172 10.5528 79.3566 10.9449 79.8087 10.9449C80.5912 10.9449 81.1117 10.4114 81.1117 9.6101C81.1117 8.80427 83.4874 5.61907 84.8589 4.58599C86.4641 3.37695 88.5524 2.86046 91.8076 2.86681ZM32.9805 51.4733C32.0325 51.4733 31.5532 52.2746 31.7597 53.5145C31.9868 54.8784 32.6326 56.4731 33.3208 57.3699C33.6486 57.797 33.8627 58.2003 33.7965 58.2661C33.7303 58.3319 33.1936 58.2007 32.604 57.9746C31.0675 57.3854 27.8074 57.4553 25.8499 58.1195C20.9892 59.7688 17.8355 62.6983 17.8302 65.5684C17.8285 66.514 17.9349 66.8212 18.4565 67.3761C19.6517 68.6476 22.3495 68.8522 25.07 67.8774C27.4288 67.0321 27.2775 66.9811 26.6429 68.4073C25.3806 71.2441 24.9294 73.1463 24.7976 76.1871C24.6168 80.3568 25.0802 82.6469 26.83 86.2357C27.8863 88.402 29.2596 89.9108 32.0287 91.9467C34.0332 93.4205 38.8123 95.9124 42.0678 97.1814C48.5449 99.7062 56.0722 100.891 64.8452 100.767C68.2538 100.718 69.0392 100.636 71.0844 100.109C80.6023 97.6597 84.4554 94.4486 87.1055 86.7573C87.4908 85.6392 87.9255 83.979 88.0713 83.0681L88.3363 81.4119L89.507 82.4755C92.6301 85.3123 96.6737 84.6286 97.8218 81.0697C98.1609 80.0187 97.9686 78.3547 97.3405 76.9034C96.6542 75.3179 95.0662 73.9875 92.3607 72.7319C91.0761 72.1357 90.0249 71.6039 90.0249 71.5497C90.0249 71.4956 90.5236 71.1334 91.133 70.7447C93.433 69.2779 94.2185 67.6221 92.9949 66.8194C92.5474 66.5258 92.4462 66.5618 91.6635 67.2956C90.3739 68.5045 87.1937 70.0419 85.1775 70.4312C82.3223 70.9824 77.4711 70.7955 75.0953 70.0423C73.0333 69.3886 71.1542 67.9712 70.3989 66.4997C70.1622 66.0385 69.8218 65.035 69.643 64.2699C69.3275 62.9205 68.7368 62.1037 68.0762 62.1037C67.5369 62.1037 66.8146 62.8907 66.6587 63.6483C66.5262 64.2922 66.3174 64.4977 65.2839 65.0009C62.5432 66.3353 58.8236 66.8508 56.4555 66.2242C52.8793 65.2778 50.1584 62.0934 50.1436 58.8371C50.1394 57.9746 50.0233 57.56 49.6927 57.2314C49.0958 56.6382 48.5866 56.6733 47.551 57.3794C46.1165 58.3575 44.7209 58.7818 42.9499 58.7782C41.2085 58.7749 38.9345 58.3257 37.8584 57.7726C36.1087 56.8733 34.7332 55.1012 34.4223 53.3454C34.1916 52.0421 33.7535 51.4733 32.9805 51.4733ZM30.1577 59.0594C30.7554 59.0175 31.2792 59.0342 31.6761 59.1208L32.3677 59.2718L30.1672 61.4882C27.618 64.0561 25.9023 65.2548 23.8928 65.8716C22.1541 66.4054 20.4497 66.4503 20.0507 65.9724C19.2322 64.9923 21.508 62.1309 24.2374 60.7087C25.9088 59.8379 28.3646 59.1851 30.1577 59.0594ZM35.849 59.7251C38.7524 61.3136 43.3224 61.8809 46.1553 61.0046C47.519 60.5827 47.8938 60.6407 47.9066 61.2754C47.9158 61.7281 48.9888 63.6789 49.8424 64.7951C51.5621 67.0437 53.2298 68.0612 56.1661 68.6525C57.7181 68.9651 58.3554 68.9892 59.9368 68.7957C61.9404 68.5505 64.0308 67.9287 65.7848 67.056C66.3628 66.7684 66.9192 66.533 67.0212 66.533C67.1232 66.533 67.3262 66.8611 67.4721 67.2623C67.6181 67.6634 68.2877 68.6547 68.9601 69.4649C70.0116 70.7319 70.4717 71.0795 72.249 71.9503C73.9708 72.7938 74.7057 73.0169 76.6551 73.2873C79.4126 73.6699 82.2243 73.7066 84.21 73.3863C84.9948 73.2598 85.7107 73.2356 85.8012 73.3327C85.8917 73.4297 85.8747 75.5522 85.7633 78.0492C85.5794 82.1724 85.4979 82.7914 84.8755 84.7935C82.5761 92.19 79.5524 94.7876 70.7502 96.9279C68.3279 97.5168 59.006 97.679 55.4863 97.1935C49.0171 96.3011 45.1309 95.1767 39.6945 92.6244C34.3525 90.1164 31.0836 87.5456 29.7608 84.8121C28.6903 82.6001 28.2899 80.9131 28.224 78.3343C28.1119 73.9446 28.6971 71.9286 31.6927 66.3834C33.5622 62.9224 35.6321 59.6065 35.849 59.7251ZM42.0843 65.8881C40.7361 65.8116 39.1076 67.1392 38.0181 69.4121C37.449 70.5994 37.3142 71.1841 37.2504 72.7483C37.1856 74.3349 37.2514 74.8111 37.6542 75.662C38.4752 77.3979 40.0333 77.7873 41.5407 76.6335C44.2289 74.5761 45.297 68.4253 43.309 66.4495C42.9523 66.095 42.5337 65.9136 42.0843 65.8881ZM41.8876 67.5361C42.1968 67.6132 42.5002 67.726 42.5617 67.787C42.6233 67.848 42.7085 68.7816 42.751 69.8615C42.847 72.2943 42.4462 73.6282 41.1943 75.0417C40.1825 76.1842 39.6197 76.3087 39.0913 75.5072C38.2236 74.191 38.3064 71.4718 39.2759 69.4588C39.8814 68.2013 41.0641 67.3307 41.8876 67.5361ZM88.4094 72.7708C88.5013 72.8114 89.7537 73.427 91.1926 74.139C93.8379 75.4477 94.6128 76.1033 95.4225 77.7171C96.8451 80.5526 95.1254 82.8907 92.3442 81.9028C90.6096 81.2867 89.3018 79.5015 88.5931 76.7832C88.2348 75.4088 88.1079 72.6376 88.4094 72.7708ZM72.7674 73.4041C72.3607 73.4108 71.9231 73.5066 71.4639 73.6974C69.5793 74.48 68.2666 77.3493 68.4696 80.2423C68.7485 84.2161 70.709 85.9387 73.0416 84.2594C73.9925 83.5747 74.9628 82.1492 75.3334 80.8916C75.6424 79.8433 75.6367 76.7875 75.3238 75.6335C74.9275 74.1717 73.9875 73.3845 72.7674 73.4041ZM72.5659 74.9487C73.5616 74.9487 74.0248 75.8524 74.1548 78.0492C74.2771 80.1153 73.9816 81.2386 72.9684 82.5573C72.0267 83.7832 71.1552 83.9537 70.5469 83.0309C69.6586 81.6835 69.6236 79.1994 70.4625 77.0526C71.0478 75.5547 71.6535 74.9487 72.5659 74.9487ZM48.8023 76.3882C47.6531 76.3882 47.7339 78.8311 48.9298 80.2436C49.4656 80.8764 49.4756 80.9391 49.1465 81.5715C48.6974 82.4346 48.7059 84.0937 49.1639 85.0531C49.9638 86.7283 51.5591 87.1617 53.0987 86.122C53.9629 85.5383 54.9252 84.2293 55.1534 83.3272C55.2691 82.8696 55.4188 82.8092 56.4594 82.7995C57.9271 82.7859 59.4818 81.941 60.2998 80.7124C60.7679 80.0094 60.8249 79.775 60.621 79.3962C60.3574 78.9068 59.4088 78.7614 59.1539 79.1713C58.8202 79.7079 57.16 80.7068 56.6018 80.7068C55.7768 80.7068 55.332 80.1327 55.1438 78.8244C54.8506 76.7866 54.1826 76.6489 52.4572 78.2707C51.8093 78.8797 51.1383 79.378 50.9662 79.378C50.4675 79.378 49.9879 78.6902 49.6536 77.4956C49.3904 76.5552 49.2619 76.3882 48.8023 76.3882ZM53.2702 80.773C53.4927 80.7735 53.5271 80.9242 53.6031 81.2255C53.7982 81.998 53.346 83.2495 52.5429 84.1586C51.7688 85.0348 51.1975 85.1169 50.7081 84.4224C49.9088 83.2883 50.451 81.7123 51.8096 81.2211C52.6372 80.9219 53.0477 80.7725 53.2702 80.773ZM43.7072 115.743C43.5895 115.761 43.4639 115.819 43.339 115.922C42.9167 116.27 42.914 117.483 43.3334 118.479C43.8261 119.651 45.9114 121.617 46.8464 121.792L47.625 121.937L47.6007 123.761C47.5789 125.379 47.6517 125.732 48.2474 126.889C49.1138 128.573 50.2244 129.371 52.0329 129.609C53.7065 129.829 55.1466 129.701 56.1548 129.245C56.5838 129.05 57.4523 128.38 58.085 127.754C59.0116 126.839 59.3259 126.327 59.7005 125.121C59.9563 124.298 60.1657 123.386 60.1657 123.094C60.1657 122.738 60.2935 122.563 60.5557 122.562C61.2075 122.558 63.1451 121.332 64.02 120.37C65.4643 118.781 64.9708 117.141 63.2297 117.744C62.8913 117.861 62.4387 118.179 62.2243 118.45C62.0099 118.721 61.4092 119.222 60.8895 119.564C60.1037 120.081 59.7776 120.167 58.9537 120.075C57.65 119.928 56.3993 118.934 55.7287 117.511C55.1898 116.368 54.4454 115.824 53.762 116.076C53.5461 116.156 52.7678 116.76 52.0325 117.42C49.8248 119.399 47.9726 120.072 46.6293 119.381C45.6085 118.857 44.3448 117.284 44.3448 116.538C44.3448 115.999 44.0603 115.69 43.7072 115.743ZM102.292 117.47C101.85 117.47 101.517 118.272 101.524 119.321C101.536 121.296 103.22 123.768 104.965 124.372C105.539 124.571 105.623 124.708 105.623 125.45C105.623 127.671 107.006 129.021 110.026 129.749C111.644 130.138 112.225 130.154 113.69 129.845C114.339 129.708 115.238 129.411 115.687 129.186C117.137 128.457 118.765 126.03 118.773 124.585C118.778 123.839 118.978 123.549 119.628 123.347C120.535 123.065 121.838 121.622 122.011 120.708C122.234 119.527 121.855 118.799 121.018 118.799C120.51 118.799 120.175 119.022 119.552 119.778C119.108 120.317 118.435 120.865 118.056 120.996C117.012 121.358 115.425 121.274 114.38 120.803C113.617 120.459 113.319 120.134 112.764 119.04C111.744 117.033 110.576 116.963 109.607 118.852C109.346 119.36 108.552 120.353 107.841 121.059C106.071 122.819 105.167 122.798 103.833 120.969C103.345 120.299 103.172 119.813 103.172 119.114C103.172 118.237 102.761 117.47 102.292 117.47ZM53.4974 119.463C53.5911 119.463 54.255 120.047 54.9723 120.76C55.6897 121.473 56.6571 122.192 57.1223 122.36C57.9302 122.65 57.9618 122.698 57.823 123.434C57.5065 125.111 55.9599 127.066 54.7582 127.309C53.6768 127.527 53.1099 127.555 52.2553 127.43C51.765 127.359 51.129 127.173 50.8417 127.017C50.1563 126.645 49.2871 124.707 49.2418 123.45C49.1867 121.918 49.2249 121.678 49.5256 121.678C50.0312 121.677 52.4698 120.421 52.9024 119.937C53.1359 119.677 53.4036 119.463 53.4974 119.463ZM110.944 121.395L111.677 122.124C112.459 122.902 114.357 123.885 115.093 123.894C115.97 123.905 116.075 124.169 115.6 125.17C114.905 126.635 114.124 127.063 111.992 127.149C110.803 127.197 109.896 127.112 109.323 126.901C108.194 126.484 107.864 126.135 107.711 125.195C107.594 124.48 107.663 124.363 108.665 123.576C109.259 123.11 110.015 122.428 110.345 122.062L110.944 121.395ZM47.9967 160.213C48.0104 160.213 48.5229 160.402 49.1356 160.632C50.9977 161.332 53.8659 161.814 55.6356 161.726C56.5338 161.681 57.2689 161.678 57.2689 161.72C57.2689 162.14 53.4903 166.418 53.1292 166.406C53.0163 166.403 52.2218 166.093 51.3639 165.717C49.374 164.845 47.3851 163.395 47.5597 162.943C47.6301 162.76 47.7516 162.071 47.8296 161.412C47.9076 160.752 47.9829 160.213 47.9967 160.213ZM125.032 160.645C125.182 160.575 125.461 160.601 126.012 160.656C126.625 160.717 128.264 160.756 129.656 160.743L132.185 160.72L132.034 162.183C131.838 164.085 131.283 166.821 130.952 167.514C130.663 168.12 128.968 169.046 126.903 169.726C125.167 170.298 123.918 170.448 123.237 170.165C122.936 170.04 122.15 169.632 121.491 169.256L120.291 168.574L121.164 167.66C123.062 165.672 124.635 162.899 124.824 161.21C124.861 160.881 124.882 160.715 125.032 160.645Z" fill="black"/>
<path d="M91.2192 2.54922C88.1602 2.42637 84.894 3.38153 83.0342 5.94761C81.8664 7.21997 80.9847 8.74065 80.3769 10.3138C79.3554 10.9068 78.5511 9.44318 77.7592 8.97757C75.3975 6.60594 72.032 5.31185 68.6749 5.70743C62.9963 6.09475 57.8939 9.65134 54.5847 14.1075C53.5701 15.5201 52.7094 17.3358 53.5737 19.0446C53.9028 20.0026 52.8398 20.5452 52.0409 20.1456C48.9185 19.0997 45.7856 17.5425 42.3675 17.5793C40.5572 17.6003 38.5844 16.9497 37.0276 18.1928C30.3925 21.04 26.1069 27.8531 25.1689 34.818C24.8036 36.4445 25.389 38.2506 24.6955 39.7511C21.9839 40.5576 18.9222 39.5706 16.2433 40.7923C11.9907 42.107 8.22655 45.1468 6.65229 49.3652C4.70843 53.8773 3.83311 59.6166 6.89128 63.8526C7.59068 64.8955 8.72782 65.8053 9.26596 66.8643C6.25972 69.862 3.10505 73.3542 2.90925 77.8188C2.72071 82.5605 5.34264 86.7561 6.6369 91.1687C6.35886 93.155 4.6003 94.5825 3.81449 96.3933C0.826675 101.643 2.3262 108.166 5.10325 113.168C7.47367 117.043 10.7087 120.426 14.4429 123.026C14.7973 125.453 14.4773 128.117 14.7106 130.631C15.0124 136.475 19.3993 141.762 24.8921 143.649C27.3911 144.04 30.2082 144.357 32.5357 143.152C33.3437 142.817 33.8859 141.103 34.9058 141.881C36.1291 144.17 36.7604 146.774 38.3324 148.899C41.6823 154.206 47.2299 158.085 53.4035 159.351C55.7825 159.658 58.2366 159.588 60.5684 159.158C62.854 160.183 64.609 162.13 66.8846 163.213C72.0384 166.093 78.1053 168.056 84.037 166.699C87.8199 166.101 91.2706 164.39 94.7991 163.031C96.4417 163.272 96.9238 165.299 98.1487 166.209C101.78 169.12 106.732 170.124 111.299 169.426C114.241 169.019 117.134 167.726 119.352 165.758C121.435 163.701 122.874 161.024 123.477 158.192C128.023 157.721 132.88 158.66 137.282 156.896C143.819 154.909 150.336 150.772 152.743 144.111C153.276 142.458 153.894 140.695 153.856 138.983C153.243 138.462 152.192 137.118 153.434 136.671C155.769 136.382 158.406 136.336 160.142 134.492C164.393 130.477 166.296 124.074 164.928 118.408C164.321 116.458 163.286 114.304 161.382 113.345C160.517 113.265 159.679 111.755 160.947 111.484C163.85 110.269 167.006 109.018 168.751 106.228C169.989 104.534 170.928 102.543 170.639 100.395C170.809 97.7553 169.451 95.3304 167.513 93.6124C166.383 92.429 165.112 91.3349 163.57 90.7685C162.645 89.7823 164.259 88.9432 165.123 88.8001C168.239 87.5158 170.735 84.6686 170.992 81.2444C171.346 78.6639 171.507 75.8134 169.838 73.6096C167.581 69.4537 163.355 66.7109 158.838 65.5345C157.658 65.2101 158.454 64.0401 159.108 63.6367C161.541 61.62 164.263 59.2219 164.355 55.8147C164.677 51.2097 161.741 46.5603 157.273 45.1151C154.954 44.1306 152.411 44.2092 149.955 44.2297C148.969 43.7683 150.2 42.6699 150.284 42.0297C151.502 39.4487 151.57 36.0449 149.335 33.9669C146.253 30.61 141.676 28.4779 137.053 28.8515C135.075 28.7967 132.991 29.0808 131.457 30.4143C130.139 30.5416 130.494 28.6284 130.235 27.8063C130.03 24.9159 128.819 21.9795 126.282 20.3695C122.254 17.5202 116.726 16.0409 111.971 17.8617C110.931 18.1663 109.875 19.2808 108.983 19.3052C107.513 15.2049 107.471 10.2138 103.875 7.19092C101.121 4.68712 97.5245 3.01065 93.8186 2.57912C92.9529 2.53532 92.0856 2.54426 91.2192 2.54922ZM32.9863 51.8728C34.4207 52.4776 33.9438 54.541 34.9728 55.5782C36.3107 57.6242 38.5937 58.8519 41.0368 58.9493C43.3847 59.247 45.8429 59.0001 47.8641 57.6897C48.4402 57.3692 49.3449 56.8466 49.5045 57.9037C49.9328 59.9987 50.3285 62.2534 51.9338 63.8353C53.8276 65.8879 56.6231 67.1754 59.457 66.775C62.0488 66.5346 65.0663 66.1873 66.885 64.1381C67.0831 63.4575 67.9454 61.8621 68.6549 62.9102C69.577 64.7133 69.7043 66.9852 71.4704 68.2852C74.3428 71.2089 78.7994 71.0674 82.5956 71.0516C86.0829 70.9745 89.3948 69.5743 92.1294 67.4758C92.4908 67.1785 93.1638 66.9382 93.1322 67.6684C93.0386 69.5743 90.7106 70.2193 89.6627 71.4589C90.3616 72.6302 92.1186 72.8706 93.2503 73.6798C95.424 74.7371 97.3812 76.62 97.5161 79.1618C98.1173 81.9822 95.1447 84.5392 92.4313 83.6625C90.7679 83.3465 89.7283 81.8595 88.3584 81.1004C87.4156 81.9853 87.7957 83.6592 87.274 84.8528C85.93 89.9388 82.9191 95.1835 77.844 97.2744C73.8231 99.1844 69.5281 100.469 65.0459 100.279C55.5489 100.651 45.8601 99.0423 37.3722 94.577C32.8615 92.3557 28.2628 89.3907 26.48 84.4589C24.2953 79.0908 24.9449 72.9086 27.3132 67.716C27.3894 66.4624 25.8591 67.2448 25.1899 67.4037C23.1782 68.0123 20.3693 68.7388 18.7338 66.984C17.4571 64.8702 19.2875 62.3636 21.0121 61.0959C24.4971 58.4921 29.1489 57.1381 33.4013 58.5604C34.6247 58.4283 33.6462 57.078 33.2805 56.5403C32.7607 55.276 31.9041 53.8379 32.2124 52.4493C32.3579 52.1578 32.6225 51.8384 32.9863 51.8728ZM43.7319 116.266C44.2734 116.964 44.5228 118.029 45.261 118.666C46.4639 120.502 49.0258 120.152 50.5674 118.982C51.8392 118.237 52.8973 117 54.2126 116.416C55.575 117.318 55.9424 119.207 57.507 119.943C59.0716 121.07 61.0284 120.155 62.237 118.951C62.7552 118.564 63.9889 117.452 64.4105 118.43C64.2317 120.16 62.4287 121.196 61.0504 122.007C59.3131 122.343 59.7516 124.566 58.9764 125.75C57.9586 128.151 55.3548 129.682 52.7473 129.275C49.8185 129.401 47.7615 126.402 47.9562 123.698C48.04 122.756 48.0172 121.347 46.7404 121.322C44.9726 120.349 43.0872 118.465 43.6325 116.266L43.6968 116.264L43.7319 116.266ZM102.292 117.915C103.04 119.143 102.891 120.847 104.084 121.871C105.245 123.285 107.23 122.355 108.202 121.221C109.324 120.24 109.88 118.47 111.331 117.961C112.608 119.008 113.143 121.102 115.061 121.357C116.66 121.68 118.507 121.594 119.59 120.201C120.09 119.648 121.463 118.526 121.676 119.884C121.68 121.698 119.969 122.604 118.707 123.533C118.259 124.438 118.36 125.564 117.695 126.417C116.18 129.726 111.743 130.196 108.738 128.93C107.178 128.355 105.896 126.906 106.043 125.181C105.508 123.796 103.657 123.545 103.003 122.182C102.189 120.993 101.48 119.261 102.292 117.915Z" fill="white"/>
<path d="M35.6082 59.4974C34.2111 60.7763 33.5022 62.7101 32.4566 64.2861C30.3568 68.1555 27.7246 72.1409 27.9575 76.7293C27.8363 79.5118 27.9335 82.4139 29.4019 84.8801C32.029 89.6736 37.3857 91.9923 42.1696 94.1037C46.8919 96.0836 51.9668 97.2279 57.0574 97.7142C61.8183 97.6992 66.663 98.0952 71.3574 97.1295C76.1516 96.0131 81.3018 93.8245 83.5222 89.1325C86.1045 84.3135 86.4185 78.6468 86.1518 73.3312C84.9463 72.6947 83.1999 73.227 81.7884 73.048C77.9958 73.1256 73.8214 73.0481 70.7399 70.5121C69.2474 69.4817 68.3306 67.9085 67.3114 66.4824C66.2774 65.9121 65.1659 67.1462 64.106 67.2706C60.7825 68.6453 56.7839 69.0303 53.4634 67.3146C50.8173 66.0677 49.3016 63.4524 48.1045 60.9347C46.8937 59.9078 45.194 61.0392 43.7954 60.9773C41.0538 61.159 38.3997 60.3347 35.8348 59.4875L35.6082 59.4974ZM42.1062 66.3265C44.1945 67.0381 44.0402 69.7905 43.7402 71.5837C43.2672 73.7181 42.2546 76.5247 39.7868 76.8939C37.8387 76.5153 37.4694 74.1391 37.716 72.5281C37.7393 70.013 39.2076 67.2584 41.6434 66.3514C41.7954 66.322 41.9519 66.3091 42.1062 66.3265ZM72.8135 73.8722C74.9508 73.8748 75.0903 76.4928 75.1776 78.0438C75.3241 80.6615 74.15 84.0173 71.2366 84.5003C69.1378 83.9653 68.9906 81.28 68.9441 79.5078C68.9555 77.2491 69.9978 73.8567 72.8135 73.8722ZM48.7895 76.7838C49.6561 77.5404 49.5555 79.8326 51.1075 79.6066C52.3255 79.2371 53.0865 77.7402 54.3527 77.6894C55.0059 78.8067 54.7272 81.0019 56.5426 81.0221C57.9081 81.055 58.7564 79.6174 59.9524 79.3832C60.8039 79.8111 59.6076 80.8775 59.24 81.2124C58.2072 82.2081 56.7781 82.4407 55.4253 82.5736C54.3246 83.3959 54.1368 85.0786 52.8263 85.7612C51.283 86.9535 49.1793 85.466 49.2232 83.6989C49.052 82.3435 50.2976 80.8525 49.043 79.7131C48.5962 78.9814 48.0386 77.4279 48.7895 76.7838Z" fill="#E4E4E4"/>
<path d="M110.627 121.32C109.556 122.488 107.919 123.319 107.215 124.747C107.275 126.823 109.582 127.628 111.359 127.492C113.156 127.692 115.099 127.051 115.941 125.357C116.508 124.671 116.255 123.521 115.22 123.529C113.58 123.12 112.278 121.961 110.859 121.205L110.65 121.308L110.627 121.32Z" fill="#E4E4E4"/>
<path d="M53.2664 119.173C52.077 120.178 50.6594 120.911 49.2063 121.388C48.4035 122.745 49.0359 124.52 49.5542 125.893C50.4431 128.063 53.3435 128.225 55.2424 127.484C56.7567 126.473 58.3996 124.747 58.1268 122.798C57.5579 121.748 56.1447 121.561 55.4107 120.623C54.7235 120.184 54.1443 118.92 53.2664 119.173Z" fill="#E4E4E4"/>
<path d="M88.2742 72.4945C87.4042 73.2112 88.0458 74.6358 88.023 75.6219C88.4391 78.5602 90.0413 82.1178 93.3873 82.484C95.364 82.665 96.8943 80.4237 96.1044 78.6306C95.608 76.6304 94.1091 75.0716 92.219 74.2871C90.9282 73.7009 89.6907 72.686 88.2742 72.4945Z" fill="#8A8A8A"/>
<path d="M30.9908 58.6644C26.5297 58.8788 21.4191 60.7212 19.5228 65.0701C19.0859 66.5238 21.2285 66.9523 22.2686 66.6043C26.3212 66.056 29.2746 62.943 31.902 60.108C32.6072 59.3621 31.9167 58.4831 30.9908 58.6644Z" fill="#8A8A8A"/>
<path d="M72.4702 74.5403C70.1823 74.891 69.8141 77.6752 69.5743 79.5414C69.4886 81.0256 69.4171 83.3514 71.1814 83.8686C73.0061 84.0854 73.9143 81.9732 74.355 80.5367C74.625 78.6744 74.7863 76.3759 73.4602 74.8648C73.1872 74.6356 72.827 74.5168 72.4702 74.5403Z" fill="black"/>
<path d="M41.5511 67.1704C39.5469 67.3901 38.6335 69.6887 38.2827 71.3996C38.2367 73.0853 37.8172 75.5026 39.6385 76.4428C41.0434 76.3276 41.8078 74.7358 42.5444 73.7021C43.2802 71.8571 43.0461 69.7252 42.8207 67.7954C42.6513 67.2526 42.0462 67.1595 41.5511 67.1704Z" fill="black"/>
<path d="M53.1536 80.3742C51.5957 80.6763 49.6658 81.7674 50.0366 83.6321C49.9439 84.8584 51.4186 85.8375 52.3664 84.8627C53.4696 83.8481 54.5183 82.046 53.7455 80.589C53.5978 80.4259 53.3715 80.3481 53.1536 80.3742Z" fill="#D6D6D6"/>
<path d="M48.1981 160.029C47.0873 160.431 47.3809 162.009 47.3047 162.967C47.9956 164.883 50.3057 165.506 51.9568 166.385C52.7974 167.044 53.7098 166.576 54.2698 165.818C55.3051 164.636 56.7625 163.638 57.3521 162.159C57.0797 160.952 55.2934 161.512 54.4353 161.265C52.3287 161.171 50.2792 160.478 48.1981 160.029Z" fill="#E4E4E4"/>
<path d="M124.743 160.267C124.046 163.072 122.546 165.623 120.59 167.763C119.971 168.237 119.946 169.178 120.823 169.365C122.403 170.289 124.28 171.135 126.107 170.347C127.884 169.7 130.069 169.256 131.236 167.658C132.076 165.422 132.521 162.931 132.415 160.583C130.022 160.262 127.545 160.513 125.124 160.138L124.903 160.212L124.743 160.267Z" fill="#E4E4E4"/>
</svg>
