<?xml version="1.0" encoding="UTF-8" standalone="no"?>
<!-- Created with Inkscape (http://www.inkscape.org/) -->

<svg
   width="207.79675mm"
   height="259.37598mm"
   viewBox="0 0 207.79676 259.37598"
   version="1.1"
   id="svg1"
   xml:space="preserve"
   sodipodi:docname="ovce2filled.svg"
   xmlns:inkscape="http://www.inkscape.org/namespaces/inkscape"
   xmlns:sodipodi="http://sodipodi.sourceforge.net/DTD/sodipodi-0.dtd"
   xmlns="http://www.w3.org/2000/svg"
   xmlns:svg="http://www.w3.org/2000/svg"><sodipodi:namedview
     id="namedview1"
     pagecolor="#ffffff"
     bordercolor="#000000"
     borderopacity="0.25"
     inkscape:showpageshadow="2"
     inkscape:pageopacity="0.0"
     inkscape:pagecheckerboard="0"
     inkscape:deskcolor="#d1d1d1"
     inkscape:document-units="mm" /><defs
     id="defs1" /><g
     inkscape:label="Vrstva 1"
     inkscape:groupmode="layer"
     id="layer1"
     transform="translate(916.98826,105.4014)"><path
       style="fill:#f1f1f1;fill-opacity:1;stroke:none;stroke-width:2.55633;stroke-opacity:1"
       d="m -3202.2591,-130.15613 c -16.0902,0.51646 -31.5028,8.87391 -40.2904,22.43874 -4.822,6.44474 -8.9587,14.094939 -10.4933,21.768181 -5.4261,-10.31992 -19.2751,-10.040663 -29.0303,-7.380717 -17.7757,7.208366 -28.9028,25.679271 -32.4103,43.937061 -0.7043,5.944192 0.3628,11.901101 0.2831,17.85639 -7.7018,-0.884358 -8.9774,8.889369 -12.5534,13.695186 -4.3873,7.9557477 -11.2638,13.9877208 -18.7811,18.78864887 -4.362,4.77079133 1.6872,10.53752413 6.8969,9.98069613 31.1089,4.099338 63.134,4.709783 92.9437,14.282633 20.1879,7.038524 37.5334,26.970359 35.4353,49.004073 0.9157,22.032767 -7.4486,44.217978 -23.464,59.512988 -11.9743,13.13367 -28.8757,21.46127 -46.7437,21.89628 -12.3436,0.72277 -25.0065,0.91965 -36.8683,-3.12571 -6.8756,0.0373 -9.2659,8.24779 -12.8271,13.07054 -11.4057,19.67085 -7.6387,44.09794 1.5245,63.83714 4.254,6.06248 -2.3459,12.40395 -3.9472,18.17655 -7.265,14.36034 -10.6156,32.094 -2.7651,46.9422 8.2981,16.95924 23.2497,30.41084 41.1158,36.63372 12.953,5.50871 27.2552,5.07285 40.9874,6.4258 -0.5993,9.95583 -0.1063,21.04845 5.4407,29.65686 8.7425,11.17063 23.8608,13.50948 37.1923,12.59308 5.9322,0.55165 11.194,-2.27607 15.9617,-5.43882 8.503,14.57842 26.6985,20.92945 42.8991,20.37198 11.3708,0.64356 23.565,-2.71436 30.4891,-12.36022 6.4944,-7.56903 11.4645,-16.24173 16.0975,-25.0227 6.7716,18.2807 23.9226,34.50489 44.4315,33.50102 19.8007,-0.91808 36.8121,-15.82495 44.8222,-33.32363 1.7074,-2.06305 2.7818,-9.6138 4.4216,-7.77513 8.1107,14.47814 28.3371,20.46991 42.9313,12.27312 2.7956,-0.45398 5.3613,-5.03477 7.6524,-1.45776 13.4838,12.94722 35.7748,13.65809 51.3687,4.18008 14.1863,-7.73501 27.4259,-19.55427 31.1609,-35.93169 0.09,-6.30297 3.6063,-1.57959 6.0706,0.62013 9.7244,8.91238 22.7316,19.65526 36.8512,14.80181 14.5956,-4.9988 23.3665,-19.75313 24.6395,-34.6058 1.2015,-5.99733 -0.081,-12.63345 1.3519,-18.25887 10.0777,-10.68249 19.3308,-23.14307 23.192,-37.46843 0.5895,-7.84182 -8.7289,-8.73792 -14.4557,-8.2073 -10.9452,-0.33539 -20.4131,-7.07915 -31.215,-8.59191 -23.9183,-3.78794 -46.7804,-12.11322 -68.5785,-22.76717 -10.8507,-0.12677 -21.8745,2.12804 -32.8399,0.76233 -15.8446,-0.33987 -30.8819,-6.85571 -42.8865,-17.03161 -16.6717,-13.53353 -31.2598,-33.57781 -29.8718,-55.76202 -0.9797,-18.6584 6.3113,-38.053 20.5529,-50.376115 12.2423,-10.01262 28.1036,-15.201287 43.9126,-13.985904 17.3409,-0.225837 36.4131,1.445828 49.808,13.768879 9.0469,6.692005 15.8281,19.19293 28.4907,18.86379 24.8589,1.54706 49.9584,2.76222 74.7704,1.29938 5.7204,-2.33417 5.5928,-10.27604 7.0724,-15.622071 2.8982,-16.13368 1.0237,-33.173374 -6.9689,-47.641021 -7.3975,-16.361188 -20.9655,-29.338116 -35.8002,-39.0239955 -2.4561,-1.9103823 -6.3908,-0.9192715 -8.3073,-0.1773999 -1.2606,-17.3037265 -5.5514,-35.2727896 -17.9318,-48.1580066 -4.9405,-4.954864 -9.0406,-11.971982 -16.0259,-14.092135 -6.9486,1.094434 -11.2142,8.124251 -16.7152,12.007653 -24.1351,22.319871 -49.2583,44.9065975 -79.7172,57.957239 -27.2185,12.777295 -57.2085,20.241637 -87.4004,18.886789 -28.7437,-0.0028 -59.0248,-5.064497 -82.1863,-23.298993 -29.0693,-20.5023355 -48.3394,-53.798306 -54.2768,-88.185502 -3.4336,-15.385644 -4.1403,-30.965907 -5.6332,-46.660247 -0.7245,-4.88206 -4.7573,-8.43762 -9.7831,-8.06009 z m -44.9844,107.345924 c -1.7281,2.615663 -3.7878,5.636138 -0.8625,1.079463 0.2102,-0.303609 1.5875,-2.041567 0.8625,-1.079463 z m 211.8913,155.495146 c -5.0933,7.78744 -14.027,13.09811 -22.9008,15.31249 -10.0196,0.59164 -20.9677,-0.31308 -28.8416,-7.26938 10.8888,6.20942 24.3472,6.06329 35.4334,0.42084 5.8161,-2.2797 10.7968,-6.17858 16.4335,-8.76212 z m -205.2579,68.82315 c 0.143,12.11975 -2.3103,25.87347 6.1785,35.98076 7.9382,11.5303 22.8116,12.47981 34.9617,15.69181 2.9857,6.59798 -0.77,-1.78762 -5.1683,-0.49258 -9.3145,-1.33456 -20.3359,1.60439 -27.6722,-5.88794 -7.7424,-6.91459 -14.4402,-16.7596 -12.3836,-27.61116 0.2395,-5.9604 0.9706,-13.40182 4.0839,-17.68089 z m 43.0425,57.46051 c 3.127,12.82 9.2711,25.87268 21.425,32.3574 2.5625,1.85211 7.3516,4.18958 9.1792,4.63111 -10.2728,1.136 -20.5565,-5.08516 -24.5766,-14.21604 -4.1362,-7.36168 -5.4772,-15.79828 -6.3899,-24.07272 l 0.2593,0.93077 z m 322.1699,9.36791 c -4.8829,14.41925 -22.8701,19.53169 -36.3044,15.38634 -4.8363,-1.68194 -10.6725,-0.52723 -12.411,4.86675 -4.5633,9.89772 -13.7654,19.0363 -25.4435,18.33594 -4.9323,0.12316 -10.0701,0.01 -14.7211,-1.82132 12.1883,2.20696 25.6386,-0.96501 33.7916,-10.77951 4.0655,-3.25474 5.9742,-9.14993 10.2228,-11.61175 10.844,-0.78579 22.9153,1.09728 32.5667,-5.68962 4.4623,-2.51916 8.6891,-5.50866 12.3593,-9.09634 z m -187.4676,28.01313 c -8.1228,9.26265 -21.7069,13.4643 -33.5274,9.7076 12.1201,1.20381 24.8748,-0.45277 33.5274,-9.7076 z"
       id="path15"
       transform="scale(0.26458333)"
       inkscape:export-filename="ovce2filled.svg"
       inkscape:export-xdpi="96"
       inkscape:export-ydpi="96" /><g
       id="g2"
       style="fill:#dcdcdc;fill-opacity:1"><path
         style="fill:#dcdcdc;fill-opacity:1;stroke:none;stroke-width:2.55633;stroke-opacity:1"
         d="m -2942.7489,78.766645 c -19.6873,-0.05052 -42.2416,6.639044 -51.5518,25.610765 -7.3788,11.81096 -10.9418,25.70292 -9.5377,39.60978 0.3868,19.80423 12.8239,37.45057 28.3396,48.80784 16.331,10.26884 34.5901,18.54607 53.9409,20.62864 6.7983,0.20003 6.6913,-8.57483 1.5897,-11.20577 -5.562,-5.66411 -11.152,-11.52286 -14.7961,-18.66055 14.8398,18.48623 37.2252,28.20787 59.3877,34.79578 13.265,3.92613 26.6829,7.9168 40.1923,10.57173 7.95,-0.5449 4.6879,-10.79164 5.7056,-16.15319 0.076,-14.82845 1.5015,-30.18896 9.3335,-43.16805 7.9893,-16.84239 22.3078,-31.34578 40.9044,-35.63729 6.4132,-2.67694 14.6231,-0.68224 20.0549,-5.31993 3.5315,-7.18677 -6.0603,-9.63854 -10.8795,-11.75895 -16.0262,-5.86023 -33.5524,-3.15381 -50.2451,-4.15182 -16.13,-0.77934 -32.2859,1.13208 -48.0235,-3.05528 -13.417,-6.02466 -21.9965,-19.430055 -35.6751,-25.210681 -12.0546,-5.496019 -25.744,-5.551738 -38.7398,-5.703024 z m 60.7121,49.524965 c -5.5998,5.57574 -13.4742,1.7753 -20.0813,1.9419 -7.1394,2.61414 -2.7263,11.30914 -4.7406,16.72975 -1.1455,9.71817 -4.8499,21.26241 -15.1785,24.51621 -4.9787,2.16348 -13.0964,0.24684 -15.0936,6.40693 -2.8239,-5.0629 0.7784,-5.91167 5.1482,-5.56714 7.7979,-0.16533 16.2956,-3.06089 19.2397,-11.05126 4.9909,-10.15074 4.4546,-21.90326 2.5533,-32.68954 8.7411,-0.31924 19.9203,3.36695 28.1528,-0.28685 z"
         id="path16"
         transform="scale(0.26458333)" /><path
         style="fill:#dcdcdc;fill-opacity:1;stroke:none;stroke-width:2.55633;stroke-opacity:1"
         d="m -3410.4742,-9.8378101 c -5.9607,5.1297355 1.7157,10.02130913 4.6689,14.287754 9.2744,17.0773431 6.3849,38.4277421 -1.4041,55.5393731 -6.4526,12.371595 -17.5722,23.163667 -31.0552,27.275248 -6.6503,-1.463156 -11.0555,7.658204 -4.767,11.26262 21.0848,12.381055 45.044,19.043165 68.6212,24.959695 11.3787,2.61555 22.884,4.8042 34.5201,5.87287 -6.2972,1.61382 -3.699,9.63543 1.4342,11.03239 12.4029,7.58462 25.4463,16.60576 40.6761,15.81636 26.5588,0.49736 52.8134,-12.79189 69.2402,-33.42742 9.9077,-13.92084 15.8468,-30.864872 14.5067,-48.08317 -0.1121,-11.525076 -1.8399,-24.382018 -11.5835,-31.972412 -14.9457,-12.591251 -34.284,-19.075211 -53.354,-22.123278 -13.4571,-1.736833 -27.1263,1.418806 -40.4351,0.58706 -20.28,-5.398006 -39.5151,-13.1114629 -58.29,-22.583636 -10.24,-4.4695997 -21.3657,-10.129213 -32.7785,-8.4434541 z m 89.365,57.7190531 c -5.47,8.688619 -5.9384,20.860407 0.7888,29.018993 -5.4188,8.96223 -7.231,20.503687 -1.7674,29.910004 3.1272,6.2099 7.0366,12.23492 12.4658,16.67664 -4.6906,3.4632 -3.1015,-5.38248 -7.5624,-6.48128 -9.5816,-9.19622 -18.2977,-24.092677 -12.4756,-37.446344 6.8689,-8.574164 -5.1008,-20.194712 3.3045,-28.165992 0.4831,-0.63001 6.9475,-5.978414 5.2463,-3.512021 z"
         id="path17"
         transform="scale(0.26458333)" /><path
         style="fill:#dcdcdc;fill-opacity:1;stroke:none;stroke-width:2.55633;stroke-opacity:1"
         d="m -2915.2359,-386.16188 c -23.8738,0.18313 -46.0216,15.03516 -57.4756,35.58445 -25.0286,-17.68645 -62.3439,-16.22597 -85.2773,4.30086 -7.7261,6.67537 -11.073,20.24814 -2.4168,27.50671 6.2737,6.50541 15.7658,1.22404 23.5002,2.34641 15.4325,-0.84098 30.9438,3.75235 43.0444,13.44607 3.3982,2.56793 6.5216,5.47792 9.4887,8.52812 -18.2649,-9.37595 -38.8052,-15.12091 -59.4729,-13.32287 -8.1703,0.88521 -17.2532,-0.12482 -24.6665,3.87759 -5.0056,4.95543 1.6908,10.26131 5.6106,13.07053 9.9936,7.604 19.3354,17.31912 32.2612,19.5385 12.5461,4.42294 25.9187,7.35313 37.53,13.94364 1.6931,2.47429 3.7591,6.78536 1.9231,9.52643 -8.5529,5.07652 -19.3321,4.05648 -28.5774,7.54112 -12.1066,3.57713 -23.3595,9.88942 -35.0995,14.06696 -1.3983,-6.48561 -4.844,-14.16823 -6.0704,-21.34016 -3.557,-16.85451 -8.9065,-33.45816 -16.0878,-49.03917 -4.8505,-5.87191 -11.4174,1.79989 -16.3515,4.18575 -25.3793,16.47327 -46.6218,38.7432 -63.6635,63.61759 -17.9927,29.86719 -29.5154,64.2282 -29.2674,99.34609 -0.2124,36.966156 5.0782,76.124167 27.2845,106.838582 11.0851,17.4099051 27.9772,30.3378739 46.3757,39.250779 23.0639,9.585237 48.2385,13.801808 73.1757,12.536723 29.5263,0.988724 58.6186,-7.816012 84.293,-22.0065729 26.4036,-14.9164323 50.1398,-34.6118881 70.2796,-57.2356211 12.3348,-15.720877 22.4255,-33.07448 33.8029,-49.419291 4.3125,-5.439709 10.3942,1.041703 14.7095,3.184918 20.5903,13.75112 41.8781,28.36461 67.0165,31.847213 20.8222,3.908141 43.2794,2.906556 62.7745,-5.84895 9.22,-4.191633 9.5186,-15.619094 6.8844,-24.021771 -7.5414,-29.185939 -28.5288,-52.305239 -48.4624,-73.909059 -10.9755,-10.96964 -21.8224,-22.79 -35.062,-30.87753 -3.3758,-0.68419 3.2077,-4.003 3.8255,-6.10345 10.8992,-13.56161 18.182,-31.21041 14.8577,-48.82526 -0.8649,-11.8359 -6.8911,-23.56646 -17.8998,-28.89211 -3.1043,-2.17214 -8.2615,-1.96749 -7.3437,-6.97528 -3.1795,-21.23415 -17.7801,-43.23833 -40.0922,-47.13551 -5.7932,-0.68581 -11.6368,-0.76578 -17.4544,-1.1323 -8.4275,-28.4227 -38.7263,-48.44493 -67.8966,-48.00013 z m -5.8634,154.51382 c 17.8302,8.36536 31.0985,24.22916 38.9417,42.02535 -11.2926,-16.32411 -23.9823,-32.48113 -41.0685,-43.07651 0.7089,0.35039 1.4179,0.70077 2.1268,1.05116 z m -135.6081,9.74344 c 1.5077,7.69689 11.6334,9.95819 12.8289,18.01869 5.1487,10.28765 14.1801,18.82102 17.8405,29.5779 -4.0874,22.43884 -13.0871,43.16028 -21.3804,64.24614 -9.5559,23.092405 -22.6759,45.096716 -40.199,63.026096 -10.8473,8.412842 -25.2595,16.099668 -39.3248,12.404359 -11.5759,-4.106373 -14.053,-18.133863 -14.0764,-28.703834 -1.161,-21.040951 8.9397,-40.252811 15.2812,-59.665231 8.9684,-26.37073 21.8106,-51.5294 29.1349,-78.62418 1.3671,-4.91999 1.8602,-10.57204 3.7444,-15.06946 7.3031,0.44516 14.9421,3.47044 21.8289,-0.67938 4.5523,-2.41914 10.2582,-2.11249 14.3614,-5.26332 z m 228.687,63.69384 c 23.2694,-0.33356 48.8345,0.92025 67.3805,16.86202 13.8556,11.6901 24.2891,28.08438 28.2386,45.825943 2.5072,6.305687 -4.8616,9.854341 -10.0303,9.662303 -14.2094,-0.105435 -27.6515,-6.047694 -41.111,-10.038901 -27.2895,-10.032205 -58.2958,-19.170555 -76.854,-43.524605 -1.6817,-2.76545 -6.3529,-8.12527 -0.9606,-9.87366 10.1507,-5.53978 21.593,-9.77074 33.3368,-8.9131 z"
         id="path18"
         transform="scale(0.26458333)" /><path
         style="fill:#dcdcdc;fill-opacity:1;stroke:none;stroke-width:2.55633;stroke-opacity:1"
         d="m -3201.6401,381.30243 c -9.5722,5.13453 -20.3138,7.48038 -31.1495,6.37298 -6.5909,-1.69978 -10.8676,3.84855 -14.2074,8.5562 -22.7587,31.54731 -50.4078,58.98317 -79.6812,84.37174 -4.9241,3.72151 -2.5431,11.02037 3.044,12.4723 12.4151,8.31844 15.7606,24.02076 20.9044,37.0104 2.896,5.87514 2.7757,17.4576 11.9719,16.01928 11.5608,-0.0963 23.9332,-0.65953 34.0148,6.05194 6.4807,2.68262 11.3864,8.19412 17.8106,10.76815 7.3361,-0.4048 8.6745,-9.6534 12.4176,-14.41608 18.8248,-31.57717 37.022,-63.52757 53.4651,-96.42126 7.3226,-14.63488 15.7102,-28.76873 23.3427,-43.1877 2.0641,-6.06036 -4.773,-9.55733 -9.9039,-8.68286 -13.7991,-1.89554 -27.0495,-7.85512 -36.6997,-18.06587 -1.7861,-0.78964 -3.3719,-1.70702 -5.3294,-0.84922 z"
         id="path24"
         transform="scale(0.26458333)" /><path
         style="fill:#dcdcdc;fill-opacity:1;stroke:none;stroke-width:2.55633;stroke-opacity:1"
         d="m -2965.7044,367.31662 c -6.5497,6.36998 -19.0525,4.65155 -22.5743,14.25378 -13.1251,35.53836 -17.4321,74.03998 -15.4956,111.75058 1.5434,16.06572 1.4682,32.80316 6.9826,48.11526 5.219,6.68573 14.6222,1.6183 21.5099,1.50029 14.2612,-2.49487 29.0304,-0.79631 42.4141,5.17839 7.4422,0.21678 14.0781,-5.10652 20.9728,-7.19421 11.213,-5.56809 23.6899,-6.69043 35.8763,-8.37304 7.3787,-3.19105 1.4711,-11.15483 -0.2019,-16.18625 -11.381,-27.55842 -20.7201,-56.00169 -25.6072,-85.42098 -1.861,-17.68928 -1.8188,-35.61943 0.606,-53.22741 -0.6291,-6.662 -8.2593,-5.35523 -12.6082,-3.50825 -11.1194,3.4864 -23.4253,3.23153 -34.6711,0.50199 -6.3924,-1.08899 -10.5216,-10.04758 -17.2034,-7.39015 z"
         id="path25"
         transform="scale(0.26458333)" /></g><g
       id="g3"
       style="fill:#f1f1f1;fill-opacity:1"><path
         style="fill:#f1f1f1;fill-opacity:1;stroke:none;stroke-width:2.55633;stroke-opacity:1"
         d="m -2760.6692,128.89551 c -26.2157,-0.3388 -50.928,17.26324 -60.6026,41.3856 -8.2109,16.21505 -11.6537,35.53389 -6.7316,53.22948 5.3118,10.62351 15.0075,20.19174 26.8129,22.93476 17.1785,1.5911 30.423,-12.02676 41.2479,-23.45939 11.9919,-13.5794 19.6829,-30.49418 25.6466,-47.43021 3.2665,-14.92969 1.1956,-33.67445 -11.8628,-43.44262 -4.135,-3.1659 -9.5127,-3.44968 -14.5104,-3.21762 z"
         id="path22"
         transform="scale(0.26458333)" /><path
         style="fill:#f1f1f1;fill-opacity:1;stroke:none;stroke-width:2.55633;stroke-opacity:1"
         d="m -3423.9524,-8.0846305 c -14.7796,4.7450637 -24.2192,18.1108555 -29.7267,31.9287715 -7.0938,16.561068 -7.4982,35.252019 -5.618,52.890024 2.9157,11.938337 18.3849,15.278211 28.4,10.283182 18.5402,-7.277317 27.6925,-27.217588 31.4213,-45.569462 1.2318,-10.508218 1.5466,-21.497246 -0.8284,-31.8346477 -3.6544,-9.41665348 -13.0065,-15.8014624 -22.4517,-18.0734144 l -0.9219,0.2893613 z"
         id="path23"
         transform="scale(0.26458333)" /><path
         style="fill:#f1f1f1;fill-opacity:1;stroke:none;stroke-width:2.55633;stroke-opacity:1"
         d="m -2883.9088,532.75337 c -16.5892,0.44018 -31.1737,9.55674 -46.5735,14.32739 -13.7633,-4.7825 -28.3062,-8.32142 -42.9817,-6.38148 -6.5423,1.21548 -16.2465,0.31018 -19.3892,7.5836 -1.0796,8.12614 8.6719,11.3019 14.4633,14.33871 14.0655,6.69542 29.8334,8.83357 45.2417,6.92769 16.0014,-0.84233 31.7625,-4.91301 45.7066,-12.927 6.3713,-4.00702 14.8519,-6.87243 18.2055,-14.09338 1.537,-8.21907 -8.5906,-10.28876 -14.6727,-9.77553 z"
         id="path26"
         transform="scale(0.26458333)" /><path
         style="fill:#f1f1f1;fill-opacity:1;stroke:none;stroke-width:2.55633;stroke-opacity:1"
         d="m -3329.9638,487.32356 c -7.7943,2.2333 -13.4335,10.53316 -14.5576,18.33573 -0.2505,16.82397 11.7562,30.66963 22.6487,42.22295 16.0406,15.56374 36.6959,27.96143 59.2563,30.21791 8.0649,-0.3575 18.4384,-0.24264 23.7745,-7.30901 2.8003,-7.76208 -6.4501,-12.63726 -11.5664,-16.46645 -8.8259,-5.90425 -18.931,-10.72233 -29.8399,-9.53276 -5.1838,-0.0466 -10.3844,0.0999 -15.5522,-0.38529 -7.5898,-18.41491 -10.744,-40.01837 -26.6864,-53.65598 -2.0696,-1.82028 -4.5531,-3.69755 -7.477,-3.4271 z"
         id="path27"
         transform="scale(0.26458333)" /><g
         id="g1"
         style="fill:#f1f1f1;fill-opacity:1"><path
           style="fill:#f1f1f1;fill-opacity:1;stroke:none;stroke-width:2.55633;stroke-opacity:1"
           d="m -2830.0019,-161.42274 c -11.0514,-0.47628 -21.9888,3.65354 -31.1307,9.53963 -5.3219,5.72387 1.821,12.37338 5.1444,17.05246 13.917,16.07608 34.3794,23.90122 52.9166,33.24965 17.2957,7.44507 34.6755,15.974886 53.4707,18.700327 6.84,0.288208 17.6268,2.152369 20.187,-6.414486 1.8401,-11.935261 -5.2228,-23.204071 -11.2683,-32.929201 -13.7001,-18.99119 -35.378,-31.3139 -57.7172,-37.27725 -10.3105,-2.60931 -21.0785,-1.72754 -31.6025,-1.92113 z"
           id="path19"
           transform="scale(0.26458333)" /><path
           style="fill:#f1f1f1;fill-opacity:1;stroke:none;stroke-width:2.55633;stroke-opacity:1"
           d="m -3063.4635,-222.55757 c -7.0564,2.20588 -13.6534,9.36401 -21.2401,5.7936 -4.453,-1.93431 -11.248,-1.43112 -11.7193,4.56695 -8.5316,41.15867 -27.6566,78.79344 -40.2967,118.670831 -1.4417,6.679598 -3.7863,13.641211 -2.5722,20.441811 5.4256,6.153215 10.5723,-2.157313 15.1388,-5.201035 12.3556,-8.590435 28.4979,-7.602397 42.7425,-6.121977 6.5224,0.09958 10.4674,8.655539 17.0921,6.065356 7.0745,-7.620813 11.1389,-17.701021 16.2617,-26.703436 9.7489,-20.88184 18.7658,-42.68424 21.8459,-65.66403 1.4735,-12.05954 -8.8696,-20.63686 -13.0837,-31.00996 -3.112,-8.16612 -9.2656,-14.49161 -16.8083,-18.75013 -1.9846,-1.59652 -4.8067,-3.13964 -7.3607,-2.08798 z"
           id="path20"
           transform="scale(0.26458333)" /><path
           style="fill:#f1f1f1;fill-opacity:1;stroke:none;stroke-width:2.55633;stroke-opacity:1"
           d="m -3179.8358,-320.31668 c -24.3023,-0.47988 -48.499,4.31142 -70.8287,13.89578 -11.8633,5.33534 -25.5424,9.55831 -33.8072,20.17893 -4.6805,7.94518 3.9003,15.26217 10.3134,18.649 11.2711,6.31026 22.7975,12.46157 34.9145,16.943 3.1052,0.53338 7.0963,-2.10599 8.9395,-2.68921 -5.0849,4.14333 0.024,10.71366 5.0953,11.65893 18.98,6.56388 39.4667,10.79589 59.4987,7.18067 8.6282,-4.46821 10.4523,-15.46777 16.9013,-22.19025 15.1337,-19.64103 37.1129,-32.13032 59.0044,-42.81893 5.6559,-1.72431 5.2573,-10.3693 -0.787,-11.1343 -24.093,-4.13567 -48.0728,-10.4811 -72.7234,-9.58231 -5.5065,-0.0832 -11.0137,-0.14103 -16.5208,-0.0913 z"
           id="path21"
           transform="scale(0.26458333)" /><path
           style="fill:#f1f1f1;fill-opacity:1;stroke:none;stroke-width:0.639081;stroke-opacity:1"
           d="m -3081.3043,-65.479091 c -3.5439,0.429166 -5.8678,3.530963 -8.5416,5.571509 -5.7236,4.784926 -11.8834,9.217873 -18.7549,12.198071 -4.6663,1.825937 -9.9674,2.407147 -14.8393,1.143153 -2.0431,-0.428581 -2.0432,-2.801339 -3.1162,-4.173002 -1.6841,-3.058989 -6.2885,-4.036638 -8.7702,-1.381525 -2.8531,2.80816 -1.873,7.405881 0.3704,10.262069 2.7193,3.938819 7.0328,6.646486 11.7717,7.343916 6.2219,1.048579 12.6918,-0.135504 18.5164,-2.413688 8.099,-3.609837 15.6482,-8.461185 22.463,-14.122627 2.5527,-2.447583 5.8133,-4.884806 6.4382,-8.586994 0.4509,-3.155954 -2.3589,-6.120092 -5.5375,-5.840882 z"
           id="path28"
           transform="scale(0.26458333)" /></g></g><path
       id="rect2"
       style="fill:#000000;fill-opacity:1;stroke-width:0.577708"
       d="m -764.29745,-105.4014 -4.37234,0.0258 c -3.60072,0.0214 -4.74588,0.12714 -6.48901,0.59945 -3.87109,1.04887 -7.93064,3.34554 -10.71408,6.061135 -1.01782,0.99301 -1.30341,1.13766 -1.98437,1.00614 -2.87575,-0.55543 -7.60947,-0.75404 -11.1094,-0.46612 -8.1814,0.67303 -13.30997,2.68538 -15.10451,5.92677 -0.73391,1.3256 -0.77424,1.56152 -0.76997,4.50773 0.003,2.37379 -0.0764,3.10886 -0.33849,3.10886 -0.18882,0 -1.02882,-0.34607 -1.86655,-0.76895 -3.31022,-1.671 -9.55251,-2.93522 -14.49265,-2.93522 -4.32811,0 -14.94254,0.73323 -17.57102,1.21388 -7.12786,1.30341 -10.01964,2.1235 -16.0073,4.53874 -4.75157,1.91664 -8.04731,3.54544 -8.7545,4.32687 -0.30326,0.33511 -0.51408,1.08339 -0.58601,2.07791 -0.20904,2.88991 1.22334,4.97886 6.16551,8.99273 4.26983,3.4678 8.42671,5.7681 13.36146,7.39335 3.73708,1.23079 5.80011,1.59545 10.12032,1.79007 2.14642,0.0967 3.9026,0.26168 3.9026,0.36638 0,0.10469 -0.28371,0.83097 -0.62994,1.61386 -1.69104,3.82374 -3.27332,10.74994 -3.55637,15.56597 l -0.17932,3.05253 -1.5875,0.0532 c -3.69585,0.12409 -6.47887,1.09637 -9.46298,3.30677 -2.29245,1.69807 -4.00986,3.66785 -4.74545,5.44256 -0.56372,1.36009 -0.60571,1.39637 -1.38855,1.19476 -0.44401,-0.11435 -2.355,-0.20194 -4.24677,-0.19482 -3.26792,0.0123 -3.55182,0.0572 -5.68854,0.90331 -3.9845,1.57782 -6.61425,4.93307 -7.59902,9.69553 -0.40796,1.97292 -0.40928,2.32436 -0.0145,4.74028 l 0.42633,2.6091396 -0.68729,1.73478 c -1.12826,2.84672 -4.20568,5.50511 -7.98504,6.89777 l -1.20613,0.44441995 -3.30729,-1.15858995 c -3.80348,-1.3326 -4.95221,-1.62346 -7.60057,-1.9234 -5.94776,-0.67361 -10.30547,1.60298 -13.40074,7.00009 -1.72792,3.01294 -2.47414,5.38236 -2.97397,9.4449104 -0.46513,3.78042 -0.27828,6.80914 0.60564,9.82885 0.47951,1.63817 1.15738,2.39574 3.74603,4.18528 4.53743,3.13672 16.63463,7.1977 23.982,8.05067 1.44032,0.16722 1.7106,0.30713 3.0427,1.57355 0.80409,0.76443 2.3077,1.97065 3.34089,2.68045 l 1.87843,1.29036 -1.41903,1.5813 c -4.04613,4.50908 -4.40423,12.49757 -0.85886,19.1487 l 0.76119,1.42782 -0.88057,0.97462 c -0.531,0.58776 -1.2263,1.91123 -1.75183,3.33468 -0.73155,1.98146 -0.89124,2.82693 -0.99683,5.27048 -0.11237,2.60022 -0.052,3.15012 0.56585,5.15938 1.1897,3.86893 2.8358,6.10485 6.65076,9.03407 3.33456,2.56035 8.72091,4.7431 12.71343,5.15214 1.45094,0.14866 1.69732,0.24492 1.54203,0.60203 -0.43066,0.99037 -0.42,3.69633 0.0207,5.21209 0.37971,1.30613 0.73737,1.82939 2.29082,3.355345 l 1.84071,1.80815 -1.2578,1.77147 c -3.31536,4.67082 -8.55099,10.48794 -18.83555,20.92637 -2.52405,2.56182 -4.88707,5.16367 -5.25084,5.78208 -1.40733,2.39244 -0.99474,5.5003 1.23714,9.31933 2.52678,4.32364 7.64673,8.9072 12.55323,11.23859 2.87322,1.36524 3.60962,1.60853 6.36861,2.10168 2.67762,0.4786 2.37625,0.46667 4.21938,0.16485 2.6174,-0.42861 4.2199,-1.38308 5.48545,-3.26699 0.60288,-0.89745 1.83214,-2.58392 2.73162,-3.74809 3.17453,-4.10868 8.49417,-13.39563 14.1304,-24.66929 1.76338,-3.52714 3.93233,-7.63479 4.81986,-9.12813 3.24834,-5.46553 3.61794,-5.94716 5.55935,-7.2378 2.24575,-1.49297 4.03,-3.5142 5.27513,-5.976375 l 0.9462,-1.8712 0.3669,0.88625 c 0.41404,0.99959 2.35094,3.463925 3.51193,4.468455 0.42283,0.36585 1.48021,1.05255 2.34973,1.52549 1.46765,0.79827 1.7605,0.85989 4.08605,0.85989 3.93175,0 5.8213,-0.5471 8.27392,-2.3952 2.79295,-2.10456 4.82299,-4.660885 5.86114,-7.380425 l 0.44907,-1.17667 0.53588,1.0511 c 0.60313,1.18224 2.84023,3.3907 3.71554,3.66851 0.31634,0.10041 0.57516,0.30122 0.57516,0.44597 0,0.328155 -0.60444,2.325605 -1.5906,5.257555 -0.89958,2.67451 -1.69864,6.5572 -2.28565,11.10423 -0.3269,2.5322 -0.41868,5.33535 -0.38758,11.86594 0.0424,8.91039 0.0562,9.05566 1.45263,15.28072 0.49311,2.19821 0.71408,2.53539 2.60087,3.9703 4.40895,3.35303 8.35212,4.48269 14.8947,4.26744 5.47499,-0.18013 8.34349,-0.84453 12.45764,-2.88406 3.00108,-1.48775 5.48229,-3.37686 6.32674,-4.81779 1.35016,-2.30386 1.04032,-3.82858 -2.50424,-12.32845 -3.04138,-7.29328 -5.35413,-17.31491 -5.73556,-24.8512 -0.13386,-2.64496 -0.071,-3.93312 0.29094,-5.94279 l 0.46198,-2.566245 1.36271,-1.00769 c 1.30606,-0.96585 3.97068,-3.56837 4.77594,-4.66483 0.37649,-0.51263 0.39832,-0.5088 1.15548,0.21446 2.53727,2.42366 8.67225,2.65126 12.9713,0.4811 1.94847,-0.98358 2.96501,-2.03038 4.13567,-4.25813 1.73771,-3.30688 2.12518,-6.37214 1.18856,-9.4046 l -0.55139,-1.78438 1.57716,-1.61696 c 2.76361,-2.83357 3.91789,-5.64831 3.70107,-9.02684 l -0.12196,-1.89601 1.19631,-0.6351 c 1.54033,-0.81714 5.22537,-4.30629 6.92723,-6.55929 1.49227,-1.97553 4.41393,-7.55099 5.21777,-9.95753 0.29164,-0.87313 0.67266,-2.36543 0.84697,-3.31608 0.41107,-2.24195 -0.0727,-4.46724 -1.7017,-7.82433 -1.63333,-3.36616 -3.6236,-5.35389 -7.09983,-7.09155 -2.29962,-1.14952 -2.58062,-1.36566 -2.45101,-1.88206 1.07682,-4.2904 0.74292,-10.15839 -0.81959,-14.41411 -0.78338,-2.13366 -3.43113,-5.7467904 -6.01927,-8.2134504 -1.73264,-1.65131 -5.38585,-4.14868 -6.82697,-4.66690005 l -1.26091,-0.45372 V -3.0180454 c 0,-3.73243 -0.56532,-6.39885 -1.87844,-8.8625096 -0.91565,-1.71795 -3.46418,-4.49249 -4.72581,-5.1449 -0.44232,-0.22873 -0.80408,-0.46208 -0.80408,-0.51832 0,-0.34017 2.24806,-3.91964 2.52956,-4.02766 0.18822,-0.0722 1.03583,0.23088 1.88309,0.67386 7.50588,3.92435 15.53721,6.43993 23.01772,7.20938 3.55233,0.3654 10.80608,0.12033 13.31185,-0.44959 1.68937,-0.38425 1.94524,-0.53801 3.26853,-1.96732 2.28782,-2.4711 2.50727,-4.28753 1.10174,-9.12761 -0.85066,-2.92931 -4.16423,-9.7563 -5.85184,-12.05662 -1.91567,-2.61119 -5.77094,-6.95749 -7.59333,-8.56072 -2.78793,-2.45266 -7.86849,-6.47656 -8.93331,-7.07502 -0.55762,-0.31341 -1.08075,-0.74323 -1.1622,-0.9555 -0.0815,-0.21226 0.37229,-1.17567 1.00821,-2.14095 1.88735,-2.86486 2.50871,-4.32903 3.11557,-7.34426 0.50267,-2.49754 0.53796,-3.09781 0.2806,-4.7532 -0.59295,-3.81398 -2.21829,-6.62294 -4.99453,-8.63151 -1.10275,-0.79783 -1.35142,-1.16037 -1.88567,-2.7466 -2.0833,-6.18561 -7.98614,-11.39932 -13.77487,-12.16722 l -1.33428,-0.17725 -0.40308,-1.48828 c -0.22191,-0.81867 -0.85123,-2.36443 -1.39836,-3.43493 -1.37584,-2.69185 -4.10853,-5.046405 -8.2641,-7.121025 z m -5.85649,4.37596 c 2.33907,0.13064 4.70226,0.78436 6.99596,1.970435 4.29508,2.22099 7.70021,6.03257 8.63048,9.66091 l 0.3054,1.19062 2.76056,0.0155 c 3.14545,0.0177 4.90517,0.5476 6.91276,2.0805 2.75217,2.10145 4.97962,6.11232 5.18676,9.34 0.0719,1.11957 0.25378,2.00503 0.42116,2.05103 4.38956,1.2062 6.18793,3.72798 6.44767,9.0408 0.15206,3.11045 -0.19064,4.56955 -1.82366,7.76696 -1.96389,3.84528 -4.88279,6.34516 -8.80722,7.54218 -5.78584,1.7648 -8.25131,0.11539 -11.85612,-7.93027 -3.18468,-7.10797 -4.74635,-9.75437 -7.0776,-11.99306 -2.03551,-1.9547 -4.17776,-2.90511 -6.17534,-2.73989 -0.89834,0.0743 -0.33258,0.88032 0.96222,1.37098 2.8074,1.06387 5.5008,3.83727 7.45381,7.67498 0.85006,1.6704 1.2584,2.60734 3.20859,7.36028 1.11733,2.7231 2.78862,5.32603 4.48086,6.97786 1.90965,1.86405 2.71911,2.17371 5.67614,2.17248 3.09453,-10e-4 4.61785,-0.54264 7.41247,-2.63343 1.06742,-0.79859 2.1082,-1.45211 2.31303,-1.45211 0.51571,0 5.41984,4.32659 8.69715,7.67292 2.83896,2.89877 6.71828,7.63378 8.67802,10.59212 3.64732,5.50585 5.25727,11.31419 3.61942,13.0576 -1.12807,1.20078 -5.12329,2.26126 -10.08259,2.6758 -2.39452,0.20015 -8.6315,-0.78168 -11.63753,-1.83193 -3.24063,-1.1322 -7.4638,-3.60422 -13.80485,-8.08064 -1.0336,-0.72967 -1.38178,-0.84234 -2.15594,-0.69711 -1.37081,0.25717 -2.14758,1.00761 -3.39152,3.27628 -1.59058,2.90088 -5.00297,7.97831 -7.26622,10.81175 -2.69938,3.3794 -9.81513,9.5885296 -14.52832,12.6767396 -6.33309,4.14962 -12.3645,6.54469 -19.24585,7.64346 -3.11708,0.49772 -10.91949,0.50928 -14.22394,0.0212 -5.1012,-0.75352 -9.04072,-1.85584 -11.99048,-3.35483 -1.66491,-0.84606 -5.46777,-3.39606005 -6.62905,-4.44521 -1.37706,-1.24409 -4.0481,-4.69544 -5.71852,-7.3887 -4.07553,-6.5711296 -6.15125,-17.7385796 -5.31543,-28.5992896 0.35641,-4.63121 0.53159,-5.62996 1.67121,-9.53223 1.61197,-5.51966 4.48959,-11.45274 7.41815,-15.29416 2.19764,-2.88264 6.37973,-7.53928 8.17625,-9.10435 1.95301,-1.70138 6.92422,-5.26608 8.3783,-6.0079 l 1.00717,-0.51418 0.48576,1.37097 c 0.26699,0.75409 0.87398,2.26447 1.34876,3.35587 0.87452,2.01032 1.2331,3.32961 2.2133,8.13955 0.44909,2.20373 0.95509,3.71992 1.80919,5.42035 0.0548,0.10914 -0.35684,0.19832 -0.91467,0.19843 -0.58201,1.2e-4 -1.74418,0.34564 -2.72749,0.81081 -1.7092,0.80859 -1.71765,0.80956 -3.30729,0.42168 -1.48356,-0.36199 -3.29893,-0.33228 -3.32538,0.0543 -0.0137,0.20037 -0.25611,1.37313 -1.01544,4.91442 -0.3137,1.46303 -1.14417,3.98671 -1.87224,5.68855 -0.71974,1.68238 -1.72397,4.13081 -2.23138,5.44049 -0.50741,1.30969 -1.29649,3.27422 -1.75339,4.36563 -0.45689,1.0914 -1.40462,3.65125 -2.10633,5.68854 -0.70171,2.03729 -1.64354,4.69077 -2.09289,5.8968 -2.43175,6.52662 -2.41399,12.60613 0.047,16.21038 0.9,1.3180896 3.04461,2.4044996 4.747,2.4044996 3.28164,0 7.47064,-1.81621 10.0769,-4.3687296 3.26823,-3.20082 7.72149,-10.03943 9.85987,-15.14119 3.71052,-8.85263 5.68034,-14.47156 6.18877,-17.65422 0.22374,-1.40053 0.21241,-1.93206 -0.0512,-2.40916 -0.18598,-0.33667 -0.60206,-1.09081 -0.92449,-1.67638 -0.32243,-0.58557 -1.31152,-2.02759 -2.19832,-3.20445 -0.99842,-1.32501 -1.67108,-2.50087 -1.7663,-3.08767 -0.14888,-0.91743 -0.46042,-1.26107 -2.7249,-3.0055 -0.75864,-0.58441 -0.69226,-0.737 0.40721,-0.93069 0.43362,-0.0764 2.06207,-0.78587 3.61839,-1.57665 2.86472,-1.45558 5.40551,-2.21343 9.46815,-2.8236 2.11577,-0.31777 2.93412,-0.69625 3.55534,-1.64435 0.34178,-0.52163 0.33778,-0.78864 -0.032,-2.25671 -0.46099,-1.83006 -0.87067,-2.18788 -3.25871,-2.84633 -0.65484,-0.18056 -2.67891,-0.88634 -4.49792,-1.56838 -1.81901,-0.68205 -3.86154,-1.34007 -4.53874,-1.46245 -1.32635,-0.2397 -2.86959,-0.93315 -2.86959,-1.28932 0,-0.1207 -0.74415,-0.73361 -1.65365,-1.36168 -2.07767,-1.43475 -4.49697,-3.45552 -4.33307,-3.61942 0.0683,-0.0683 1.2941,-0.28982 2.72438,-0.49247 3.37627,-0.47837 7.52434,-0.47766 9.7932,0.003 3.65401,0.7729 8.12567,2.52284 10.34149,4.04678 1.53174,1.05346 2.07835,0.95277 1.75803,-0.32349 -0.25853,-1.03006 -3.23962,-4.10529 -5.24774,-5.41362 -0.92627,-0.60348 -2.67597,-1.51531 -3.88865,-2.02675 -2.70724,-1.14177 -6.26782,-1.55079 -9.67434,-1.11105 -2.6862,0.34676 -3.30564,0.19937 -3.91449,-0.93121 -1.96072,-3.64082 3.11204,-8.02053 10.31254,-8.90333 4.23645,-0.5194 8.39402,0.39292 11.41429,2.50424 1.03626,0.7244 1.83664,1.12741 1.89446,0.95395 0.64076,-1.9223 2.56019,-4.41876 4.71858,-6.13761 3.32561,-2.648395 7.15617,-3.884175 11.05462,-3.666455 z m -68.90174,17.339005 c 6.56059,-0.0206 6.57665,-0.0185 14.86886,1.5875 2.57534,0.49878 4.97655,0.90692 5.33611,0.90692 0.82263,0 1.49087,0.24944 1.49087,0.55707 0,0.12995 -0.15921,0.23668 -0.35347,0.23668 -0.60985,0 -5.49037,2.62056 -8.1132,4.35632 -5.03562,3.33249 -8.55393,6.94966 -10.31823,10.60814 -1.14647,2.37733 -1.38229,2.52199 -4.27675,2.62775 -1.35894,0.0497 -2.82784,0.04 -3.2644,-0.0217 -2.04602,-0.28916 -6.54917,-1.29059 -8.37364,-1.8619 -2.4669,-0.77247 -2.77072,-1.25467 -1.21388,-1.92805 0.61624,-0.26655 2.37101,-1.04937 3.89898,-1.73943 3.17911,-1.43575 4.67197,-1.93728 8.20209,-2.75642 9.12373,-2.11709 10.56173,-2.53307 10.15803,-2.93677 -0.15265,-0.15265 -1.5571,-0.0432 -3.68143,0.28681 -9.07598,1.40985 -18.16532,3.95013 -20.76927,5.80429 -0.40593,0.28905 -0.99096,0.52555 -1.29966,0.52555 -0.3087,0 -2.79066,-1.12387 -5.51543,-2.49752 -5.06521,-2.55355 -5.87974,-3.19133 -5.87974,-4.60075 0,-0.98671 1.31955,-2.11537 4.17493,-3.57084 3.31379,-1.68913 10.08535,-4.13767 12.49382,-4.51756 0.50933,-0.0803 2.11666,-0.34874 3.57187,-0.59634 1.94233,-0.33048 4.29907,-0.4554 8.86354,-0.46974 z m 58.08276,18.91461 c -1.26431,-0.0623 -2.25567,0.001 -2.25567,0.22634 0,0.13349 1.33946,0.68602 2.97656,1.22783 4.98106,1.64849 7.36324,3.04946 10.73371,6.31228 2.04517,1.97985 5.45383,6.4036 6.8957,8.9488 0.87984,1.55311 1.39805,2.03168 2.21434,2.04587 0.33125,0.006 0.46217,-0.1988 0.46044,-0.71933 -0.003,-1.00734 -2.60706,-6.56058 -3.89072,-8.2982 -3.59968,-4.87272 -7.86685,-7.84227 -13.24106,-9.21443 -1.09194,-0.27879 -2.62898,-0.46692 -3.8933,-0.52916 z m -28.92485,6.86159 0.7674,0.64544 c 0.422,0.35509 1.2404,0.9112 1.81849,1.2361 0.84144,0.47292 1.122,0.83285 1.40767,1.80299 0.19626,0.66651 1.01573,2.22385 1.82107,3.46077 2.64518,4.06274 2.69231,4.27883 1.80145,8.30854 -1.35839,6.14447 -5.14212,15.0012 -8.52145,19.94607 l -0.77566,1.13481 -0.51573,-0.65525 c -0.28342,-0.36032 -1.19694,-0.92324 -2.03037,-1.25109 -1.26313,-0.49688 -2.02157,-0.59565 -4.55786,-0.59325 -4.58408,0.004 -7.30459,0.86728 -9.70277,3.07785 l -1.18339,1.09089 0.18655,-1.7048 c 0.26356,-2.41366 1.23,-5.63727 2.93109,-9.7746 4.22163,-10.26771 7.36583,-19.3713 8.04137,-23.28333 0.18847,-1.09141 0.36805,-2.01934 0.39894,-2.06189 0.0309,-0.0426 0.84512,0.12098 1.80971,0.36328 l 1.7539,0.44029 2.2748,-1.09141 z m 62.25977,14.64665 c -0.80821,0.005 -1.53434,0.0447 -2.16421,0.11938 -2.67856,0.31755 -6.35747,1.55959 -8.16436,2.75642 -1.17331,0.77717 -1.22144,0.8576 -1.05472,1.76681 0.0961,0.52396 0.52651,1.50413 0.95602,2.17817 0.80158,1.25794 4.99776,5.10532 6.27093,5.74952 0.3918,0.19824 1.24841,0.69229 1.90325,1.09812 3.46542,2.14761 16.36296,6.83413 22.0927,8.02742 1.04159,0.21692 2.66323,0.16326 3.68867,-0.12144 0.57369,-0.15927 1.39121,-0.66201 1.81694,-1.11776 0.7122,-0.76241 0.76286,-0.94543 0.63304,-2.28875 -0.16266,-1.68305 -1.33518,-4.65409 -2.83549,-7.18354 -3.27734,-5.52548 -8.3742,-9.20847 -14.01878,-10.13013 -3.53412,-0.57706 -6.69937,-0.86989 -9.12399,-0.85422 z m -0.6749,1.5596 c 2.94239,-0.13499 6.51238,0.27423 9.51002,1.14566 4.78984,1.39245 10.24536,5.2047 12.78268,8.93279 2.45555,3.60794 3.62473,7.68798 2.389,8.33696 -0.9062,0.47591 -2.60601,0.5321 -4.38526,0.1447 -4.73537,-1.03106 -8.75988,-2.53251 -14.56655,-5.4343 -3.20519,-1.60174 -6.13107,-3.1258 -6.50193,-3.38687 -0.37086,-0.26107 -1.18521,-0.73372 -1.81023,-1.05007 -0.62502,-0.31635 -1.61826,-1.01004 -2.2071,-1.54202 -1.27351,-1.15054 -3.48862,-4.17974 -3.35328,-4.58577 0.15011,-0.45033 3.50225,-1.8281 5.45393,-2.24172 0.79678,-0.16887 1.70793,-0.27437 2.68872,-0.31936 z m -99.52674,8.50025 c 0.60753,-0.0272 1.13603,0.0241 1.51981,0.17002 0.61694,0.23456 0.64935,0.35726 0.6537,2.43654 0.0118,5.63939 1.48882,13.592 3.42822,18.46141 3.11784,7.8282696 8.01667,13.6770096 15.22077,18.1730496 3.63337,2.26757 7.01716,3.38712 13.06587,4.3227304 3.30009,0.51045 4.49487,0.57064 8.99584,0.45217 5.40305,-0.14221 7.38137,-0.43887 12.97802,-1.9461304 6.00684,-1.61773 14.25982,-5.65806 18.80298,-9.20564005 3.84046,-2.99885995 8.23584,-6.80063995 11.11147,-9.61026995 1.67381,-1.6353796 3.20745,-2.9748396 3.40806,-2.9765596 0.20062,-0.002 1.33266,0.97917 2.51509,2.17971 3.53091,3.5849996 5.04715,7.0655196 5.3697,12.3268996 0.18909,3.08421 0.51301,3.56294 1.57613,2.32699 l 0.61443,-0.71365 1.00201,0.51108 c 1.59411,0.81325 5.47796,4.36541 6.80269,6.22184 1.63807,2.2955704 3.16919,5.6690804 3.7269,8.2124204 0.65328,2.9792 0.353,6.99324 -0.73071,9.77304 l -0.29507,0.75758 -9.01754,-0.12712 c -5.48655,-0.0772 -9.79456,-0.25882 -11.00191,-0.46406 -1.87784,-0.3192 -2.03058,-0.39823 -2.84013,-1.47329 -1.21551,-1.61414 -5.03239,-4.75287 -6.71949,-5.52525 -2.34502,-1.07358 -4.78719,-1.49049 -9.62267,-1.64382 -5.27799,-0.16735 -6.50429,0.0626 -10.37611,1.94613 -2.0112,0.97839 -2.75911,1.52258 -4.13877,3.01274 -4.04232,4.36608 -5.77887,10.82298 -4.55269,16.92713 1.34293,6.68531 8.43478,13.99809 15.76028,16.2512 1.85619,0.57091 8.43208,0.84019 10.94765,0.44855 1.7826,-0.27752 1.84727,-0.26676 3.56981,0.59583 5.14794,2.57791 11.25801,4.53654 16.17421,5.18418 1.62384,0.21392 2.90022,0.59425 4.59196,1.36943 2.17556,0.99686 2.5201,1.07635 4.82503,1.10794 2.93476,0.0402 2.86975,-0.25865 0.84026,3.8468 -1.03924,2.10229 -1.78858,3.19849 -3.16415,4.62969 l -1.80247,1.87533 -0.0982,3.04323 c -0.17122,5.31002 -1.54295,8.05415 -4.9537,9.91051 -1.18228,0.64347 -1.56273,0.72254 -2.8975,0.60151 -2.16086,-0.19594 -3.94926,-1.24613 -6.54998,-3.84731 -1.29589,-1.29611 -2.37504,-2.16536 -2.62775,-2.11667 -0.30111,0.058 -0.55461,0.67368 -0.85215,2.06706 -0.8128,3.8064 -3.14053,6.62875 -7.47086,9.05939 -2.66526,1.49603 -4.39403,1.91221 -6.93342,1.66915 -2.30277,-0.22042 -4.18676,-1.04193 -5.70767,-2.48873 -1.29287,-1.22989 -1.39024,-1.26488 -1.87688,-0.67851 -0.19058,0.22962 -0.94946,0.72294 -1.68621,1.09657 -3.4689,1.75917 -8.46548,-0.0248 -9.79113,-3.49591 -0.3001,-0.78579 -0.61366,-1.19321 -0.91829,-1.19321 -0.54151,0 -0.8372,0.54562 -1.61282,2.97656 -1.65732,5.19441 -7.83067,9.697505 -12.45402,9.084195 -4.26971,-0.5664 -7.82147,-3.665125 -9.50278,-8.290445 -0.3306,-0.9095 -0.68615,-1.65364 -0.78962,-1.65364 -0.37733,0 -1.02959,0.97456 -2.12545,3.175 -1.13921,2.28749 -3.27397,5.259575 -4.46588,6.217695 -1.8272,1.4688 -5.43576,2.01045 -8.94467,1.34307 -3.32926,-0.63321 -6.71087,-2.67696 -7.2564,-4.385765 -0.16261,-0.50932 -0.39505,-1.03381 -0.51625,-1.16531 -0.12715,-0.13797 -0.84069,0.18848 -1.68724,0.77153 -1.32913,0.9154 -1.66367,1.02151 -3.55844,1.1312 -3.58581,0.20758 -7.33856,-1.12377 -8.61239,-3.05563 -0.76041,-1.15323 -1.32521,-4.25938 -1.13481,-6.24096 0.21415,-2.22867 0.34583,-2.14626 -3.57756,-2.23966 -3.8586,-0.0919 -5.79041,-0.45251 -8.58036,-1.603 -3.62082,-1.49311 -5.9194,-3.23934 -7.88065,-5.98672 -3.63905,-5.09767 -3.82541,-8.62967 -0.78239,-14.84147 1.39422,-2.84604 1.69384,-3.96472 1.20045,-4.48654 -0.13071,-0.13824 -0.53988,-1.02506 -0.90899,-1.97094 -1.62649,-4.168 -2.11805,-8.00855 -1.38906,-10.84792 0.56783,-2.21168 1.43139,-4.08716 2.56935,-5.57795 l 0.90589,-1.1865 1.58078,0.49868 c 3.76812,1.18913 11.15282,0.75223 15.00683,-0.8878 3.37201,-1.43492 7.39496,-4.69148 9.1395,-7.39851 2.84491,-4.41451 3.98309,-7.82364 4.20749,-12.60079 0.17355,-3.69459 -0.0698,-5.08177 -1.40663,-8.00933 -1.55486,-3.4049504 -5.10972,-6.2786104 -9.6237,-7.7798804 -1.79525,-0.59707 -7.05054,-1.70897 -8.99583,-1.90325 -0.94588,-0.0945 -2.43417,-0.28121 -3.3073,-0.41496 -0.87311,-0.13374 -3.25436,-0.36451 -5.29166,-0.51314 -4.50479,-0.32863 -7.76231,-0.77444 -7.95662,-1.08883 -0.0794,-0.1285 -0.037,-0.23357 0.0946,-0.23357 0.13155,0 0.94614,-0.45697005 1.81022,-1.01545005 1.76518,-1.14087995 3.64728,-3.62755995 4.69222,-6.19857995 0.60662,-1.49255 0.62415,-1.50837 1.09502,-0.98806 1.181,1.30498 1.65062,0.20246 1.25006,-2.9352196 -0.29142,-2.28276 -0.27556,-2.43111 0.52658,-5.00228 0.74391,-2.38455 1.89596,-4.38143 3.48609,-6.04097 2.45145,-2.55845 5.24544,-3.43749 8.19795,-2.57917 1.20877,0.3514 1.56074,0.58152 1.76785,1.156 0.63228,1.75381 1.14986,2.70164 1.47536,2.70164 0.37796,0 0.50879,-0.44536 0.73949,-2.51354 0.30256,-2.71234 3.04362,-6.85934 5.9092,-8.94002 1.47434,-1.0705 4.00858,-1.85984 5.83117,-1.94149 z m 32.73444,17.14935 c 0.56204,0.56204 -4.43719,4.23223 -7.09363,5.20795 -1.73916,0.63881 -3.63794,0.7103 -4.85086,0.18241 -0.84823,-0.36917 -1.68724,-1.32782 -1.68724,-1.92753 0,-0.59479 0.46593,-0.36192 0.63666,0.31833 0.36247,1.44419 3.16114,1.89672 5.86114,0.94775 1.55143,-0.54528 4.37035,-2.39712 5.9986,-3.94085 0.54304,-0.51484 1.05392,-0.86948 1.13533,-0.78806 z m -35.37407,3.85919 c -1.66016,-0.0142 -3.68391,0.39856 -5.13819,1.24695 -1.95302,1.1393496 -4.41458,3.6345296 -5.2896,5.3614296 -0.9092,1.79435 -1.03517,4.07099 -0.31419,5.68802995 0.6898,1.54712005 1.21074,1.30301005 1.19321,-0.55862 -0.0113,-1.19480995 0.16982,-1.94452995 0.79013,-3.27008995 1.84544,-3.9436 7.02205,-7.3756196 10.44123,-6.9220596 1.03315,0.13706 1.27434,0.0938 1.27434,-0.22944 0,-0.86082 -1.29677,-1.30201 -2.95693,-1.3162 z m -51.63561,10.5642096 1.62678,0.18397 c 2.20791,0.2498 3.78757,0.83043995 7.98659,2.93626 4.25826,2.13554 7.15619,3.28224 11.4763,4.54029 l 3.20807,0.93431 4.25452,-0.31006 c 5.18123,-0.37707 6.91055,-0.17878 11.48819,1.31723 5.21101,1.70301 8.65713,4.0431204 9.77202,6.6347404 0.82268,1.91238 1.10924,5.9303 0.63407,8.89765 -1.06559,6.65444 -5.05735,11.62971 -11.86181,14.78566 -3.89536,1.80668 -8.88369,2.45621 -12.08867,1.57355 -1.41164,-0.38877 -4.68879,-2.09233 -6.797,-3.53312 l -1.42317,-0.97255 2.57865,-0.18604 c 2.81772,-0.20328 5.81166,-1.00367 6.86987,-1.83606 0.86587,-0.68109 0.84881,-0.88452 -0.10852,-1.28106 -0.96405,-0.39933 -2.6714,-2.56902 -3.57601,-4.54494 -0.98571,-2.15309 -0.95825,-3.79289 0.0915,-5.49889 0.9437,-1.53371 1.00518,-1.91935 0.38964,-2.42983 -0.65648,-0.54443 -1.15013,-1.9255 -1.1436,-3.19877 0.007,-1.36154 0.68556,-2.94555 1.81126,-4.22765 1.01947,-1.16112 1.04462,-1.53715 0.10128,-1.52962 -1.62822,0.013 -4.1647,1.65242 -4.98471,3.22203 -0.51311,0.98218 -0.45649,3.0401 0.11886,4.31291 0.47805,1.05757 0.47789,1.05871 -0.19482,2.08101 -1.89862,2.88526 -0.34996,8.29952 3.29075,11.50421 l 1.17409,1.03301 -0.82682,0.16536 c -2.82126,0.56425 -8.5764,-0.0278 -15.04766,-1.54719 -6.46441,-1.51785 -14.45998,-4.46392 -16.97519,-6.25491 l -0.87902,-0.6258 1.28054,-0.18346 c 1.87626,-0.26839 3.96162,-1.39525 5.84926,-3.16104 2.29984,-2.15138 3.48044,-3.97579 4.50877,-6.96754 1.06943,-3.1113 1.36057,-5.9854304 0.92604,-9.1405204 -0.39197,-2.84612 -1.10203,-4.49956005 -2.45928,-5.72575005 z m -3.33571,0.57568 1.4056,0.64388995 c 1.58748,0.72677 2.33728,1.42800005 3.1657,2.96002005 0.84633,1.56517 0.80771,6.72897 -0.0744,9.9218804 -1.29723,4.69512 -3.3168,7.56699 -6.40839,9.11366 -2.05318,1.02715 -3.48436,1.18855 -4.85087,0.54673 -1.92611,-0.90464 -2.21934,-1.6855 -2.23552,-5.95622 -0.0182,-4.80364 1.21545,-9.4204904 3.41943,-12.7966404 1.38241,-2.11764 2.39418,-3.02478005 4.32842,-3.88038005 z m 129.82412,23.0564704 c 5.72787,0.42228 7.8061,1.29675 11.73985,4.93975 2.80141,2.59437 3.43705,2.97027 6.2978,3.72329 1.52722,0.402 2.90389,0.44955 11.05566,0.38344 7.70967,-0.0625 9.61804,-0.004 11.097,0.339 2.10866,0.48903 4.9093,1.69084 4.70617,2.01951 -0.0785,0.12694 -0.71193,0.231 -1.40767,0.231 -1.87414,0 -5.1743,0.93023 -7.14995,2.01589 -3.32879,1.82923 -5.4899,4.10623 -7.65586,8.06514 -2.30271,4.20888 -3.0821,7.60075 -2.89026,12.58063 0.0692,1.79688 0.1143,3.25629 0.10025,3.2427 -0.014,-0.0136 -1.57314,-0.4147 -3.46491,-0.8909 -11.90295,-2.99623 -16.70527,-5.05018 -20.39772,-8.72557 -1.03226,-1.02748 -2.00753,-2.11549 -2.16731,-2.41742 -0.27625,-0.52205 -0.22048,-0.55067 1.14257,-0.58653 2.54732,-0.067 4.96996,-1.87533 5.91902,-4.41782 0.65773,-1.762 1.13991,-4.98845 0.92036,-6.1588 -0.15853,-0.84503 -0.12571,-0.92121 0.32091,-0.74982 0.27347,0.10494 1.21828,0.25773 2.09961,0.34003 1.30758,0.1221 1.80371,0.0472 2.69751,-0.40876 1.30117,-0.66381 1.92443,-1.46831 1.92443,-2.48512 0,-1.04142 -0.56897,-1.14545 -1.92391,-0.3514 -1.36261,0.79854 -2.77116,0.8786 -5.04517,0.28629 -2.12137,-0.55255 -2.73577,-0.50778 -3.22255,0.23513 -0.3479,0.53097 -0.36516,0.82775 -0.10645,1.85518 0.17152,0.68118 0.25908,2.24973 0.1974,3.53984 -0.0874,1.82889 -0.24722,2.56104 -0.75964,3.47885 -1.04675,1.87484 -1.77694,2.26184 -4.35012,2.30477 -1.21431,0.0203 -2.35094,0.12522 -2.52543,0.23306 -0.54405,0.33624 -0.115,2.41944 0.94258,4.57905 0.76989,1.57215 1.47793,2.49925 3.13883,4.10931 l 2.14508,2.07946 -1.4552,-0.19327 c -4.97545,-0.66046 -11.39027,-3.51891 -14.74846,-6.57221 -1.31053,-1.19155 -3.21569,-3.78179 -3.95118,-5.37176 -1.38673,-2.99783 -1.68526,-7.38508 -0.74466,-10.95076 0.46054,-1.74582 2.60236,-5.61818 3.73156,-6.74739 2.60983,-2.60983 7.94398,-3.98476 13.78986,-3.55379 z m -44.94765,11.65459 c -0.28599,-0.0372 -0.48989,0.069 -0.48989,0.33486 0,0.72021 2.09618,3.24867 3.47317,4.18941 1.28953,0.88097 1.80258,1.1452 3.93516,2.02675 0.3638,0.15039 1.68488,0.28161 2.93626,0.29146 2.12318,0.0167 2.39724,-0.0468 4.10104,-0.94568 1.0042,-0.52982 2.26568,-1.308 2.80293,-1.72961 3.06669,-2.40653 2.47687,-5.58198 -0.63976,-3.44424 -3.29444,2.25971 -6.36324,3.3164 -8.58138,2.95538 -1.9046,-0.30998 -5.23413,-1.9107 -6.55516,-3.15175 -0.32843,-0.30855 -0.69638,-0.48938 -0.98237,-0.52658 z m 90.27253,1.5043 c 2.86382,-0.0221 4.4381,1.1541 5.46891,4.08502 0.64638,1.83787 0.75319,5.39063 0.21756,7.23884 -0.75806,2.61565 -3.73805,8.41549 -5.39605,10.50168 -2.05838,2.58998 -5.01592,5.24164 -6.9696,6.24923 -2.25462,1.1628 -4.32633,1.16285 -6.03116,5.2e-4 -3.46554,-2.36277 -4.54791,-4.09528 -4.70979,-7.54114 -0.19523,-4.15586 1.04404,-8.48187 3.67885,-12.84263 2.7458,-4.54446 8.29332,-7.64955 13.74128,-7.69152 z m -126.17628,15.14585 c -0.67524,0 -2.27129,2.48979 -2.88303,4.49791 -0.2675,0.87811 -0.44291,2.35409 -0.44235,3.72226 8e-4,1.93559 0.10729,2.48532 0.72864,3.75532 0.91685,1.87398 2.78229,3.96337 4.37286,4.89841 1.14793,0.67483 1.42205,0.72034 4.30206,0.71262 l 3.0763,-0.008 0.16226,1.74511 c 0.43993,4.73343 2.95982,8.57247 6.30143,9.60097 1.15355,0.35504 1.83613,0.38997 3.7884,0.19379 2.71137,-0.27246 3.85598,-0.63475 6.67814,-2.11357 l 1.99885,-1.04748 0.51366,0.65319 c 1.56066,1.98406 4.90285,4.11913 8.11837,5.18573 2.22799,0.73903 5.11798,0.51724 7.30653,-0.56017 1.85686,-0.91412 3.86273,-2.91617 4.65398,-4.6452 0.52877,-1.15546 0.6582,-2.77812 0.22169,-2.77812 -0.15077,0 -0.77585,0.55928 -1.38906,1.24333 -2.50155,2.79052 -3.36941,3.47781 -5.13509,4.06539 -2.38121,0.79241 -5.43651,0.64385 -7.39645,-0.35967 -2.37391,-1.21549 -3.78754,-2.31324 -4.87463,-3.78478 -1.24515,-1.68549 -1.64036,-1.75526 -3.49023,-0.61702 -3.19388,1.96521 -6.36096,3.02023 -7.68584,2.56057 -1.33877,-0.46448 -3.40253,-1.74917 -4.48138,-2.78898 -1.05333,-1.01521 -2.64492,-4.67271 -2.97811,-6.84403 -0.23038,-1.50131 -0.82019,-1.94424 -2.95382,-2.21795 -4.47289,-0.5738 -6.42402,-1.80127 -7.79746,-4.90616 -0.63333,-1.43176 -0.75675,-3.77964 -0.40566,-7.71581 0.20899,-2.34302 0.19603,-2.44739 -0.31006,-2.44739 z m 96.35122,17.78496 c -0.0939,0.0501 -0.18428,0.1743 -0.26044,0.38292 -0.58906,1.61353 -3.7818,3.99615 -6.35931,4.74545 -1.15696,0.33634 -2.07652,0.40181 -3.90467,0.27802 -2.75396,-0.18647 -3.03543,-0.0544 -4.18372,1.96318 -0.80041,1.40634 -2.49327,2.93101 -4.09174,3.68505 -1.40906,0.66468 -5.13842,0.73957 -6.59185,0.13229 -1.24804,-0.52146 -1.67896,-0.50113 -1.67896,0.0801 0,0.52618 1.34923,1.91432 2.37453,2.44274 1.77269,0.91364 5.9465,0.89366 7.81037,-0.0372 1.58759,-0.79288 3.43947,-2.79135 4.27209,-4.61006 0.54066,-1.18095 0.74323,-1.40418 1.10588,-1.21749 0.24422,0.12572 1.24073,0.37582 2.21434,0.55552 3.43361,0.63374 6.06986,-0.25315 8.42997,-2.83549 1.36639,-1.49504 1.66698,-2.33881 1.52601,-4.28552 -0.0661,-0.91209 -0.38084,-1.42975 -0.6625,-1.27951 z m -23.69416,29.88189 0.8847,0.91261 c 2.16676,2.235525 8.42838,2.794285 12.78837,1.141015 0.71893,-0.272615 1.35244,-0.450555 1.40767,-0.395325 0.0552,0.0552 -0.0868,1.183505 -0.31523,2.507335 -0.82058,4.75503 -0.26512,12.60206 1.29191,18.25625 1.96041,7.11905 4.19902,13.6036 6.10816,17.69246 0.35821,0.76721 0.65164,1.49501 0.65164,1.61747 0,0.12247 -1.10134,0.28642 -2.4474,0.36432 -2.8527,0.1651 -5.00713,0.78971 -8.9886,2.60553 -1.56032,0.71162 -2.92955,1.28351 -3.04271,1.27124 -0.11317,-0.0123 -0.7195,-0.25791 -1.3472,-0.54622 -3.38226,-1.55354 -8.34441,-1.67027 -14.13351,-0.33228 -0.61984,0.14326 -0.7654,0.0595 -1.02061,-0.59015 -1.02974,-2.62129 -1.97653,-13.44313 -1.68671,-19.27841 0.38836,-7.81926 1.7117,-15.32927 3.62613,-20.58117 0.71716,-1.96739 0.95007,-2.34548 1.51619,-2.46031 1.59509,-0.323545 2.7886,-0.794825 3.7145,-1.465545 z m -62.68558,3.919655 1.29915,1.26039 c 0.71472,0.6931 2.09295,1.65198 3.06235,2.13062 1.98547,0.98033 5.30889,1.90789 6.83575,1.90789 1.1845,0 1.23452,0.1935 0.39481,1.52704 -1.51067,2.39911 -3.04652,5.23149 -7.13341,13.15734 -5.44415,10.55804 -4.85453,9.49524 -10.20041,18.38854 -1.09343,1.81901 -2.54084,4.35561 -3.21634,5.63738 -1.09529,2.07827 -1.26748,2.28329 -1.59319,1.89084 -0.53696,-0.64699 -3.05682,-2.30774 -4.95008,-3.26233 -2.15016,-1.08412 -4.84067,-1.50881 -7.42229,-1.17151 -1.06216,0.13878 -1.98123,0.17087 -2.04277,0.0713 -0.0615,-0.0996 -0.7175,-2.01328 -1.45728,-4.25297 -1.94059,-5.87512 -3.7329,-8.80923 -5.99239,-9.80871 -0.62904,-0.27826 -1.13484,-0.58961 -1.12397,-0.69194 0.0109,-0.10233 1.05267,-1.06227 2.31511,-2.13321 3.54355,-3.00601 10.9567,-10.16817 12.7186,-12.28814 3.47613,-4.18256 4.71987,-5.75427 6.11332,-7.72356 2.30905,-3.26326 1.99683,-3.04555 3.92948,-2.73781 2.14826,0.34207 4.60749,-0.0621 6.83111,-1.12241 z m -34.62889,28.15177 c 0.17961,-0.0101 0.38727,0.0823 0.74983,0.26975 1.14918,0.59427 2.76164,2.54088 3.72432,4.49637 0.77573,1.57572 2.48116,6.43107 3.19205,9.0873 0.42111,1.57348 0.91058,1.76505 3.59616,1.40767 3.22221,-0.4288 5.25413,-0.0495 7.93078,1.48053 2.31958,1.3259 4.10105,2.86626 4.10105,3.54603 0,0.63738 -1.93945,1.3225 -4.10105,1.44901 -1.37885,0.0807 -2.42671,-0.0482 -4.10104,-0.50488 -7.0182,-1.91402 -13.6216,-7.19518 -16.72818,-13.37903 -1.31123,-2.61009 -1.38544,-4.43382 -0.24391,-5.99395 0.41526,-0.56754 0.99952,-1.24888 1.29863,-1.51412 0.25037,-0.22202 0.40175,-0.33456 0.58136,-0.34468 z m 118.22534,12.07213 c 1.79148,0 2.7001,0.3126 2.7001,0.92915 0,1.29196 -7.10097,5.06733 -11.1125,5.90816 -2.43227,0.50981 -8.30133,0.90504 -9.92188,0.66818 -3.88521,-0.56784 -6.94848,-1.72407 -8.96793,-3.38481 -1.10077,-0.90524 -0.77588,-1.35954 1.22163,-1.70739 4.6607,-0.81163 8.06299,-0.58137 11.37915,0.76998 1.05764,0.43099 2.11425,0.78395 2.34766,0.78445 0.2334,5e-4 1.85844,-0.65016 3.61115,-1.44591 3.87406,-1.75888 6.51921,-2.52181 8.74262,-2.52181 z" /></g></svg>
