<?xml version="1.0" standalone="no"?>
<!DOCTYPE svg PUBLIC "-//W3C//DTD SVG 20010904//EN"
 "http://www.w3.org/TR/2001/REC-SVG-20010904/DTD/svg10.dtd">
<svg version="1.0" xmlns="http://www.w3.org/2000/svg"
 viewBox="0 0 2600.000000 2600.000000"
 preserveAspectRatio="xMidYMid meet">
<metadata>
Created by potrace 1.15, written by Peter Selinger 2001-2017
</metadata>
<g transform="translate(0.000000,2600.000000) scale(0.100000,-0.100000)"
fill="currentColor" stroke="none">
<path d="M13445 20890 c-406 -26 -799 -171 -1120 -413 -107 -81 -287 -262
-364 -367 -221 -299 -342 -644 -345 -982 -1 -71 -3 -128 -7 -128 -3 0 -23 26
-46 58 -132 186 -331 355 -547 464 -97 49 -278 110 -411 138 -143 31 -446 39
-605 16 -757 -110 -1405 -632 -1634 -1317 -67 -200 -80 -279 -80 -514 -1 -185
2 -222 22 -314 13 -58 34 -134 47 -170 13 -36 22 -67 20 -69 -1 -2 -34 6 -71
18 -232 71 -515 67 -764 -12 -247 -79 -449 -205 -650 -407 -164 -165 -247
-279 -345 -476 -144 -290 -205 -542 -205 -846 0 -262 43 -466 147 -689 73
-158 151 -269 273 -390 l75 -75 -250 -1 c-872 -2 -1548 -207 -2350 -711 -522
-329 -988 -741 -1151 -1020 -66 -112 -89 -227 -60 -298 38 -89 190 -184 400
-250 700 -219 1924 -196 2609 49 67 24 99 31 102 23 2 -7 11 -55 20 -107 46
-257 185 -566 344 -765 58 -73 205 -216 281 -273 200 -151 443 -245 692 -267
l77 -7 -58 -39 c-240 -160 -428 -450 -497 -769 -26 -120 -26 -410 0 -530 59
-275 184 -513 369 -707 364 -380 880 -516 1340 -353 120 42 127 28 31 -69
-140 -141 -238 -320 -286 -525 -29 -122 -31 -360 -5 -486 100 -473 449 -867
899 -1014 240 -78 511 -82 728 -9 68 23 180 73 222 99 l36 23 -29 -64 c-51
-114 -71 -199 -76 -340 -10 -238 47 -432 190 -645 65 -97 241 -273 340 -339
264 -176 594 -265 867 -232 252 31 442 115 612 270 36 34 68 61 71 61 3 0 11
-17 18 -37 42 -132 154 -300 284 -428 453 -447 1214 -540 1801 -220 222 121
430 332 530 538 16 31 32 57 36 57 4 0 34 -20 66 -44 274 -209 693 -258 1069
-125 375 132 680 431 796 779 42 126 51 189 51 330 0 153 -21 254 -77 371
l-32 66 80 -42 c93 -51 229 -97 335 -116 93 -16 303 -16 390 0 261 48 496 170
689 355 211 205 342 445 396 727 19 99 21 291 4 399 -35 228 -157 465 -313
608 -40 36 -56 57 -52 68 7 18 6 18 111 -20 125 -44 227 -61 385 -61 154 1
246 15 388 61 441 144 787 526 907 1000 134 525 -65 1081 -488 1369 l-48 33
68 6 c113 11 224 34 316 65 512 173 905 665 1012 1262 l17 97 116 -40 c643
-218 1669 -258 2409 -92 337 75 559 196 593 324 24 89 -27 227 -140 380 -82
112 -352 379 -514 510 -524 422 -1183 788 -1701 945 -367 111 -764 166 -1207
169 l-256 1 92 95 c389 402 508 1032 310 1639 -37 111 -133 321 -187 406 -156
249 -372 464 -604 602 -335 199 -740 257 -1077 153 -37 -12 -70 -19 -73 -17
-2 3 9 47 25 99 197 612 -34 1324 -581 1794 -382 328 -842 504 -1320 504 -377
0 -685 -92 -970 -289 -131 -91 -300 -264 -364 -372 -10 -16 -21 -29 -25 -29
-4 0 -8 51 -8 113 0 433 -190 868 -522 1198 -407 405 -993 618 -1593 579z
m430 -4240 c1399 -63 2648 -518 3563 -1298 149 -127 391 -375 506 -517 253
-315 475 -723 579 -1066 186 -610 162 -1255 -70 -1849 -211 -541 -596 -1047
-1114 -1466 l-116 -94 -112 -338 c-373 -1125 -882 -2292 -1336 -3057 -170
-287 -423 -602 -639 -797 -493 -444 -1034 -656 -1620 -635 -333 12 -608 85
-911 241 -265 136 -431 260 -665 495 -165 165 -270 292 -438 531 -112 158
-372 638 -561 1036 -280 589 -518 1161 -736 1769 -85 238 -245 719 -245 739 0
6 -37 40 -83 76 -649 512 -1094 1162 -1266 1850 -100 396 -108 829 -26 1236
152 752 640 1470 1375 2026 1023 772 2461 1183 3915 1118z"/>
<path d="M10820 13421 c-279 -63 -502 -249 -606 -506 -207 -514 133 -1082 685
-1144 252 -28 501 60 682 241 109 109 180 233 221 387 29 107 28 295 -1 406
-44 170 -154 341 -286 447 -188 152 -468 220 -695 169z"/>
<path d="M16020 13421 c-177 -38 -320 -119 -442 -250 -81 -87 -126 -156 -167
-258 -47 -115 -56 -167 -55 -318 0 -123 4 -151 28 -230 139 -459 616 -706
1070 -554 134 44 216 97 326 208 76 77 104 114 142 186 79 154 93 214 93 400
-1 152 -2 164 -33 255 -112 337 -412 562 -767 576 -83 3 -131 -1 -195 -15z"/>
<path d="M12471 9239 c-155 -15 -292 -73 -325 -138 -22 -42 -20 -104 5 -154
14 -28 198 -220 540 -562 l519 -520 0 -517 c0 -489 1 -519 20 -581 53 -172
236 -289 406 -260 176 30 296 150 324 323 6 38 10 268 10 555 l0 490 528 530
c552 553 552 553 552 634 0 53 -57 117 -131 150 -125 56 -94 54 -1274 57 -599
1 -1128 -2 -1174 -7z"/>
</g>
</svg>
