<?xml version="1.0" encoding="UTF-8" standalone="no"?>
<!-- Created with Inkscape (http://www.inkscape.org/) -->

<svg
   width="29.664854mm"
   height="23.908482mm"
   viewBox="0 0 29.664854 23.908482"
   version="1.1"
   id="svg1"
   xml:space="preserve"
   xmlns:inkscape="http://www.inkscape.org/namespaces/inkscape"
   xmlns:sodipodi="http://sodipodi.sourceforge.net/DTD/sodipodi-0.dtd"
   xmlns="http://www.w3.org/2000/svg"
   xmlns:svg="http://www.w3.org/2000/svg"><sodipodi:namedview
     id="namedview1"
     pagecolor="#ffffff"
     bordercolor="#000000"
     borderopacity="0.25"
     inkscape:showpageshadow="2"
     inkscape:pageopacity="0.0"
     inkscape:pagecheckerboard="0"
     inkscape:deskcolor="#d1d1d1"
     inkscape:document-units="mm" /><defs
     id="defs1" /><g
     inkscape:label="Vrstva 1"
     inkscape:groupmode="layer"
     id="layer1"
     transform="translate(-440.61732,-88.802839)"><path
       style="fill:#eeeeee;fill-opacity:1;stroke-width:0.531128"
       d="m 448.37271,89.352356 c -2.61795,0.02928 -3.87665,2.809298 -4.87002,4.81744 -1.59554,3.267453 -2.51035,7.038594 -1.81143,10.653184 1.15824,2.52532 4.29437,3.01867 6.73934,3.48745 3.60483,0.57485 7.26398,0.61361 10.90361,0.74734 1.28513,1.14461 2.69939,2.31824 4.36749,2.81562 1.41633,0.0748 1.61193,-1.63116 1.12264,-2.62318 -0.5346,-0.8055 0.24884,-0.83931 0.87712,-0.99197 1.94712,-0.4082 3.76132,-1.92814 3.75632,-4.04745 0.14736,-2.88662 0.0924,-5.947807 -1.07873,-8.633813 -1.53016,-2.133368 -4.40018,-2.51246 -6.70891,-3.368241 -4.34749,-1.23338 -8.75614,-2.642715 -13.29743,-2.85638 z"
       id="path1"
       inkscape:export-filename="path1.png"
       inkscape:export-xdpi="96"
       inkscape:export-ydpi="96" /><path
       id="rect1"
       style="fill:#000000;fill-opacity:1;stroke-width:0.7"
       d="m 446.46812,88.913219 c -0.66659,0.252997 -1.29386,1.1548 -1.29386,1.1548 -1.37876,1.432643 -3.34697,5.654253 -4.12792,8.853723 -0.82542,3.381688 -0.43534,6.499148 0.95963,7.668778 1.69425,1.42055 6.27426,2.32817 12.90413,2.55644 l 4.63021,0.15916 1.19062,0.99684 c 0.65484,0.54821 1.78594,1.30055 2.51354,1.67173 1.05227,0.53683 3.04716,0.94489 3.04116,0.62218 -6.7e-4,-0.0364 -0.29559,-0.78052 -0.65526,-1.65364 -0.35968,-0.87313 -0.65691,-1.70917 -0.65991,-1.85777 -0.003,-0.14861 0.73794,-0.41103 1.64745,-0.58291 1.93468,-0.36563 2.90069,-1.22922 3.38429,-3.02514 0.38153,-1.41677 0.37132,-5.25697 -0.0196,-7.412978 -0.60667,-3.34561 -1.39971,-4.1022 -5.81205,-5.54282 -5.7852,-1.888865 -12.29888,-3.435756 -15.15876,-3.600293 0,0 -1.87708,-0.261097 -2.54367,-0.0081 z m 1.21813,0.745006 c 0.45908,-0.02746 1.0939,0.04164 2.24069,0.187586 2.74072,0.348799 6.98811,1.385831 12.39149,3.025651 4.19795,1.274 5.31366,1.78755 5.92987,2.728 1.0467,1.59747 1.59247,7.403238 0.91002,9.681068 -0.50506,1.68575 -1.19384,2.1048 -4.52479,2.7528 -0.86165,0.16763 -0.89308,0.48382 -0.22375,2.24534 0.33656,0.8858 0.40192,1.32543 0.19792,1.32343 -0.54438,-0.004 -2.9297,-1.50966 -3.72794,-2.35231 -0.76844,-0.8112 -0.80682,-0.82069 -3.43959,-0.82269 -5.65997,-0.005 -11.58601,-0.83112 -13.90199,-1.9389 -1.73578,-0.83027 -2.19119,-1.84707 -2.0345,-4.5408 0.24086,-4.140818 3.05624,-10.846058 4.99504,-11.896434 0.44516,-0.24117 0.72845,-0.365283 1.18753,-0.392741 z"
       sodipodi:nodetypes="zcssccsssssssssczssssssscscssss" /></g></svg>
