<?xml version="1.0" encoding="UTF-8" standalone="no"?>
<!-- Created with Inkscape (http://www.inkscape.org/) -->

<svg
   viewBox="0 0 163.24234 255.20621"
   version="1.1"
   id="svg1"
   xml:space="preserve"
   xmlns:inkscape="http://www.inkscape.org/namespaces/inkscape"
   xmlns:sodipodi="http://sodipodi.sourceforge.net/DTD/sodipodi-0.dtd"
   xmlns="http://www.w3.org/2000/svg"
   xmlns:svg="http://www.w3.org/2000/svg"><sodipodi:namedview
     id="namedview1"
     pagecolor="#ffffff"
     bordercolor="#000000"
     borderopacity="0.25"
     inkscape:showpageshadow="2"
     inkscape:pageopacity="0.0"
     inkscape:pagecheckerboard="0"
     inkscape:deskcolor="#d1d1d1"
     inkscape:document-units="mm" /><defs
     id="defs1" /><g
     inkscape:label="Vrstva 1"
     inkscape:groupmode="layer"
     id="layer1"
     transform="translate(-91.970659,516.91356)"><g
       id="g35"><path
         id="rect17-1"
         style="fill:#000000;fill-opacity:1;stroke-width:0.7"
         d="m 176.24048,-516.91353 c -5.36748,0 -6.75427,0.22777 -11.2944,1.8557 -3.71021,1.33035 -9.03632,4.52128 -12.3858,7.42074 -4.19311,3.62973 -8.69481,8.89725 -11.0691,12.95114 -1.25369,2.14058 -2.95151,7.13109 -3.59926,10.58075 -0.24592,1.30969 -0.68308,3.50606 -0.97152,4.88084 -1.14189,5.44259 -1.35178,17.04247 -0.38344,21.18062 0.66641,2.84787 2.47353,8.86896 3.19568,10.64638 0.33921,0.83491 0.53642,1.56564 0.43821,1.62419 -0.0982,0.0585 -1.57465,0.0437 -3.28145,-0.0331 l -3.10317,-0.14005 -1.55184,-2.27841 c -1.88995,-2.77516 -3.39949,-5.02585 -4.52686,-6.74998 -1.14052,-1.74422 -2.89788,-6.2174 -3.32848,-8.47235 -0.25279,-1.3238 -0.27999,-2.26565 -0.0977,-3.39772 0.26718,-1.65909 0.33205,-1.8599 2.07326,-6.40633 1.57257,-4.1061 2.39183,-7.35022 2.39262,-9.47797 0.001,-3.67401 -1.56496,-4.67216 -5.21519,-3.32383 -1.17766,0.43501 -1.99867,1.02664 -3.55533,2.56212 -2.01782,1.99034 -2.83044,3.13763 -4.53099,6.39702 -0.49351,0.94589 -1.0142,1.69759 -1.15704,1.67018 -7.28722,-1.3983 -13.29066,-0.97975 -18.077969,1.26039 -3.20003,1.4974 -4.24005,2.67707 -4.24005,4.81004 0,2.81154 2.24238,4.23708 11.906249,7.56905 2.11005,0.72752 4.03341,1.39893 4.27416,1.4919 0.24075,0.093 0.94727,0.90475 1.56993,1.80402 0.62266,0.89928 1.68926,2.2899 2.3704,3.09025 1.9634,2.30709 5.75482,7.10586 7.06882,8.94726 1.25122,1.75342 1.23845,2.15003 -0.0698,2.16163 -1.41404,0.0125 -7.90118,0.56706 -9.65005,0.82475 -4.1718,0.6147 -8.9826,2.81503 -10.974529,5.01985 -1.61683,1.78965 -2.10262,3.16739 -2.09651,5.94331 0.005,2.13259 0.0881,2.54366 0.77205,3.80028 0.96427,1.77167 2.30958,2.8788 5.156269,4.24419 2.70766,1.2987 5.09573,1.82712 9.64902,2.13423 7.19325,0.48518 14.37818,-0.62143 18.91978,-2.91403 0.90133,-0.45498 1.66393,-0.79005 1.69447,-0.74414 0.41208,0.61943 1.0086,2.83497 1.1281,4.18941 0.14166,1.60576 0.0951,1.81395 -0.6749,3.02824 -1.04089,1.64131 -1.08341,2.9177 -0.15038,4.5098 0.79347,1.35396 2.40927,2.88066 3.70055,3.49643 0.50291,0.23982 0.91468,0.52158 0.91468,0.62632 0,0.10474 -0.5456,0.50999 -1.21233,0.90072 -3.04124,1.78228 -9.95775,8.9657 -11.28872,11.72434 -1.67791,3.47775 -0.49707,5.32146 3.55896,5.55625 2.46987,0.14298 2.55411,0.33935 0.90433,2.11305 -1.21825,1.30977 -3.65406,4.92608 -4.66173,6.92103 -1.18858,2.35311 -1.6305,4.06754 -1.77715,6.89363 -0.12051,2.3222 -0.0492,3.14685 0.43357,5.00952 1.275,4.91875 3.55427,8.57275 6.80785,10.91458 1.15065,0.8282 2.42305,1.63156 2.82773,1.78542 0.70989,0.2699 0.72805,0.32395 0.5209,1.53686 -0.60632,3.55014 0.20516,7.82123 2.14457,11.28923 1.37455,2.45792 5.00238,6.19893 6.94738,7.1639 1.44444,0.71662 1.74987,0.76568 4.8488,0.78032 2.64318,0.0125 3.4866,-0.0766 4.20078,-0.4439 l 0.89349,-0.45992 1.03197,1.12137 c 0.56758,0.61656 1.0966,1.41852 1.17564,1.78232 0.079,0.36381 0.30078,1.19724 0.49248,1.85209 0.1917,0.65484 0.48993,1.84547 0.66301,2.64583 0.57264,2.64789 1.36798,5.36921 2.93935,10.06037 0.85422,2.55016 1.89938,5.82438 2.32286,7.27604 3.31566,11.36603 4.27209,14.7333 4.27209,15.04249 0,0.19572 -0.85359,1.6524 -1.89704,3.23702 -8.89195,13.50364 -12.56726,21.21313 -12.8509,26.95804 -0.1071,2.1691 -0.0622,2.46218 0.5023,3.28714 1.22464,1.78969 2.71087,1.7065 6.88123,-0.38448 1.29748,-0.65053 2.44344,-1.18285 2.54662,-1.18287 0.10317,-2e-5 0.14538,1.01128 0.0941,2.24741 -0.0893,2.15312 -0.0671,2.25817 0.52916,2.497 1.39336,0.55813 3.62875,0.32124 5.78311,-0.61236 2.76356,-1.1976 5.61673,-3.43915 9.09867,-7.14789 1.58516,-1.68839 2.97423,-3.06958 3.08664,-3.06958 0.36024,0 7.15031,3.70379 10.56783,5.76451 5.74624,3.46492 9.38372,4.75494 10.29911,3.65197 0.17038,-0.2053 0.37612,-0.78311 0.45734,-1.28364 l 0.14779,-0.91002 2.94814,0.0269 c 2.56559,0.0231 3.09048,-0.0494 4.04058,-0.55759 1.86649,-0.99841 1.87952,-1.87742 0.0915,-6.07973 -1.39854,-3.28689 -3.09277,-5.96908 -7.93026,-12.55272 -4.30278,-5.85591 -7.06068,-10.31895 -7.80831,-12.63541 -0.62438,-1.93459 -0.4405,-3.87203 0.89658,-9.43611 0.5962,-2.48105 1.19565,-5.57667 1.33171,-6.87917 0.13607,-1.3025 0.49543,-4.63053 0.79891,-7.39541 0.30349,-2.7649 0.799,-7.28928 1.10123,-10.05417 0.30223,-2.7649 0.56921,-5.04428 0.59324,-5.06532 0.024,-0.0211 1.05596,-0.24344 2.29289,-0.49403 2.66393,-0.53967 6.31237,-1.77624 7.83621,-2.65617 2.00529,-1.15794 3.62913,-3.24928 4.62607,-5.95778 0.7083,-1.92429 1.05922,-2.5326 1.65313,-2.86597 1.90875,-1.07141 3.12698,-2.00496 5.13819,-3.93671 2.8166,-2.70532 3.77116,-4.64025 3.96823,-8.04499 0.16033,-2.77013 -0.12762,-4.07257 -1.58129,-7.15925 -1.21629,-2.5826 -1.23481,-2.38557 0.45992,-4.82503 0.97808,-1.40788 2.13304,-4.53356 2.3983,-6.49004 0.23728,-1.75006 -0.21326,-3.02172 -2.15904,-6.09059 -1.39197,-2.19539 -1.67105,-2.80332 -1.38751,-3.02359 0.94249,-0.7322 2.09517,-2.60831 2.45773,-4.00027 0.53328,-2.0474 0.51289,-2.45124 -0.22583,-4.56561 -1.71349,-4.90439 -8.53261,-12.86637 -13.35319,-15.59078 l -1.41335,-0.79892 0.76429,-0.45165 c 0.42037,-0.24831 1.05621,-0.87867 1.41336,-1.40095 0.58961,-0.86223 0.64947,-1.2097 0.64957,-3.77599 v -2.82619 l 2.18539,-2.79983 c 1.20199,-1.53978 2.29514,-2.86708 2.4288,-2.94969 0.13366,-0.0826 1.6871,0.32942 3.45198,0.91519 6.29177,2.08827 10.95009,2.7913 17.02067,2.56987 4.35711,-0.15894 5.52333,-0.41913 8.19691,-1.82935 3.60876,-1.90347 5.82222,-5.10704 5.7857,-8.37313 -0.0633,-5.66235 -4.48382,-10.42975 -11.15591,-12.03131 -2.08541,-0.50057 -7.44193,-1.04441 -8.03724,-0.81597 -1.15767,0.44425 0.26348,-1.37854 3.54759,-4.54907 3.56966,-3.44622 5.84096,-4.87861 13.11651,-8.27392 2.74952,-1.28311 5.56957,-2.60493 6.2668,-2.93728 2.1238,-1.01234 2.59968,-2.83491 1.35599,-5.19297 -1.49228,-2.82941 -3.5086,-4.18708 -8.79067,-5.9185 -2.99519,-0.98179 -4.59992,-1.35065 -6.85023,-1.57562 -4.05908,-0.40578 -4.32699,-0.52656 -5.21364,-2.343 -3.03761,-6.22302 -6.08675,-9.3183 -9.17825,-9.3183 -1.4129,0 -2.27892,0.54348 -2.78122,1.74563 -0.53971,1.29171 -0.46123,2.66802 0.43046,7.52461 0.67341,3.66775 0.84129,5.46298 1.06247,11.36726 0.14446,3.8563 0.32488,7.20888 0.40101,7.45019 0.084,0.26629 -0.63646,1.61832 -1.83297,3.43959 -1.08429,1.65044 -2.47696,3.95335 -3.0949,5.11751 -1.73548,3.26956 -1.28908,3.04271 -5.98413,3.04271 -3.79314,0 -4.05297,-0.0314 -3.82302,-0.46302 0.13568,-0.25466 0.55305,-1.83224 0.92759,-3.50573 2.25335,-10.06819 2.7319,-16.92032 1.89343,-27.12599 -0.6999,-8.51897 -1.13935,-10.97638 -2.97863,-16.66255 -1.27082,-3.92872 -4.86447,-8.68582 -10.34511,-13.69477 -3.61341,-3.30244 -9.30828,-6.38945 -14.33143,-7.768 -2.60877,-0.71596 -3.08457,-0.76223 -7.80521,-0.76223 z m 0.39688,1.88567 c 3.98122,0.0227 7.36536,0.63175 7.61142,1.36994 0.27833,0.83499 -5.78499,4.84472 -7.2564,4.79868 -0.26793,-0.008 -1.14083,-0.31141 -1.93942,-0.67386 -2.41629,-1.09668 -3.94922,-2.21993 -4.64158,-3.40135 -0.35938,-0.61323 -0.65319,-1.18571 -0.65319,-1.27175 0,-0.43601 3.39593,-0.84155 6.87917,-0.82166 z m -9.31313,1.48673 c 0.34635,0.0651 0.52413,0.35634 0.81856,0.92708 0.86678,1.68022 2.62409,3.19128 5.09219,4.37854 l 2.31046,1.11156 0.0165,3.12643 c 0.0175,3.24949 0.24171,4.14961 1.03198,4.14961 0.94083,0 1.10174,-0.54405 1.10174,-3.72225 v -3.08767 l 2.40967,-1.23145 c 2.87156,-1.46771 5.37642,-3.33327 5.94073,-4.42453 0.47621,-0.92089 0.58671,-0.90613 3.468,0.46612 6.24988,2.97658 13.48371,9.94873 16.43053,15.83624 2.17897,4.35346 3.40144,11.17409 4.01319,22.39347 0.19428,3.56289 0.16617,5.78384 -0.11886,9.39271 -0.73382,9.291 -2.31899,15.91631 -5.34024,22.32111 -2.57285,5.45426 -4.10283,7.81517 -7.40833,11.43186 -0.62605,0.68499 -1.13844,1.36088 -1.13844,1.50224 0,0.51924 0.85358,1.08882 1.63195,1.08882 1.18844,0 3.59082,0.74699 5.30613,1.65003 4.68602,2.46698 7.27924,8.73299 4.60334,11.12335 -0.58203,0.51992 -1.11495,0.67686 -2.651,0.78187 -1.33404,0.0912 -1.77539,0.7144 -1.2144,1.7141 0.27683,0.49332 1.0609,1.00119 2.54817,1.65107 2.78956,1.21894 3.87663,1.968 6.25129,4.30568 3.52892,3.47393 6.88452,7.99975 7.95301,10.72751 1.01993,2.60379 0.084,5.49538 -2.26963,7.01249 -0.95311,0.61437 -0.9463,1.55367 0.0202,2.79983 0.89246,1.1507 2.69141,4.09249 3.15484,5.15886 0.83159,1.9135 -0.23364,5.67911 -2.44171,8.63048 -0.80338,1.07384 -1.46089,2.09459 -1.46089,2.26859 0,0.174 0.59016,1.55205 1.31155,3.06235 1.66446,3.48468 1.99377,4.95381 1.63142,7.28121 -0.43918,2.82095 -1.32632,4.29669 -4.0504,6.73912 -1.31428,1.17839 -3.02443,2.43326 -3.80028,2.78846 -1.40545,0.64343 -1.4144,0.65492 -2.37143,3.12487 -1.8555,4.78877 -2.89954,5.76872 -7.82795,7.34323 -4.23632,1.3534 -6.1122,1.63469 -9.41648,1.41335 l -2.77192,-0.18552 -1.89652,1.98437 c -2.00465,2.09766 -3.15417,2.76204 -5.80998,3.35639 -1.89414,0.42389 -4.23122,0.0728 -8.08117,-1.21388 -3.34117,-1.11662 -4.31261,-1.15461 -5.42964,-0.21136 -1.14568,0.96744 -3.31564,1.94219 -4.27157,1.91875 -0.43656,-0.0107 -1.47917,-0.18554 -2.31717,-0.38861 -1.83244,-0.44405 -2.70371,-0.87352 -3.80287,-1.87482 -0.78652,-0.71649 -2.51877,-2.80911 -3.66955,-4.43281 -0.29104,-0.41065 -0.72543,-0.99913 -0.96531,-1.30793 -0.47987,-0.61774 -0.30275,-0.66607 -3.00344,0.81908 -0.59101,0.325 -1.42268,0.42923 -3.25561,0.40772 -3.30588,-0.0388 -4.59921,-0.66758 -7.31532,-3.55482 -2.32657,-2.47317 -3.06648,-3.64298 -4.00905,-6.33966 -0.93932,-2.68737 -1.10749,-5.30816 -0.49765,-7.75715 0.53567,-2.15115 0.43034,-2.79542 -0.45837,-2.80397 -1.85313,-0.0178 -5.76712,-2.89682 -7.24452,-5.32887 -1.37067,-2.25638 -2.66308,-5.69536 -3.01635,-8.02587 -0.37477,-2.4724 0.01,-5.38237 0.99322,-7.52098 1.06438,-2.31386 3.19141,-5.70331 4.56045,-7.26778 1.8209,-2.08086 2.38383,-2.94268 2.38383,-3.64887 0,-1.53615 -1.45435,-2.32886 -4.27778,-2.33164 -2.03902,-0.002 -2.3368,-0.15402 -2.3368,-1.19063 0,-1.37838 1.86365,-3.85516 5.97328,-7.93905 3.07254,-3.0533 4.07232,-3.87735 5.69009,-4.68963 1.07944,-0.54198 2.27669,-1.0472 2.66082,-1.12242 0.7228,-0.14155 1.0998,-0.68762 0.87643,-1.26969 -0.0706,-0.18405 -1.16122,-0.86543 -2.42363,-1.51463 -2.76566,-1.42226 -3.57911,-2.0773 -4.47104,-3.59927 l -0.68006,-1.16013 0.57206,-0.92553 c 0.87762,-1.42003 2.86228,-3.01438 6.27403,-5.04052 2.75662,-1.63708 6.20378,-4.28243 7.56956,-5.80894 1.4464,-1.61661 1.93512,-4.50104 1.04284,-6.15312 -0.25443,-0.4711 -1.61674,-2.67375 -3.02721,-4.89479 -3.21977,-5.07009 -4.64708,-8.05375 -6.15466,-12.86485 -2.19121,-6.99274 -2.33435,-8.04353 -2.19522,-16.12356 0.1172,-6.80604 0.15706,-7.24304 1.08676,-11.95896 1.27205,-6.45251 2.04948,-9.10981 3.59978,-12.30312 1.81795,-3.74464 4.00873,-6.58448 8.33231,-10.80089 4.95215,-4.82942 9.94554,-8.20631 14.4017,-9.73946 0.96861,-0.33325 1.48352,-0.49404 1.82986,-0.42892 z m 6.73913,15.80989 c -0.92198,0 -2.10983,0.18119 -2.63964,0.40256 -1.59066,0.66463 -3.16709,2.14634 -3.92017,3.68556 l -0.7028,1.43713 -0.0563,9.47435 c -0.0721,12.08537 0.14003,13.26308 2.92541,16.24087 1.7718,1.89422 2.96833,2.40852 5.35419,2.30219 l 1.95854,-0.0873 1.418,-1.56062 c 1.72519,-1.89835 2.51398,-3.47085 3.38274,-6.74275 1.40025,-5.27354 1.59195,-13.54952 0.40152,-17.34674 -1.64671,-5.25272 -4.30266,-7.80521 -8.12146,-7.80521 z m 50.21915,13.06845 c 1.17993,-0.13737 3.5355,1.46292 4.81573,3.40962 0.49963,0.75971 1.52876,2.57193 2.28668,4.02714 0.75791,1.45521 1.61231,2.84651 1.89859,3.0918 0.57719,0.49453 2.03119,0.81016 5.81154,1.26091 2.6056,0.31069 7.96389,1.86513 9.9875,2.89749 1.62925,0.83118 3.10551,2.25634 3.77961,3.64888 l 0.58498,1.20871 -0.63562,0.49971 c -0.66643,0.52397 -2.7927,1.5954 -9.33896,4.70514 -4.97747,2.3645 -7.83746,4.26235 -10.97763,7.28482 -3.97462,3.82564 -9.83501,11.04023 -13.65446,16.80983 -0.99854,1.50837 -7.44378,10.10228 -8.63255,11.51041 l -0.89452,1.05937 -2.32492,-2.33268 c -2.31922,-2.327 -2.32384,-2.33469 -1.85208,-2.94142 0.26012,-0.33454 2.89123,-3.57111 5.84718,-7.19284 5.81878,-7.12935 6.83983,-8.55816 9.46248,-13.24519 0.94917,-1.69632 2.50077,-4.23796 3.44836,-5.64772 l 1.7229,-2.56315 -0.27647,-7.38146 c -0.26336,-7.02608 -0.59564,-10.30315 -1.47847,-14.57999 -0.51479,-2.49387 -0.51823,-4.93633 -0.007,-5.36039 0.114,-0.0946 0.25881,-0.14936 0.42737,-0.16899 z m -98.4343,0.0703 c 0.8099,-0.0737 0.91426,0.42756 0.88212,2.0221 -0.0406,2.01659 -0.80141,4.77516 -2.60449,9.44542 -1.66344,4.30855 -2.10665,6.29391 -1.93374,8.66304 0.24028,3.29217 2.72724,9.46334 5.14543,12.76821 3.0102,4.11399 9.69465,14.03548 13.06897,19.3983 1.08205,1.71971 2.36863,3.60149 2.85925,4.18114 1.03978,1.22846 1.19211,1.0121 -2.16317,3.06855 -1.13566,0.69605 -2.76232,1.70282 -3.61477,2.23707 -0.85244,0.53426 -1.61976,0.90102 -1.70532,0.81545 -0.0856,-0.0856 -0.15555,-0.43256 -0.15555,-0.77153 0,-0.85471 -0.927,-3.50638 -2.14974,-6.14897 -1.53879,-3.32565 -3.6048,-6.53143 -7.51943,-11.66751 -0.49911,-0.65484 -2.5191,-3.39328 -4.48862,-6.08542 -1.96952,-2.69212 -4.88754,-6.5475 -6.48436,-8.56743 -1.59681,-2.01992 -3.16548,-4.19806 -3.48609,-4.84002 -0.32061,-0.64196 -0.7084,-1.26897 -0.86145,-1.39371 -0.15304,-0.12475 -2.65926,-1.056 -5.56968,-2.06964 -2.91042,-1.01364 -6.220609,-2.22988 -7.355629,-2.70268 -2.22123,-0.92528 -3.88916,-2.25959 -3.88916,-3.1104 0,-0.91004 1.0142,-1.87223 2.98948,-2.83652 2.78866,-1.36137 4.627409,-1.76877 8.680599,-1.92392 3.03248,-0.11608 4.06261,-0.0456 6.53397,0.44649 1.61371,0.32132 3.15785,0.51312 3.43132,0.42633 0.29046,-0.0922 0.90311,-1.01258 1.47329,-2.2133 2.21192,-4.65799 5.27675,-8.13069 7.85069,-8.89507 0.44791,-0.13301 0.79611,-0.22141 1.06608,-0.24598 z m 86.71667,39.70456 c 1.55306,-0.0476 2.96623,-0.0562 2.96623,0.0129 0,0.21914 -1.21103,1.82277 -3.30006,4.37131 -1.16828,1.42524 -2.54061,3.12274 -3.04994,3.77186 -3.10786,3.96084 -6.25502,7.77964 -6.48229,7.86567 -0.14552,0.0551 -0.8833,-0.0914 -1.63969,-0.32556 -0.7564,-0.23417 -1.43774,-0.48792 -1.51361,-0.56379 -0.0759,-0.0759 0.46092,-0.87793 1.19269,-1.78232 1.74742,-2.15962 4.35351,-6.62253 5.93504,-10.16372 1.16868,-2.61679 1.33296,-2.85 2.0867,-2.96623 0.55896,-0.0862 2.25188,-0.17259 3.80493,-0.22014 z m 19.66547,0.45062 c 2.45809,0.10646 5.31836,0.5731 7.37784,1.24695 2.14918,0.7032 4.77877,2.53855 5.95209,4.15427 1.02896,1.4169 1.98541,4.09179 1.98541,5.55211 0,3.06837 -3.60114,6.53134 -7.87548,7.57318 -1.53728,0.3747 -6.67649,0.69869 -8.13181,0.51263 -0.43656,-0.0558 -1.91546,-0.23199 -3.2861,-0.39119 -3.62293,-0.4208 -11.66286,-2.64018 -11.66286,-3.21944 0,-0.1384 0.33892,-0.68517 0.75345,-1.21543 0.41453,-0.53027 2.16375,-2.98834 3.8871,-5.4622 1.72335,-2.47384 3.25966,-4.62653 3.41374,-4.78368 0.15408,-0.15714 0.8754,-1.07026 1.60301,-2.02934 l 1.32291,-1.74408 2.38125,-0.17415 c 0.68545,-0.0502 1.46009,-0.0551 2.27945,-0.0196 z m -96.83492,0.68109 h 3.02101 3.02048 l 0.57155,1.12448 c 0.31445,0.61846 1.39209,2.41247 2.39416,3.98684 3.68287,5.78617 4.05802,7.00903 2.66909,8.69301 -0.75129,0.91089 -1.42539,1.52904 -1.65519,1.51825 -0.0728,-0.003 -1.14432,-1.6052 -2.38125,-3.55999 -1.23693,-1.95479 -3.46193,-5.40118 -4.9444,-7.65845 z m -15.28537,1.33325 c 2.16318,-0.0919 2.33124,0.53516 4.82968,3.89227 3.81172,5.12176 5.45373,7.64788 6.29057,9.67693 l 0.41703,1.01183 -2.01331,0.93017 c -4.8295,2.23137 -12.47215,3.20658 -19.2748,2.45928 -3.05375,-0.33547 -5.50516,-0.95279 -7.34425,-1.8495 -3.498719,-1.70591 -4.678129,-3.28714 -4.688599,-6.28644 -0.0128,-3.67113 2.439499,-6.1706 7.813989,-7.96488 2.31415,-0.77259 3.70046,-0.9762 10.98124,-1.61283 1.32471,-0.11583 2.26739,-0.22621 2.98845,-0.25683 z m 70.67011,106.02247 1.84278,0.17157 c 1.01359,0.0942 1.89676,0.22503 1.96267,0.29094 0.0659,0.0659 -0.13294,2.41428 -0.44183,5.2188 -0.3089,2.80453 -0.75043,6.88537 -0.98134,9.06818 -0.95625,9.03976 -1.20775,10.75084 -2.09961,14.28285 -0.51383,2.03487 -1.0762,4.68087 -1.24954,5.87974 -0.37065,2.56355 -0.12557,3.88712 1.26401,6.82491 1.03865,2.19589 5.47831,8.95368 8.42274,12.82041 3.30259,4.33708 5.11228,7.23087 6.38462,10.20971 0.64878,1.51895 1.17977,2.93724 1.17977,3.15174 0,0.66371 -0.93888,0.93899 -3.09128,0.90641 -3.63611,-0.0551 -3.45248,0.0819 -4.5868,-3.42046 -0.54417,-1.68018 -1.30721,-3.68151 -1.6955,-4.4478 -0.61867,-1.22086 -0.79469,-1.38331 -1.42111,-1.31103 -0.92374,0.1066 -1.05116,0.89409 -0.36328,2.24534 0.82368,1.61804 2.69131,7.48816 2.69131,8.45944 0,1.18422 -0.36215,1.14692 -3.30678,-0.339 -1.30926,-0.66068 -3.92863,-2.12948 -5.82083,-3.2644 -1.8922,-1.13493 -4.44308,-2.56511 -5.66891,-3.1781 -1.22583,-0.61299 -2.55119,-1.35316 -2.94504,-1.64435 l -0.71572,-0.52916 -0.18086,-6.65438 c -0.12508,-4.61297 -0.054,-9.37351 0.23151,-15.51791 0.22652,-4.87495 0.41463,-10.88761 0.41806,-13.36146 0.006,-4.13615 0.30313,-11.20566 0.74466,-17.7028 l 0.17828,-2.62154 2.127,-0.56172 c 2.73574,-0.72273 4.26713,-1.63591 5.84823,-3.48661 z m -20.04529,2.97501 3.14968,1.02888 c 1.73235,0.56596 3.64941,1.1113 4.2602,1.21181 l 1.11053,0.18294 -0.13023,4.146 c -0.0715,2.28046 -0.24383,6.12895 -0.38292,8.55193 -0.13908,2.42298 -0.25559,6.8283 -0.2589,9.78959 -0.003,2.96129 -0.17122,8.95605 -0.37362,13.32166 -0.21941,4.73255 -0.31065,10.50147 -0.22531,14.2875 l 0.14315,6.35 -3.67161,3.73518 c -3.84985,3.91623 -5.79894,5.41875 -8.5075,6.55877 -1.6872,0.71013 -2.34918,0.81985 -2.88509,0.47904 -0.38653,-0.24581 -0.0479,-3.36047 0.72037,-6.62699 0.2851,-1.21204 0.51831,-2.38201 0.51831,-2.60036 0,-0.21834 0.30586,-1.1614 0.67955,-2.09547 0.76361,-1.90873 0.68091,-2.75746 -0.2682,-2.75746 -0.33618,0 -0.72786,0.14883 -0.87075,0.33073 -0.46816,0.59598 -1.13829,2.66504 -1.73374,5.35471 l -0.58498,2.64273 -3.50315,1.78904 c -3.87387,1.97814 -4.70392,2.15895 -5.10253,1.11053 -0.39777,-1.04622 -0.30268,-2.17465 0.37724,-4.48086 2.02485,-6.86813 4.5578,-11.68999 12.26437,-23.34638 l 2.4908,-3.76721 -0.41651,-1.25988 c -0.37029,-1.11918 -1.12138,-3.68983 -2.84065,-9.72653 -1.19651,-4.2012 -3.16905,-10.50013 -3.94188,-12.58735 -0.8867,-2.39476 -2.89957,-9.58156 -2.89957,-10.35234 0,-0.4387 0.0615,-0.43548 0.99219,0.0481 0.54571,0.28354 2.02535,0.7602 3.28817,1.05937 1.88282,0.44606 2.51786,0.49416 3.52847,0.26768 1.38764,-0.31098 3.03711,-1.0949 4.25504,-2.0221 z" /><path
         style="fill:#e5e5e5;fill-opacity:1;stroke-width:4.7192"
         d="m 622.27297,-1939.3811 c -31.31793,13.2116 -56.92573,37.9405 -76.79862,65.0823 -20.54113,33.3153 -24.66144,74.0642 -25.15012,112.4004 -0.57147,40.3631 16.09422,78.4566 37.67466,111.7419 7.41153,9.3421 9.48436,23.6263 -0.10103,32.2119 -15.50605,15.3009 -37.17345,23.8087 -51.07017,40.6674 -2.11456,12.7685 13.67931,18.4905 22.0634,24.5648 3.83636,1.6166 4.89321,5.5897 0.0453,6.5218 -20.01903,9.242 -35.19879,26.6825 -48.68372,43.6704 -3.56128,3.6315 -6.57582,12.2941 0.92323,13.2144 5.95295,2.738 17.86027,-0.1193 19.35643,8.0861 -6.56138,16.2346 -21.08216,28.388 -26.24406,45.5761 -8.16167,21.0701 0.24055,45.785 14.27345,62.3335 6.45448,6.6811 14.29979,13.2716 23.52315,14.6253 -0.16314,12.8871 -3.43782,26.5939 1.90916,39.2006 5.87904,15.6633 18.16438,29.7193 33.3233,36.8246 10.9472,3.4543 22.47047,0.1297 32.23285,-5.1004 10.63492,13.8178 22.61755,33.7187 43.06073,30.7 10.69651,0.2687 18.12425,-11.7361 29.25762,-7.0862 18.07099,5.7324 40.33784,11.0606 56.17406,-2.9997 5.67631,-5.9841 11.95108,-12.3843 21.05655,-10.4828 23.01483,-0.3807 52.34759,-3.8092 63.36827,-27.359 5.90794,-20.7145 31.44039,-25.8485 38.93235,-45.7329 7.13313,-16.0197 -1.50903,-32.9521 -8.43795,-47.3076 8.15671,-13.8843 22.21056,-32.138 11.10312,-48.3144 -2.96512,-6.9391 -10.62374,-14.1808 -10.44119,-21.3249 13.6152,-7.7694 14.44334,-27.1552 5.18401,-38.7268 -13.30946,-22.0013 -32.76367,-39.9017 -55.27869,-52.1048 -4.4159,-3.7723 0.31133,-7.7749 4.93316,-6.602 14.69175,-3.6981 11.74188,-24.1756 4.12143,-33.2954 -8.99455,-13.3523 -25.0506,-17.5153 -39.34692,-22.1923 12.8446,-19.0735 27.48662,-37.4014 35.01995,-59.5325 20.85769,-53.1622 19.39718,-112.2056 10.1346,-167.6721 -8.15852,-42.4642 -43.23183,-74.9508 -81.24056,-92.3681 -8.26996,5.2529 -15.69363,13.7993 -25.3102,18.1477 -10.43097,2.8054 -13.48936,10.8388 -11.61892,20.7672 -0.63182,2.3396 0.83313,11.6871 -3.20168,10.2774 -4.0025,-8.5868 1.71102,-20.8827 -4.89237,-27.5568 -12.27451,-4.9282 -21.46305,-15.0772 -30.6461,-23.5498 -3.02434,0.1042 -6.18998,1.9759 -9.20847,2.6947 z m 34.7482,60.3756 c 18.18789,-1.261 29.1989,17.0734 30.90549,33.069 3.47998,28.8581 3.38667,61.5319 -15.41617,85.355 -5.72151,6.3855 -17.09688,4.9405 -24.21294,1.8673 -12.49235,-8.2566 -16.42562,-23.2521 -16.05415,-37.4498 0.17331,-22.4231 -2.15936,-45.2942 1.36263,-67.4602 4.22995,-9.0499 13.05191,-15.9497 23.41514,-15.3813 z"
         id="path17"
         transform="scale(0.26458333)" /><path
         style="fill:#c9c9c9;fill-opacity:1;stroke-width:4.7192"
         d="m 848.52998,-1833.2099 c -8.95941,2.5981 -4.05434,15.3049 -3.91609,21.963 5.06051,27.1851 5.05664,54.8334 6.32693,82.3513 -21.36196,38.2436 -47.95044,72.9436 -75.04274,107.2163 -6.24656,6.7609 5.57524,12.6287 8.93266,17.6528 2.93768,5.5028 9.57405,6.7009 11.84693,-0.074 30.52167,-38.1578 55.3538,-81.7825 92.81924,-113.828 20.93996,-16.4639 47.27461,-24.0336 68.43382,-39.8486 0.30496,-9.1789 -10.28823,-15.3358 -17.04313,-19.9765 -16.8838,-8.3206 -35.96206,-9.6305 -53.85728,-14.1969 -13.67584,-8.598 -15.94977,-27.4855 -29.21581,-36.9116 -2.64873,-2.1406 -5.73513,-4.3335 -9.28453,-4.3479 z"
         id="path18"
         transform="scale(0.26458333)" /><path
         style="fill:#c9c9c9;fill-opacity:1;stroke-width:4.7192"
         d="m 475.82117,-1832.9208 c -19.15369,3.6875 -28.22908,23.7809 -37.35763,38.8871 -3.01159,7.6363 -13.4299,0.7735 -19.14392,1.613 -21.96594,-2.4492 -47.74848,-1.1612 -64.85588,14.4059 -4.76632,8.8723 8.18467,13.7131 14.27693,16.6947 16.08383,7.48 33.59998,11.6678 49.21676,20.1333 27.83963,40.1799 60.71148,77.2693 84.52237,119.9535 4.8727,8.7164 6.29183,19.0622 11.25293,27.5191 10.33833,-5.2393 21.67401,-10.8639 30.40032,-18.8443 -2.13252,-10.537 -11.57945,-19.258 -16.56817,-28.9466 -18.57109,-30.9626 -43.08305,-58.9746 -58.37702,-91.4074 -12.21752,-25.7539 1.61372,-53.0972 8.7306,-78.126 0.98753,-6.5888 5.79286,-17.2636 -0.90929,-21.7987 -0.38956,-0.086 -0.7908,-0.1023 -1.188,-0.084 z"
         id="path19"
         transform="scale(0.26458333)" /><path
         style="fill:#aaaaaa;fill-opacity:1;stroke-width:4.7192"
         d="m 662.04144,-1947.1188 c -6.38286,1.5027 -17.87757,-2.8553 -20.85101,4.8217 2.87982,11.5401 16.82383,15.9531 26.61683,20.2761 8.93119,0.9207 15.91264,-8.0213 23.17824,-12.1552 5.53468,-2.2076 7.99253,-9.8983 0.49123,-11.3087 -9.56849,-2.1815 -19.67406,-1.3978 -29.43529,-1.6339 z"
         id="path20"
         transform="scale(0.26458333)" /><path
         style="fill:#aaaaaa;fill-opacity:1;stroke-width:4.7192"
         d="m 871.65248,-1681.5532 c -16.52408,-0.8612 -22.88615,17.3063 -32.08652,27.5958 -6.7487,10.8223 -17.05972,20.5251 -21.11579,32.5255 9.95483,8.1853 24.60355,8.9645 36.8664,12.1552 20.32653,4.6122 42.75746,4.2966 62.09665,-3.881 15.20361,-6.0169 24.54058,-24.5594 15.92481,-39.5385 -10.43861,-22.9851 -39.16673,-28.1059 -61.68555,-28.857 z"
         id="path21"
         transform="scale(0.26458333)" /><path
         style="fill:#aaaaaa;fill-opacity:1;stroke-width:4.7192"
         d="m 803.11762,-1683.2081 c -9.19234,-0.3965 -20.07863,1.4696 -22.8856,11.8627 -7.03726,16.1339 -17.74932,30.3873 -25.89567,45.7677 0.87706,7.6629 12.95493,5.2968 16.43346,0.425 16.01294,-17.5339 31.29777,-36.4632 44.81313,-55.648 -2.47901,-3.5092 -8.62195,-1.8039 -12.46532,-2.4074 z"
         id="path22"
         transform="scale(0.26458333)" /><path
         style="fill:#aaaaaa;fill-opacity:1;stroke-width:4.7192"
         d="m 452.70563,-1673.1954 c -26.51456,2.508 -57.87465,1.2718 -77.38043,22.6731 -9.52832,12.9032 -4.55857,33.6375 11.21461,39.0578 22.67197,12.6111 49.58562,8.1698 74.32507,7.3684 12.42913,-2.0017 25.91623,-4.8554 36.2184,-12.1239 -0.057,-13.2132 -11.66718,-23.4875 -18.09527,-34.2884 -6.65404,-7.3843 -11.30909,-18.1728 -20.42946,-22.6382 -1.94435,-0.2044 -3.90396,-0.087 -5.85292,-0.049 z"
         id="path23"
         transform="scale(0.26458333)" /><path
         style="fill:#aaaaaa;fill-opacity:1;stroke-width:4.7192"
         d="m 521.17778,-1677.9997 c -5.46131,-1.4254 -12.46888,3.5196 -6.21307,8.5918 11.70841,17.0897 21.9483,35.7587 34.73907,51.7455 8.0542,-4.2158 13.23449,-14.911 7.44505,-23.1678 -7.05554,-12.6392 -13.80501,-26.3 -22.88909,-37.1973 -4.36062,0.014 -8.72158,-0.031 -13.08196,0.028 z"
         id="path24"
         transform="scale(0.26458333)" /><path
         style="fill:#c9c9c9;fill-opacity:1;stroke-width:4.7192"
         d="m 723.80364,-1272.6016 c -9.98784,2.8546 -15.04385,14.4622 -25.6936,16.8933 -5.61548,2.2284 -13.64132,2.7813 -13.22481,10.7931 -4.70323,48.163 -4.118,96.7588 -5.47777,145.12 0.44878,20.6852 -1.66547,42.1723 0.91389,62.338 22.69607,11.675 44.15571,26.4004 67.64299,36.2253 7.15734,-2.8047 1.26892,-12.9415 0.48774,-18.3008 -1.8938,-7.8992 -7.05777,-16.859 -7.03395,-24.2234 7.77423,3.8902 7.66071,15.6252 11.92337,22.5975 1.28581,6.6887 6.11341,11.9505 13.32778,11.116 5.51041,0.1228 19.07285,1.1718 16.32197,-7.9537 -14.30618,-39.0039 -48.26309,-67.6448 -62.70981,-106.2966 -4.77997,-19.3765 5.83644,-38.1603 6.4356,-57.5176 3.46897,-28.9781 9.10947,-58.1972 9.92121,-87.2167 -3.28778,-2.9265 -8.59831,-3.3608 -12.83461,-3.5744 z"
         id="path25"
         transform="scale(0.26458333)" /><path
         style="fill:#c9c9c9;fill-opacity:1;stroke-width:4.7192"
         d="m 644.39211,-1260.7843 c -11.20128,8.1243 -25.25641,11.7027 -38.29096,5.9941 -3.52569,-1.8391 -12.67874,-4.1862 -10.40321,2.848 11.34359,41.7526 25.84835,82.6106 37.23918,124.371 -21.20753,34.2605 -46.43408,67.7534 -56.49109,107.4079 -1.92241,5.7735 -1.59374,18.0921 7.58092,15.0574 9.75168,-4.0078 21.79158,-7.4887 28.18109,-16.1896 1.75862,-9.4371 4.2023,-19.9822 9.90467,-27.5157 3.07131,1.3241 -1.18172,8.2917 -1.24026,10.7896 -2.75953,13.5131 -7.77832,27.6937 -6.27447,41.44072 7.95458,4.71699 17.35614,-3.93522 24.35231,-7.58792 12.9254,-9.9348 24.9541,-21.5368 35.29518,-33.9399 1.16166,-70.7428 1.55634,-141.5129 4.46633,-212.2135 -8.87734,-6.4931 -22.13612,-6.5998 -32.68923,-10.6502 z"
         id="path26"
         transform="scale(0.26458333)" /></g></g></svg>
