<svg xmlns="http://www.w3.org/2000/svg" width="267" height="72" viewBox="0 0 267 72"><defs><linearGradient id="2guya" x1="129" x2="129" y1="3" y2="52" gradientUnits="userSpaceOnUse"><stop offset="0" stop-color="#ffeba2"/><stop offset="1" stop-color="#ebbc1e"/></linearGradient><linearGradient id="2guyb" x1="89.17" x2="89.17" y1="3" y2="52" gradientUnits="userSpaceOnUse"><stop offset="0" stop-color="#458ad5"/><stop offset="1" stop-color="#2a6cb8"/></linearGradient><linearGradient id="2guyc" x1="105.3" x2="105.3" y1="4.35" y2="50.53" gradientUnits="userSpaceOnUse"><stop offset="0" stop-color="#f85065"/><stop offset="1" stop-color="#e23e5b"/></linearGradient></defs><g><g><path fill="#173253" d="M19.996 10.071L27.067 3l17.289 17.289L63.644 1l7.071 7.071L51.427 27.36 69.53 45.464l-7.07 7.072L44.355 34.43 6.89 71.895l-7.071-7.07L37.284 27.36z"/></g><g><path fill="url(#2guya)" d="M124 3h10v49h-10z"/></g><g><path fill="url(#2guyb)" d="M82 3h10v49H82z"/></g><g><path fill="url(#2guyc)" d="M103 3h10v49h-10z"/></g><g><path fill="#173253" d="M227.953 47.485c.335.45.502.995.502 1.635 0 .93-.367 1.663-1.101 2.197-.734.535-1.735.803-3.004.803a7.526 7.526 0 0 1-2.157-.307c-.69-.206-1.239-.478-1.648-.818l.854-1.95c.939.63 1.878.945 2.816.945.6 0 1.027-.09 1.281-.27.255-.18.382-.48.382-.9 0-.39-.125-.67-.374-.84-.25-.17-.66-.255-1.229-.255h-1.633v-2.13h1.364c.549 0 .948-.08 1.198-.24.25-.16.375-.415.375-.765 0-.37-.118-.658-.352-.863-.235-.205-.567-.307-.997-.307-.42 0-.864.082-1.333.247a5.58 5.58 0 0 0-1.348.698l-.854-1.95c.42-.34.971-.613 1.655-.818a7.243 7.243 0 0 1 2.09-.307c.75 0 1.406.12 1.97.36.564.24 1.001.58 1.31 1.02.31.44.465.95.465 1.53 0 .56-.142 1.045-.427 1.455-.284.41-.686.71-1.206.9.6.17 1.067.48 1.401.93zm-10.813 2.317h2.265v2.188h-7.29v-2.188h2.265v-5.38l-1.785 1.02-.99-1.979 3.585-2.038h1.95zm-16.725-2.242h2.355c-.06-.88-.44-1.32-1.14-1.32-.71 0-1.115.44-1.215 1.32zm4.59 1.26h-4.56c.08.48.255.825.525 1.035.27.21.655.315 1.155.315.36 0 .725-.06 1.095-.18s.7-.285.99-.495l.675 1.755c-.37.27-.815.482-1.335.637-.52.156-1.04.233-1.56.233-.85 0-1.585-.155-2.205-.465a3.335 3.335 0 0 1-1.433-1.335c-.335-.58-.502-1.26-.502-2.04 0-.74.158-1.403.472-1.988a3.402 3.402 0 0 1 1.32-1.364c.565-.325 1.203-.488 1.913-.488 1.06 0 1.9.338 2.52 1.013.62.675.93 1.597.93 2.767zm-11.855 1.215h3.55V52h-6.635v-1.875l3.31-3.54h-3.31V44.62h6.485v1.755zm-7.84-.082c.23-.256.345-.583.345-.983v-.18h-.24c-.64 0-1.095.058-1.365.172-.27.115-.405.308-.405.578 0 .23.072.42.217.57.145.15.333.225.563.225.36 0 .655-.128.885-.383zm2.047-4.71c.555.534.833 1.367.833 2.497V52h-2.505v-1.035c-.14.36-.375.642-.705.848-.33.204-.725.307-1.185.307-.51 0-.97-.102-1.38-.307a2.4 2.4 0 0 1-.968-.856 2.236 2.236 0 0 1-.352-1.237c0-.53.138-.952.412-1.267.275-.315.713-.543 1.313-.683s1.41-.21 2.43-.21h.405v-.18c0-.37-.085-.627-.255-.772-.17-.145-.47-.218-.9-.218-.34 0-.733.068-1.177.203a6.794 6.794 0 0 0-1.253.517l-.675-1.755c.43-.26.967-.477 1.612-.652a6.83 6.83 0 0 1 1.778-.263c1.16 0 2.018.268 2.572.802zm-7.042 1.372l-1.455.15c-.58.06-.985.215-1.215.465-.23.25-.345.605-.345 1.065V52h-2.67v-7.38h2.535v1.275c.17-.45.45-.793.84-1.028.39-.235.865-.367 1.425-.397l.735-.06zm-11.25-.51c.51 0 .887-.105 1.133-.315.244-.21.367-.535.367-.975 0-.44-.122-.767-.367-.983-.246-.215-.623-.322-1.133-.322h-1.98v2.595zm-4.74-4.68h5.115c1.17 0 2.08.297 2.73.892.65.594.975 1.42.975 2.48 0 1.049-.328 1.873-.983 2.472-.655.6-1.562.9-2.722.9h-2.355v3.821h-2.76zm-8.505 3.21h2.61L155.145 52h-2.205l-3.24-7.365h2.79l1.62 4.155zM263.625 24.66h-1.62l1.47-3.09h2.52zm-.345 6.293c.23-.255.345-.583.345-.983v-.18h-.24c-.64 0-1.095.058-1.365.172-.27.115-.405.308-.405.578 0 .23.072.42.217.57.145.15.333.225.563.225.36 0 .655-.128.885-.383zm2.048-4.71c.555.535.832 1.367.832 2.497V33h-2.505v-1.035c-.14.36-.375.642-.705.848-.33.204-.725.307-1.185.307-.51 0-.97-.102-1.38-.307a2.4 2.4 0 0 1-.968-.856 2.236 2.236 0 0 1-.352-1.237c0-.53.138-.953.412-1.268.276-.315.713-.542 1.313-.682s1.41-.21 2.43-.21h.405v-.18c0-.37-.085-.627-.255-.772-.17-.146-.47-.218-.9-.218-.34 0-.733.067-1.177.202a6.794 6.794 0 0 0-1.253.518l-.675-1.755c.43-.26.968-.478 1.613-.653a6.83 6.83 0 0 1 1.777-.262c1.16 0 2.018.267 2.572.802zm-6.773 6.747h-3.225l-2.475-3.132v3.132h-2.67V22.425h2.67v6.22l2.43-3.013h3.165l-2.88 3.507zm-15.197-.095c-.6-.15-1.104-.37-1.513-.66l.674-1.815c.4.26.854.468 1.363.623.51.155.999.232 1.468.232.29 0 .514-.042.674-.127.16-.085.24-.203.24-.353 0-.13-.058-.23-.173-.3-.115-.07-.347-.145-.696-.225l-1.183-.27c-.75-.17-1.289-.42-1.618-.75-.33-.33-.494-.8-.494-1.41 0-.47.14-.887.419-1.252.28-.365.672-.648 1.176-.848.504-.2 1.076-.3 1.715-.3.529 0 1.056.077 1.58.233a5.409 5.409 0 0 1 1.43.652l-.689 1.74c-.4-.25-.801-.443-1.205-.578a3.624 3.624 0 0 0-1.146-.202c-.29 0-.514.045-.674.135-.16.09-.24.22-.24.39 0 .1.05.183.15.248.1.065.274.127.524.187l1.243.285c.78.17 1.343.432 1.693.787.35.356.524.838.524 1.448 0 .73-.292 1.305-.876 1.725-.584.42-1.386.63-2.404.63a8.07 8.07 0 0 1-1.962-.225zm-2.018-5.28l-1.452.15c-.58.06-.984.215-1.213.465-.23.25-.345.605-.345 1.065V33h-2.665v-7.38h2.53v1.275c.17-.45.45-.792.84-1.028.388-.235.863-.367 1.422-.397l.733-.06zm-7.085 3.532l-.135 1.903c-.32.04-.63.06-.93.06-1.2 0-2.072-.252-2.618-.757-.545-.504-.817-1.286-.817-2.345v-2.427h-1.38v-1.963h1.38v-2.143h2.67v2.143h1.77v1.963h-1.77v2.442c0 .78.365 1.169 1.095 1.169.22 0 .465-.015.735-.045zm-10.005-.194c.23-.255.345-.583.345-.983v-.18h-.24c-.64 0-1.095.058-1.365.172-.27.115-.405.308-.405.578 0 .23.072.42.217.57.145.15.333.225.563.225.36 0 .655-.128.885-.383zm2.048-4.71c.555.535.832 1.367.832 2.497V33h-2.505v-1.035c-.14.36-.375.642-.705.848-.33.204-.725.307-1.185.307-.51 0-.97-.102-1.38-.307a2.4 2.4 0 0 1-.967-.856 2.236 2.236 0 0 1-.353-1.237c0-.53.138-.953.413-1.268.275-.315.712-.542 1.312-.682.6-.14 1.41-.21 2.43-.21h.405v-.18c0-.37-.085-.627-.255-.772-.17-.146-.47-.218-.9-.218-.34 0-.732.067-1.177.202a6.794 6.794 0 0 0-1.253.518l-.675-1.755c.43-.26.968-.478 1.613-.653a6.83 6.83 0 0 1 1.777-.262c1.16 0 2.018.267 2.573.802zm-7.043 1.372l-1.455.15c-.58.06-.985.215-1.215.465-.23.25-.345.605-.345 1.065V33h-2.67v-7.38h2.535v1.275c.17-.45.45-.792.84-1.028.39-.235.865-.367 1.425-.397l.735-.06zm-10.41 3.023c.25-.326.375-.793.375-1.403 0-.58-.122-1.025-.367-1.335-.246-.31-.598-.465-1.058-.465-.47 0-.83.158-1.08.472-.25.315-.375.768-.375 1.358 0 .6.125 1.06.375 1.38.25.32.605.48 1.065.48.46 0 .815-.163 1.065-.487zm1.447-4.736c.49.31.871.752 1.146 1.326.275.574.412 1.241.412 2 0 .76-.137 1.434-.412 2.024-.275.59-.66 1.046-1.154 1.371a3.001 3.001 0 0 1-1.685.487c-.49 0-.936-.1-1.34-.3a2.153 2.153 0 0 1-.922-.824v1.004h-2.622V22.425h2.667v4.061c.22-.32.527-.574.921-.764a2.95 2.95 0 0 1 1.296-.285c.64 0 1.204.155 1.693.465zm-14.902-.267H198L194.715 33h-2.205l-3.24-7.365h2.79l1.62 4.155zm-11.16 2.925h2.355c-.06-.88-.44-1.32-1.14-1.32-.71 0-1.115.44-1.215 1.32zm4.58 1.26h-4.554c.08.48.255.825.525 1.035.27.21.654.315 1.153.315.36 0 .724-.06 1.094-.18.369-.12.699-.285.988-.495l.674 1.755c-.37.27-.814.482-1.333.637a5.422 5.422 0 0 1-1.558.233c-.849 0-1.583-.155-2.202-.465a3.332 3.332 0 0 1-1.43-1.335c-.335-.58-.502-1.26-.502-2.04 0-.74.157-1.403.472-1.988a3.4 3.4 0 0 1 1.318-1.365c.564-.324 1.2-.487 1.91-.487 1.058 0 1.897.338 2.516 1.012.62.675.929 1.598.929 2.768zm-7.55 3.17h-3.225l-2.475-3.132v3.132h-2.67V22.425h2.67v6.22l2.43-3.013h3.165l-2.88 3.507zm-9.46-5.375l-1.452.15c-.58.06-.984.215-1.213.465-.23.25-.345.605-.345 1.065V33h-2.665v-7.38h2.53v1.275c.17-.45.45-.792.84-1.028.388-.235.863-.367 1.422-.397l.733-.06zm-8.225-2.955h-1.62l1.47-3.09h2.52zM161.43 33v-7.38h2.67V33zm-8.213-.54a4.59 4.59 0 0 1-1.875-1.905c-.435-.82-.652-1.77-.652-2.85s.217-2.027.652-2.842a4.601 4.601 0 0 1 1.875-1.898c.815-.45 1.773-.675 2.873-.675.69 0 1.357.105 2.002.315.645.21 1.173.49 1.583.84l-.855 1.95c-.87-.61-1.76-.915-2.67-.915-.86 0-1.517.27-1.972.81-.455.54-.683 1.345-.683 2.415s.228 1.877.683 2.422c.455.545 1.112.818 1.972.818.91 0 1.8-.305 2.67-.915l.855 1.95c-.41.35-.938.63-1.583.84a6.428 6.428 0 0 1-2.002.315c-1.1 0-2.058-.225-2.873-.675zm81.998-22.72h2.9l-1.45-3.39zm4.748 4.25l-.946-2.188h-4.684l-.946 2.188h-2.027l-.488-.56 4.677-10.005h2.192l4.954 10.565zm-9.091-.56l-.262.56h-2.52l-4.26-4.78v4.78h-2.76V3.425h2.76v4.54l4.14-4.54h3.225l-4.665 5.02zm-17.377.56V5.658h-3.165V3.425h9.12v2.233h-3.165v8.332zm-10.625-.53a4.592 4.592 0 0 1-1.877-1.905c-.435-.82-.653-1.77-.653-2.85s.218-2.027.653-2.842a4.604 4.604 0 0 1 1.877-1.898c.816-.45 1.775-.675 2.876-.675.69 0 1.359.105 2.005.315.645.21 1.174.49 1.584.84l-.856 1.95c-.87-.61-1.762-.915-2.673-.915-.86 0-1.52.27-1.975.81-.455.54-.683 1.345-.683 2.415s.228 1.878.683 2.423c.456.545 1.114.817 1.975.817.911 0 1.802-.305 2.673-.915l.856 1.95c-.41.35-.939.63-1.584.84a6.441 6.441 0 0 1-2.005.315c-1.101 0-2.06-.225-2.876-.675zm-8.316-10.935h-1.624L194.494.17h2.391zm-2.239 7.215h2.91l-1.455-3.39zm4.748 4.25l-.946-2.188h-4.684l-.946 2.188h-2.777l4.94-10.565h2.19l4.955 10.565zm-13.05-10.565h2.577V13.99h-2.038l-4.825-6.04v6.04h-2.562V3.425h2.008l4.84 6.04zM172.005 13.99V3.425h2.76V13.99zM166.185.17h1.92l-2.055 2.355h-1.47L162.525.17h1.92l.87 1.17zm.653 7.515c.265-.19.397-.5.397-.93 0-.44-.133-.757-.398-.953-.264-.194-.702-.292-1.312-.292h-1.92v2.46h1.92c.61 0 1.048-.095 1.313-.285zm3.592 6.305h-3.03l-1.83-3.372c-.23-.39-.595-.584-1.095-.584h-.84v3.956h-2.715V3.425h5.04c1.28 0 2.242.277 2.887.832.645.554.968 1.356.968 2.405 0 .8-.22 1.476-.66 2.03-.44.555-1.06.927-1.86 1.117.61.13 1.095.524 1.455 1.184zm-17.085 0V5.658h-3.165V3.425h9.12v2.233h-3.165v8.332z"/></g></g></svg>