<svg width="1015" height="1199" viewBox="0 0 1015 1199" fill="none" xmlns="http://www.w3.org/2000/svg">
<g opacity="0.6" filter="url(#filter0_d_543_4667)">
<path d="M175.465 1125.04C121.186 985.095 102.34 755.28 68.0619 651.72C54.0312 609.331 13.3356 575.753 6.87691 530.909C-22.1287 329.515 268.615 128.579 303.84 89C342.999 45 366.001 31.5001 399.999 26.5C433.998 21.5 452.496 7.99998 540.998 5.49999C629.5 3.00001 681.5 -12.5 731 26.5C780.5 65.5 776.23 156.435 826.615 181.467C877 206.5 956.879 215.424 997.153 400.577C1037.43 585.73 982.543 726.539 853.176 818.214C723.808 909.89 264.741 1355.21 175.465 1125.04Z" fill="url(#paint0_linear_543_4667)"/>
</g>
<defs>
<filter id="filter0_d_543_4667" x="0.847656" y="0.366516" width="1013.29" height="1197.95" filterUnits="userSpaceOnUse" color-interpolation-filters="sRGB">
<feFlood flood-opacity="0" result="BackgroundImageFix"/>
<feColorMatrix in="SourceAlpha" type="matrix" values="0 0 0 0 0 0 0 0 0 0 0 0 0 0 0 0 0 0 127 0" result="hardAlpha"/>
<feOffset dy="4"/>
<feGaussianBlur stdDeviation="2"/>
<feComposite in2="hardAlpha" operator="out"/>
<feColorMatrix type="matrix" values="0 0 0 0 0 0 0 0 0 0 0 0 0 0 0 0 0 0 0.25 0"/>
<feBlend mode="normal" in2="BackgroundImageFix" result="effect1_dropShadow_543_4667"/>
<feBlend mode="normal" in="SourceGraphic" in2="effect1_dropShadow_543_4667" result="shape"/>
</filter>
<linearGradient id="paint0_linear_543_4667" x1="-206.469" y1="419.38" x2="753.739" y2="-95.848" gradientUnits="userSpaceOnUse">
<stop stop-color="#3772FF"/>
<stop offset="1" stop-color="#6240EB"/>
</linearGradient>
</defs>
</svg>
