<svg width="1184" height="1003" viewBox="0 0 1184 1003" fill="none" xmlns="http://www.w3.org/2000/svg">
<g opacity="0.6" filter="url(#filter0_d_539_4663)">
<path d="M309.973 728.329C265.628 583.829 170.258 514.634 96.0515 486.677C56.1269 471.636 15.2671 446.925 7.68282 400.985C-22.8872 215.816 183.824 99.4172 318.329 60.6828C330 57.3217 341.918 56.3022 353.739 56.9946L648.372 74.2519C672.584 75.67 696.919 69.0775 719.594 57.7012C827.198 3.71348 1014.22 -47.5404 1110.52 81.1819C1244.94 260.853 1135.83 316.997 1162.22 511.707C1188.61 706.416 853.324 864.169 707.306 956.802C561.287 1049.43 384.558 971.373 309.973 728.329Z" fill="url(#paint0_linear_539_4663)"/>
</g>
<defs>
<filter id="filter0_d_539_4663" x="0.640625" y="0.538818" width="1182.54" height="1002.08" filterUnits="userSpaceOnUse" color-interpolation-filters="sRGB">
<feFlood flood-opacity="0" result="BackgroundImageFix"/>
<feColorMatrix in="SourceAlpha" type="matrix" values="0 0 0 0 0 0 0 0 0 0 0 0 0 0 0 0 0 0 127 0" result="hardAlpha"/>
<feOffset dy="4"/>
<feGaussianBlur stdDeviation="2"/>
<feComposite in2="hardAlpha" operator="out"/>
<feColorMatrix type="matrix" values="0 0 0 0 0 0 0 0 0 0 0 0 0 0 0 0 0 0 0.25 0"/>
<feBlend mode="normal" in2="BackgroundImageFix" result="effect1_dropShadow_539_4663"/>
<feBlend mode="normal" in="SourceGraphic" in2="effect1_dropShadow_539_4663" result="shape"/>
</filter>
<linearGradient id="paint0_linear_539_4663" x1="-64.0234" y1="266.543" x2="989.49" y2="-213.259" gradientUnits="userSpaceOnUse">
<stop stop-color="#3772FF"/>
<stop offset="1" stop-color="#6240EB"/>
</linearGradient>
</defs>
</svg>
