<svg width="56" height="38" viewBox="0 0 56 38" fill="none" xmlns="http://www.w3.org/2000/svg">
<path d="M4.66667 18.9999C4.66667 21.6444 5.32778 24.0652 6.65 26.2624C7.97222 28.4596 9.74167 30.1416 11.9583 31.3083C12.5028 31.6194 12.9014 32.0666 13.1542 32.6499C13.4069 33.2332 13.4167 33.8166 13.1833 34.3999C12.95 35.0221 12.5417 35.4694 11.9583 35.7416C11.375 36.0138 10.8111 35.9944 10.2667 35.6833C7.23333 34.1277 4.76389 31.8819 2.85833 28.9458C0.952778 26.0096 0 22.6944 0 18.9999C0 15.3444 0.923611 12.0583 2.77083 9.14158C4.61806 6.22492 7.03889 3.98881 10.0333 2.43325C10.5778 2.12214 11.1514 2.09297 11.7542 2.34575C12.3569 2.59853 12.7944 3.03603 13.0667 3.65825C13.3389 4.2027 13.3583 4.76658 13.125 5.34992C12.8917 5.93325 12.5028 6.38047 11.9583 6.69159C9.74167 7.85825 7.97222 9.5402 6.65 11.7374C5.32778 13.9346 4.66667 16.3555 4.66667 18.9999ZM32.6667 37.6666C27.4944 37.6666 23.0903 35.8485 19.4542 32.2124C15.8181 28.5763 14 24.1721 14 18.9999C14 13.8277 15.8181 9.42353 19.4542 5.78742C23.0903 2.15131 27.4944 0.333252 32.6667 0.333252C34.8444 0.333252 36.9056 0.683252 38.85 1.38325C40.7944 2.08325 42.5639 3.05547 44.1583 4.29992C44.6639 4.68881 44.9167 5.19436 44.9167 5.81659C44.9167 6.43881 44.6833 6.98325 44.2167 7.44992C43.7889 7.8777 43.2542 8.11103 42.6125 8.14992C41.9708 8.18881 41.3778 8.01381 40.8333 7.62492C39.6667 6.76936 38.3931 6.11797 37.0125 5.67075C35.6319 5.22353 34.1833 4.99992 32.6667 4.99992C28.7778 4.99992 25.4722 6.36103 22.75 9.08325C20.0278 11.8055 18.6667 15.111 18.6667 18.9999C18.6667 22.8888 20.0278 26.1944 22.75 28.9166C25.4722 31.6388 28.7778 32.9999 32.6667 32.9999C34.1833 32.9999 35.6319 32.7763 37.0125 32.3291C38.3931 31.8819 39.6667 31.2305 40.8333 30.3749C41.3778 29.986 41.9708 29.811 42.6125 29.8499C43.2542 29.8888 43.7889 30.1221 44.2167 30.5499C44.6833 31.0166 44.9167 31.561 44.9167 32.1833C44.9167 32.8055 44.6639 33.311 44.1583 33.6999C42.5639 34.9444 40.7944 35.9166 38.85 36.6166C36.9056 37.3166 34.8444 37.6666 32.6667 37.6666ZM47.1333 21.3333H32.6667C32.0056 21.3333 31.4514 21.1096 31.0042 20.6624C30.5569 20.2152 30.3333 19.661 30.3333 18.9999C30.3333 18.3388 30.5569 17.7846 31.0042 17.3374C31.4514 16.8902 32.0056 16.6666 32.6667 16.6666H47.1333L45.0333 14.5666C44.6056 14.1388 44.3917 13.5944 44.3917 12.9333C44.3917 12.2721 44.6056 11.7277 45.0333 11.2999C45.4611 10.8721 46.0056 10.6583 46.6667 10.6583C47.3278 10.6583 47.8722 10.8721 48.3 11.2999L54.3667 17.3666C54.8333 17.8333 55.0667 18.3777 55.0667 18.9999C55.0667 19.6221 54.8333 20.1666 54.3667 20.6333L48.3 26.6999C47.8722 27.1277 47.3278 27.3416 46.6667 27.3416C46.0056 27.3416 45.4611 27.1277 45.0333 26.6999C44.6056 26.2721 44.3917 25.7277 44.3917 25.0666C44.3917 24.4055 44.6056 23.861 45.0333 23.4333L47.1333 21.3333Z" fill="black"/>
</svg>
