<svg xmlns="http://www.w3.org/2000/svg" xml:space="preserve" width="1024" height="1024" viewBox="0 0 270.9 270.9"><path d="M133.1 35c-1.8 0-2.5.2-4.6.7l-3 1a25 25 0 0 0-5.3 4.8l-1 1.4h-3.4c-4.3-.1-7 .3-10.2 1.5a17.6 17.6 0 0 0-10 9.3c-.3.7-.6 2.1-.8 3l-.2 1.9-1.3.2c-1.8.4-3.4 1-4.9 1.8a22 22 0 0 0-5.5 5.3 19.8 19.8 0 0 0-2.9 8l-3.2-.6c-3-.6-3.5-.6-8.3-.6-4.7 0-5.5 0-7.5.5-9.9 2.2-17.7 6-22.9 11.2a18.4 18.4 0 0 0-4.8 7.6 17 17 0 0 0-1.1 6.3c-.2 4.4.3 6.3 2.4 9 1.9 2.7 7.2 5.2 14.4 7 3.1.7 6.4 1 11.4.8H64s-.1.6-.5 1.3a46 46 0 0 0-2.2 15.7c.3 6 1.3 12.5 2.4 15.1l.5 1.3-2.3 2.4a28.8 28.8 0 0 0-5.7 7.8c-2.4 5-3 9.3-2 14.4.8 3.5 3 6.9 6 8.8l1.4 1-.6 1.2c-1 1.9-1.4 3.5-1.4 5.6 0 3.7 1.2 6.7 3.4 9 1.3 1.4 3.7 3.3 4.7 3.6.6.1.5-.2.2 4.4-.2 3.3.5 6.9 2 10 1 2.3 3.7 4.8 7 6.4 1.3.7 4.6 1.5 6.9 1.6a33.4 33.4 0 0 0 9.6-1l.6 1.2a25.7 25.7 0 0 0 17.6 11l3.7-.6a16.5 16.5 0 0 0 11.4-7c.3-.5.4-.5 1-.4 1.3.3 9 .2 10.4-.1 1.8-.4 5.2-1.8 6.4-2.6l1-.7 2 .6c4.3 1.5 9.6 2 13.5 1.4a23.8 23.8 0 0 0 13.8-7.1c1.7-1.7 2-2.2 3-4.1a19.1 19.1 0 0 0 .2-16.4c-.5-1-.6-1.4-.4-1.5 1.6-.4 3.5-1.2 5.5-2.2 3.8-2 6-4.8 7.7-9.5a23 23 0 0 0 .8-10.4c-.3-1.6-1-3.4-2.3-6.4-.6-1.4-.6-1.4-.2-1.6 1.1-.7 3.7-3 5.3-4.6a18 18 0 0 0 4.2-8c.5-1.9.6-2.7.6-5.3 0-3 0-3.2-.7-5.2a34 34 0 0 0-1.5-3.6c-.8-1.5-3-4-4.5-5-.5-.3-.8-.6-.8-.7l1.6-1.7 1.5-1.6 1.2.5a44.5 44.5 0 0 0 19 3.5c5.1-.5 11-2.6 14.4-5 5.1-3.7 8.4-9.3 9.2-15.8.6-5.2-.6-10.7-3.3-14.6-1.2-1.9-5.4-5-8.7-6.8a22.1 22.1 0 0 0-12.3-1.8l-3.1.4c-.2 0-.3-.5-.4-1.8-.3-3.7-2.1-8-4.9-10.9a24.6 24.6 0 0 0-5.8-4.6l-.8-.2.2-1.1.2-4.1c0-2.9 0-3-.8-4.8a23 23 0 0 0-11.2-12c-1.7-.6-5.1-1.3-6.6-1.3l-2.5.3a9 9 0 0 1-2 .3l-.7-1.4c-1-2.6-2.6-4.7-5.4-7a15.8 15.8 0 0 0-16-3.1c-1.4.4-3 1.1-3.7 1.5l-1.1.8-1.8-1.8a19.5 19.5 0 0 0-14.8-5.7zm2.2 9.7c1.5 0 2.9.2 3.7.5 1.9.8 3.7 2.2 4.4 3.5 1.5 2.7 2.4 7 2.4 11.2 0 2.7 0 3 .6 2.6.2-.2 1.4-2 1.4-2.2l1.4-2.6c1.8-2.9 3.7-5 6-6.5 2.2-1.3 2.9-1.5 4.7-1.5 1.8 0 3.7.4 5 1.2 1.6 1 3.7 3.1 4.3 4.5a15 15 0 0 1 1.2 6.3c-.1 1.3-1 4.3-1.9 5.6-.2.4-.5 1-.5 1.3-.2.4-.1.4.5.4 1.6 0 3-.9 5.8-3.8 3.3-3.5 3.8-3.7 6.3-3.6 1.6 0 2.1.2 3.2.7 1.4.7 3.2 2.4 3.8 3.5.5 1 1 2.8 1 4 0 1.3-1 5-1.7 7-1 2.6-1.9 5.5-1.9 6.3 0 1.1.5 1.3 2.3 1 2.6-.6 5-.5 6.8.2 1.9.6 3.8 2 4.4 3.3a18 18 0 0 1 1.7 6.8v2.3l-2.7 1.3a60 60 0 0 1-6.9 3l-2 .9-1.6-1.1-2.6-2c-1.4-1-7.3-6.2-8.4-7.4-1-1.1-1.5-2.3-1.1-2.5.2 0 .5-.3.8-.6 1-1 .4-3.6-1-4a43.1 43.1 0 0 1-15.1 0c-4.3-1.2-7.5-3-10.7-6.4-1-1-2-1.8-2.3-1.9l-2.7-.3c-4.2-.5-7.2-1.3-10-2.6-2.1-1-3.7-1.3-4-.7l-1.5.8-3.5 1.9a28.5 28.5 0 0 1-13.1 3.4c-3 0-4-.3-5.6-2a13 13 0 0 1-3.1-6.1c-.7-3-.8-3.7-.5-6.2a23 23 0 0 1 1.5-6.4 17 17 0 0 1 4.3-5.1c.4-.2 1.6-.5 2.7-.6 1.6-.2 2.2-.2 3.3 0 1.5.5 2.8 1 3.7 1.9 1 .8 3.5 3.9 5.1 6.3l1.8 2.4c.3.3.4.2.2-1a37 37 0 0 1 0-9.4c.2-1 .5-2.2.7-2.5.8-1.7 3.6-4 5.8-4.7.8-.3 2.2-.4 3.6-.4zM98 66.7l.2 1.3c.2 2.2 1.1 5.5 2 7.5.9 1.9.9 2.1-.4 2.1-.6 0-1.7 1-2.2 2l-.5.2-3.3-1.6a44.3 44.3 0 0 0-5.9-2.8c0-.8 2.6-4.8 4-6 1.1-1 4.1-2.5 5.3-2.7zm31.7 9.6c.4 0 .7.2 1.2.7a14 14 0 0 0 6 3c2.8.7 4.2.6 7.2-.3.4-.1.7.2 2 2.3a19.4 19.4 0 0 0 18.4 9.2c1.8 0 2.7-.2 4-.7l1.8-.6 3.8 3.9c5.8 5.7 8.2 7.8 11.5 9.9 2.3 1.4 4.6 2.5 5.8 2.7 1 .2 4-.6 5.8-1.5a37.5 37.5 0 0 0 4.8-2 69 69 0 0 1 4.6-1.8l2.7-.9h4.5c4.4 0 4.6 0 6.4.7 4.6 1.5 9.2 5 10 7.6.4 1.5.4 4.6 0 6.7-.9 3.9-4 7.8-7.3 9.3a29 29 0 0 1-12.7 2.2 40 40 0 0 1-15.6-4.5l-2.7-1.3-1-.6 1.3-1.5a32 32 0 0 1 11.4-7.7c3-1 6.6-1.7 10.6-2 5-.2 6.4.2 8.8 2.5 1.5 1.3 2 1.5 2.7 1 1.3-1.2-.8-4.5-4-6.2a19 19 0 0 0-7.5-1.5 34.7 34.7 0 0 0-26 13.4l-1.2 1.5-.1 3.4a41 41 0 0 1-.3 3.5l-.2-2A56.6 56.6 0 0 0 174 95.5c-2.1-2.6-3.5-4-3.6-3.8a58 58 0 0 1 4 7.1l.7 1.2 1 2.1a51.4 51.4 0 0 1 4 11.2c.7 1.9 1.2 4.4 1.8 8 1 6 .4 11.3-2.2 19.3-1 3.2-4.7 10.7-6.5 13.3a117.9 117.9 0 0 1-19.5 20.6c0 .8 3.7-.4 6.7-2.2 4-2.5 5-3.3 8.5-6.8a75.7 75.7 0 0 0 16.5-23.6c.1-.2 1.3.7 2 1.5 1.2 1.2 1.7 2.2 2.5 4 .6 1.7.7 2 .6 3.6 0 1.6-.2 2-1 3.8-.9 1.6-1.4 2.3-3.1 4-2.6 2.6-6 5-9.3 6.5-3.4 1.5-3.4 1.7-.5 3.4 2.7 1.6 3.9 2.8 4.9 5 .7 1.5.8 1.7.8 4s0 2.5-.7 3.8c-1.4 3-3.8 5-7.8 6.8-4 1.8-6.1 2.4-10 2.7l-2.8.4c-.6.2-.5.8.3 1.5 1.3 1.2 4 4.4 4.8 5.9 2.5 4.2 3.2 8.3 2 11.5-.5 1.7-1.4 2.7-3.6 4.2-2.3 1.5-3.4 2-5.7 2.6-1.9.4-2.7.5-8.7.5h-6.6l-1.9 1-3.8 1.4a15 15 0 0 1-5.3.6 18 18 0 0 1-5.3-.4c-2-.6-4.2-1.4-5.9-2.5l-1.3-.7c-.4 0-1 .7-2 2.4-3 4.4-7 6.9-9.8 6-2-.6-4-2.7-6.4-6.4-2-3.2-4-5.8-4.7-5.9-.3 0-1 .3-1.6.7-3.4 2.2-8 4.1-10 4.1-1.8 0-4-1.2-5.1-3-.8-1.2-2-3.7-2.4-5.3a13 13 0 0 1-.4-6c.3-2 1.7-5.9 2.2-6.4.2-.2.3-.6.3-1s-.2-.5-1.7-.6c-2.7-.2-6-1.5-7.2-2.8a7.9 7.9 0 0 1-1.6-3.6c-.1-1.4.4-4 1.5-6.8 1.2-2.9 1.3-3.4 1.2-3.9l-2.4-1.4a13.7 13.7 0 0 1-5.7-4.3 7 7 0 0 1-1.3-4.4c0-1.8.8-3.4 2.8-5.5 1.4-1.5 4.4-3.8 5-3.8.2 0 1.2.8 2.3 2 1.5 1.4 2.4 2 3.8 2.8 2.7 1.4 5 2 5.4 1.3.1-.1-.6-1-1.7-2.1a30.8 30.8 0 0 1-7.7-13.1 50 50 0 0 1-1.9-15.8 65 65 0 0 1 3.6-18.7 19 19 0 0 1 2.8-5.1l2.2-3.7a74.3 74.3 0 0 1 18.8-21.1l3.5-3.2 1.7-1.7 2.2 1c3.1 1.6 5 2 8.4 2 3 0 4.8-.3 7.8-1.6 2.3-.9 4-2.1 5.8-4 1-1 1.5-1.5 2-1.7zm-59 5.2a69 69 0 0 1 12 .9c2.5.6 9.2 2.8 9.2 3 0 .2-.4.7-.8 1.2L90 88c-.2.3-.6.3-2 0-5.3-1-14.6-.4-19.3 1.5-2.7 1-7.8 3.4-9 4.3-2 1.3-4.4 3.7-5.3 5.1-2.2 3.4-3 6.2-2 6.4.7 0 1.4-.5 2.9-2.5a26 26 0 0 1 11-9A38 38 0 0 1 86.4 91l-3 2.8a40 40 0 0 0-7.9 9.5c-.6 1-1.2 2-1.4 2-.7.7-3.8 1-11.4 1-5.7 0-8 0-9.6-.2-3.7-.6-7.4-1.5-8.7-2.2-1-.5-2.6-2.3-3.3-3.5-.5-1-.6-1.4-.6-3 0-1.4 0-1.9.6-3a30.3 30.3 0 0 1 14-10.4 42 42 0 0 1 15.5-2.6zm34.2 6.2c-4.7 0-9 2.6-10.8 6.6-.6 1.3-.5 2.4.2 2.5.5 0 1.2-.4 3.3-2 1.7-1.5 3.3-2.3 5.2-2.7 3-.7 6.2-.3 7.9.9 1 .8 4 3.8 4.7 5 .7 1.2 1 1.2 1.1.5v-2.2c-.2-3.2-1.8-5.4-5.2-7a12 12 0 0 0-6.4-1.6zm53.8 9c-3.2 0-3.2 0-4.7.7-2.2 1.1-4.6 4-4.8 5.7-.1 1.2.2 1.3 1.5.2 2-1.5 3.6-2.1 5.7-2.3a9.2 9.2 0 0 1 9.3 5.5c.8 1.5 2 5 2.4 6.8.1.7.4.9.6.5.3-.5 1-3.8 1.2-5.2.1-2-.4-4.4-1.3-6a18 18 0 0 0-5.4-5.2c-1.3-.7-1.3-.7-4.5-.7zm-45.3 10.4c-1.3 0-1.7 0-2.7.6-1.1.6-2 1.5-2 2l1.2.1c1.6 0 4.3.6 5.4 1.1 2 1 3.4 2.8 4.8 6 .8 1.6 1.3 2 2 1.7.2 0 .8-.7 1.3-1.3a6.8 6.8 0 0 1 5.5-2.5c1.6 0 1.9.1 3.4 1 1.8.9 2.1 1 2.1.2 0-.6-1.2-2.5-2-3.3-1.2-1-2.2-1.4-4.1-1.5-1.5-.1-1.9 0-3 .5L123 113l-1 .8-.6-1.2a15 15 0 0 0-5-4.8 5.3 5.3 0 0 0-3-.7zm1.7 15.8-3 .2c-4.2.6-9.6 2.1-12.6 3.6-4.2 2-7.6 5.2-5.2 4.9l.8-.1v5.5a122.7 122.7 0 0 0 3.9 25.8 24 24 0 0 0 5.7 10 21 21 0 0 0 18.5 4.9c3-.8 4.7-1.8 7-4 1.1-1.3 2.2-2.6 2.7-3.5l2.3-3.9a42.7 42.7 0 0 0 3.4-6.6l.9-1.7a252.6 252.6 0 0 1 5.7-12.4 38.1 38.1 0 0 0 2.2-5.6l.9.6c.7.7 1.5 1 1.9.6.3-.4-2.6-4-4.9-6a47.2 47.2 0 0 0-30.2-12.3zm-.8 2 4.7.1c3.8.3 3.7.3 7.8 1.6a43 43 0 0 1 17.8 10.5c1.7 1.6 1.7 1.7 1.4 2.3l-.8 2c-1 3-1.3 3.6-3.2 7.3-2.3 4.6-5 10.5-5.5 11.8-.5 1.4-2.6 5.6-3.4 6.8a26 26 0 0 1-7.6 7.8c-.8.4-1 .5-1 .2l1-.7a31.6 31.6 0 0 0 9.8-13.6c0-.4-3.5-2-5.1-2.4a9.4 9.4 0 0 0-5.5.3c-.4.2-1.5 1.2-2.5 2.2l-1.8 1.8-.1-2.4c-.1-2.7-.2-3-1-3.3-1.5-.6-4.3.7-6.5 2.8a27.3 27.3 0 0 0-6 12c-.2.6-.2.7-.6.3l-2.1-2.5a21 21 0 0 1-4.5-10 75.3 75.3 0 0 1-1.6-29.2l.1-1 2.2-1c4.6-2.2 9.3-3.4 14-3.6zm-25.6 43.9c-.7-.1-.8.2-.7.8a53.8 53.8 0 0 0 17.2 19.7c2.1 1.5 6.5 3.3 10.2 4.2a35.5 35.5 0 0 0 23.5-5.7c3.9-2.3 5.2-3.4 8.6-6.7 3.7-3.6 5.7-6.6 5.7-8.4 0-.8-.5-.6-2.1 1a80 80 0 0 1-11.3 9.4 41 41 0 0 1-17.9 6c-3 .3-4.3.2-7-.4a32.8 32.8 0 0 1-15.7-8.8c-1.6-1.7-5.7-6.7-7.5-9.2-.9-1.2-1-1.4-2.2-1.7l-.8-.2z" style="stroke-width:.832939"/></svg>